<!-- Generated by IcoMoon.io -->
<svg version="1.1" xmlns="http://www.w3.org/2000/svg" width="24" height="24" viewBox="0 0 24 24">
<title>action-undo</title>
<path d="M23.204 22.086c-0.008 0-0.017 0-0.025-0.001-0.379-0.012-0.619-0.307-0.651-0.685-0.025-0.278-0.796-7.010-11.302-7.002v4.304c0 0.29-0.167 0.555-0.43 0.678-0.26 0.125-0.573 0.086-0.796-0.099l-9.726-8.057c-0.174-0.143-0.275-0.356-0.274-0.581s0.102-0.438 0.276-0.58l9.725-7.982c0.224-0.183 0.534-0.218 0.795-0.096 0.261 0.124 0.429 0.388 0.429 0.678v4.21c4.358 0.138 7.757 1.54 9.945 4.101 3.561 4.166 2.766 10.222 2.729 10.474-0.055 0.367-0.325 0.637-0.695 0.637zM10.475 12.886l0.001-0c7.505 0.005 10.373 2.539 12.010 4.777-0.24-1.793-0.939-3.954-2.461-5.719-2.023-2.346-5.284-3.582-9.551-3.582-0.414 0-0.75-0.336-0.75-0.75v-3.37l-7.791 6.407 7.791 6.466v-3.478c0-0.199 0.079-0.39 0.22-0.531s0.331-0.219 0.53-0.219z"></path>
</svg>
