<!-- Generated by IcoMoon.io -->
<svg version="1.1" xmlns="http://www.w3.org/2000/svg" width="24" height="24" viewBox="0 0 24 24">
<title>arrow-up-circle</title>
<path d="M24 12c0-6.628-5.373-12-12-12s-12 5.372-12 12c0 6.627 5.372 12 12 12s12-5.373 12-12zM1.477 12c0-5.79 4.734-10.5 10.523-10.5s10.5 4.71 10.5 10.5-4.71 10.5-10.5 10.5-10.523-4.71-10.523-10.5zM12.758 17.258v-8.448l2.713 2.713c0.293 0.293 0.768 0.293 1.061 0s0.293-0.768 0-1.060l-4.547-4.43-4.547 4.43c-0.147 0.147-0.22 0.338-0.22 0.53s0.073 0.384 0.22 0.53c0.293 0.293 0.768 0.293 1.060 0l2.76-2.76v8.495c0 0.414 0.336 0.75 0.75 0.75s0.75-0.336 0.75-0.75z"></path>
</svg>
