<!-- Generated by IcoMoon.io -->
<svg version="1.1" xmlns="http://www.w3.org/2000/svg" width="24" height="24" viewBox="0 0 24 24">
<title>arrow-left-circle</title>
<path d="M12 0c-6.628 0-12 5.373-12 12s5.372 12 12 12c6.627 0 12-5.372 12-12s-5.373-12-12-12zM12 22.524c-5.79 0-10.5-4.734-10.5-10.524s4.71-10.5 10.5-10.5 10.5 4.71 10.5 10.5-4.71 10.524-10.5 10.524zM17.258 11.242h-8.448l2.713-2.713c0.293-0.293 0.293-0.768 0-1.060s-0.768-0.293-1.060 0l-4.43 4.547 4.43 4.547c0.147 0.147 0.338 0.22 0.53 0.22s0.384-0.073 0.53-0.22c0.293-0.293 0.293-0.768 0-1.061l-2.76-2.76h8.495c0.414 0 0.75-0.336 0.75-0.75s-0.336-0.75-0.75-0.75z"></path>
</svg>
