<!-- Generated by IcoMoon.io -->
<svg version="1.1" xmlns="http://www.w3.org/2000/svg" width="24" height="24" viewBox="0 0 24 24">
<title>arrow-right-circle</title>
<path d="M12 0c-6.627 0-12 5.373-12 12s5.373 12 12 12c6.628 0 12-5.372 12-12s-5.372-12-12-12zM12 22.524c-5.79 0-10.5-4.734-10.5-10.524s4.71-10.5 10.5-10.5 10.5 4.71 10.5 10.5-4.71 10.524-10.5 10.524zM12.477 7.468c-0.293 0.293-0.293 0.768 0 1.061l2.713 2.713h-8.448c-0.414 0-0.75 0.336-0.75 0.75s0.336 0.75 0.75 0.75h8.495l-2.76 2.76c-0.293 0.293-0.293 0.768 0 1.061 0.147 0.147 0.338 0.22 0.53 0.22s0.384-0.073 0.53-0.22l4.43-4.547-4.43-4.547c-0.293-0.293-0.768-0.293-1.061 0z"></path>
</svg>
