<!-- Generated by IcoMoon.io -->
<svg version="1.1" xmlns="http://www.w3.org/2000/svg" width="24" height="24" viewBox="0 0 24 24">
<title>arrow-down-circle</title>
<path d="M0 12c0 6.628 5.373 12 12 12s12-5.372 12-12c0-6.627-5.372-12-12-12s-12 5.373-12 12zM22.524 12c0 5.79-4.734 10.5-10.524 10.5s-10.5-4.71-10.5-10.5 4.71-10.5 10.5-10.5 10.524 4.71 10.524 10.5zM11.242 6.742v8.448l-2.713-2.713c-0.293-0.293-0.768-0.293-1.060 0s-0.293 0.768 0 1.061l4.547 4.43 4.547-4.43c0.147-0.147 0.22-0.338 0.22-0.53s-0.073-0.384-0.22-0.53c-0.293-0.293-0.768-0.293-1.060 0l-2.76 2.76v-8.495c0-0.414-0.336-0.75-0.75-0.75s-0.75 0.336-0.75 0.75z"></path>
</svg>
