<!-- Generated by IcoMoon.io -->
<svg version="1.1" xmlns="http://www.w3.org/2000/svg" width="24" height="24" viewBox="0 0 24 24">
<title>bag</title>
<path d="M20.271 3.698h-4.493v-1.442c0-1.244-1.012-2.256-2.256-2.256h-2.999c-1.244 0-2.256 1.012-2.256 2.256v1.442h-4.54c-0.831 0-1.504 0.673-1.504 1.504v17.294c0 0.831 0.673 1.504 1.504 1.504h16.543c0.831 0 1.504-0.673 1.504-1.504v-17.294c0-0.831-0.673-1.504-1.504-1.504h0zM9.772 2.256c0-0.415 0.337-0.752 0.752-0.752h2.999c0.415 0 0.752 0.337 0.752 0.752v1.442h-4.503v-1.442zM20.271 22.496h-16.543v-17.294h4.54v1.547s-0.020 0.751 0.747 0.751c0.846 0 0.756-0.751 0.756-0.751v-1.547h4.503v1.547s-0.050 0.755 0.749 0.755c0.752 0 0.755-0.755 0.755-0.755v-1.547h4.493v17.294z"></path>
</svg>
