<!-- Generated by IcoMoon.io -->
<svg version="1.1" xmlns="http://www.w3.org/2000/svg" width="24" height="24" viewBox="0 0 24 24">
<title>ban</title>
<path d="M12 0c-6.627 0-12 5.373-12 12s5.373 12 12 12c6.628 0 12-5.372 12-12s-5.372-12-12-12zM1.5 12c0-2.631 0.975-5.038 2.58-6.883l14.809 14.809c-1.845 1.614-4.255 2.597-6.889 2.597-5.79 0-10.5-4.734-10.5-10.524v0zM19.946 18.862l-14.803-14.803c1.842-1.592 4.238-2.559 6.858-2.559 5.79 0 10.5 4.71 10.5 10.5 0 2.617-0.965 5.016-2.554 6.862z"></path>
</svg>
