<!-- Generated by IcoMoon.io -->
<svg version="1.1" xmlns="http://www.w3.org/2000/svg" width="24" height="24" viewBox="0 0 24 24">
<title>basket-loaded</title>
<path d="M23.864 6.629c-0.141-0.199-0.369-0.318-0.612-0.318h-2.35l-4.832-4.118c-0.588-0.588-1.543-0.589-2.132 0l-4.75 4.118h-1.934l-1.211-4.176c-0.475-1.644-1.603-1.822-2.066-1.822h-3.229c-0.414 0-0.748 0.335-0.748 0.748s0.335 0.748 0.748 0.748h3.228c0.102 0 0.414 0 0.626 0.735l4.166 15.31c0.090 0.323 0.385 0.546 0.721 0.546h10.175c0.316 0 0.598-0.198 0.704-0.495l3.586-10.592c0.083-0.23 0.048-0.485-0.092-0.684zM15.004 3.259l3.581 3.052h-7.164zM19.138 16.904h-9.080l-2.383-9.095h14.512zM17.654 19.918c-1.041 0-1.884 0.843-1.884 1.884s0.843 1.884 1.884 1.884 1.884-0.843 1.884-1.884c0-1.041-0.843-1.884-1.884-1.884zM10.87 19.918c-1.041 0-1.884 0.843-1.884 1.884s0.843 1.884 1.884 1.884 1.884-0.843 1.884-1.884c0-1.041-0.843-1.884-1.884-1.884z"></path>
</svg>
