<!-- Generated by IcoMoon.io -->
<svg version="1.1" xmlns="http://www.w3.org/2000/svg" width="24" height="24" viewBox="0 0 24 24">
<title>bell</title>
<path d="M21.225 16.685c-0.875-1.065-2.074-2.572-2.074-4.11v-4.898c0-4.219-3.156-7.652-7.188-7.652s-7.164 3.433-7.164 7.652v4.898c0 1.512-1.3 2.941-2.125 4.050-0.742 0.996-1.327 1.784-0.932 2.57 0.348 0.692 1.218 0.781 1.937 0.781h4.298c0.001 2.208 1.792 3.998 4 3.998s3.999-1.79 4-3.998h4.398c0.457 0 1.527 0 1.895-0.778 0.372-0.788-0.223-1.512-1.046-2.513zM11.977 22.403c-1.341 0-2.429-1.086-2.431-2.427h4.862c-0.002 1.34-1.089 2.427-2.431 2.427zM20.376 18.38h-16.697c-0.115 0-0.211-0.004-0.29-0.009 0.155-0.239 0.381-0.545 0.566-0.793 0.914-1.228 2.441-2.962 2.441-5.002v-4.898c0-3.339 2.415-6.055 5.567-6.055s5.591 2.716 5.591 6.055v4.898c0 2.11 1.408 3.873 2.437 5.124 0.173 0.211 0.381 0.463 0.542 0.679-0.048 0.001-0.1 0.002-0.157 0.002z"></path>
</svg>
