<!-- Generated by IcoMoon.io -->
<svg version="1.1" xmlns="http://www.w3.org/2000/svg" width="24" height="24" viewBox="0 0 24 24">
<title>book-open</title>
<path d="M22.303 0.049l-9.904 2.683c-0.252 0.067-0.798 0.067-1.049-0.004l-9.649-2.674c-0.861-0.237-1.695 0.384-1.695 1.271v18.217c0 0.751 0.57 1.47 1.295 1.672l9.65 2.674c0.258 0.072 0.59 0.111 0.935 0.111 0.236 0 0.585-0.018 0.907-0.106l9.904-2.683c0.727-0.197 1.299-0.914 1.299-1.668v-18.218c0-0.886-0.834-1.509-1.691-1.276zM11.251 22.417l-9.574-2.647c-0.072-0.020-0.173-0.152-0.173-0.227v-17.981l9.446 2.611c0.091 0.025 0.194 0.045 0.301 0.062v18.182zM22.497 19.543c0 0.074-0.121 0.203-0.193 0.222l-9.554 2.588v-18.166c0.014-0.003 0.028-0.005 0.042-0.009l9.705-2.625v17.99h0zM15.044 8.589c0.067 0 0.136-0.009 0.203-0.028l5.243-1.476c0.399-0.113 0.631-0.526 0.519-0.924s-0.528-0.629-0.924-0.519l-5.243 1.476c-0.399 0.113-0.631 0.526-0.519 0.924 0.093 0.331 0.394 0.547 0.721 0.547zM15.044 13.084c0.067 0 0.136-0.009 0.203-0.028l5.243-1.476c0.399-0.113 0.631-0.526 0.519-0.924s-0.528-0.629-0.924-0.519l-5.243 1.476c-0.399 0.113-0.631 0.526-0.519 0.924 0.093 0.331 0.394 0.547 0.721 0.547zM15.044 17.579c0.067 0 0.136-0.009 0.203-0.028l5.243-1.476c0.399-0.113 0.631-0.526 0.519-0.924s-0.528-0.629-0.924-0.519l-5.243 1.476c-0.399 0.113-0.631 0.526-0.519 0.924 0.093 0.33 0.394 0.547 0.721 0.547zM9.252 7.118l-5.243-1.476c-0.396-0.111-0.812 0.121-0.924 0.519s0.12 0.811 0.519 0.924l5.243 1.476c0.067 0.019 0.136 0.028 0.203 0.028 0.327 0 0.628-0.216 0.721-0.547 0.112-0.398-0.12-0.811-0.519-0.924zM9.252 11.613l-5.243-1.476c-0.396-0.111-0.812 0.121-0.924 0.519s0.12 0.811 0.519 0.924l5.243 1.476c0.067 0.019 0.136 0.028 0.203 0.028 0.327 0 0.628-0.216 0.721-0.547 0.112-0.398-0.12-0.811-0.519-0.924zM9.252 16.109l-5.243-1.476c-0.396-0.111-0.812 0.121-0.924 0.519s0.12 0.811 0.519 0.924l5.243 1.476c0.067 0.019 0.136 0.028 0.203 0.028 0.327 0 0.628-0.216 0.721-0.547 0.112-0.398-0.12-0.811-0.519-0.924z"></path>
</svg>
