<!-- Generated by IcoMoon.io -->
<svg version="1.1" xmlns="http://www.w3.org/2000/svg" width="24" height="24" viewBox="0 0 24 24">
<title>briefcase</title>
<path d="M22.5 4.487h-5.991v-1.453c0-1.241-1.009-2.25-2.25-2.25h-4.51c-1.241 0-2.25 1.009-2.25 2.25v1.453h-5.999c-0.825 0-1.5 0.675-1.5 1.5v5.256h-0.001v1.5h0.001v8.972c0 0.825 0.675 1.5 1.5 1.5h21c0.825 0 1.5-0.675 1.5-1.5v-15.728c0-0.825-0.675-1.5-1.5-1.5h0zM9 3.034c0-0.414 0.336-0.75 0.75-0.75h4.51c0.414 0 0.75 0.336 0.75 0.75v1.453h-6.010zM1.5 5.987h21v5.256h-8.259v-0.768c0-0.827-0.673-1.5-1.5-1.5h-1.494c-0.827 0-1.5 0.673-1.5 1.5v0.768h-8.247v-5.256zM12.743 14.253h-1.496v-3.777h1.494zM1.5 21.715v-8.972h8.247v1.509c0 0.827 0.673 1.5 1.5 1.5h1.494c0.827 0 1.5-0.673 1.5-1.5v-1.509h8.259v8.972h-21z"></path>
</svg>
