<!-- Generated by IcoMoon.io -->
<svg version="1.1" xmlns="http://www.w3.org/2000/svg" width="24" height="24" viewBox="0 0 24 24">
<title>bubble</title>
<path d="M12 3c5.79 0 10.5 3.365 10.5 7.5s-4.71 7.5-10.5 7.5l-0.621 0.002c-0.412 0-0.682-0.011-1.103-0.074l-0.84-0.12-0.539 0.653c-0.248 0.3-1.513 1.339-2.909 2.008 0.284-0.751 0.493-1.57 0.512-2.381l0.007-0.045v-1.046l-0.817-0.417c-2.663-1.362-4.189-3.578-4.189-6.080 0-4.136 4.71-7.5 10.5-7.5zM12 1.5c-6.628 0-12 4.030-12 9 0 3.095 1.834 5.793 5.006 7.414 0 0.019-0.006 0.033-0.006 0.054 0 1.345-0.754 2.823-1.196 3.585h0.001c-0.035 0.082-0.055 0.171-0.055 0.267 0 0.377 0.304 0.68 0.68 0.68 0.057 0 0.147-0.012 0.18-0.012 0.008 0 0.012 0 0.012 0.002 2.344-0.383 4.921-2.454 5.433-3.078 0.527 0.078 0.883 0.090 1.324 0.090 0.186 0 0.387-0.002 0.622-0.002 6.627 0 12-4.029 12-9s-5.373-9-12-9z"></path>
</svg>
