<!-- Generated by IcoMoon.io -->
<svg version="1.1" xmlns="http://www.w3.org/2000/svg" width="24" height="24" viewBox="0 0 24 24">
<title>bubbles</title>
<path d="M9.957 15.922c5.413 0 9.607-3.091 9.543-7.679 0-4.059-4.294-7.304-9.707-7.304s-9.801 3.245-9.801 7.304c0 2.528 1.24 5.224 3.83 6.548 0 0.015-0.005 0.027-0.005 0.044 0 1.099-0.915 2.605-1.275 3.226h0.002c-0.029 0.068-0.046 0.141-0.046 0.219 0 0.308 0.248 0.555 0.555 0.555 0.045 0 0.119-0.009 0.146-0.009 0.007 0 0.010 0 0.009 0.002 1.914-0.313 4.74-2.467 5.159-2.977 0.43 0.064 0.72 0.074 1.080 0.074 0.153-0 0.316-0.003 0.509-0.003zM7.751 14.308l-0.96 0.798c-0.223 0.257-1.191 1.065-2.024 1.589 0.507-1.446 0.485-1.904 0.485-1.904l0.071-0.918-0.817-0.417c-2.078-1.063-3.012-3.275-3.012-5.212 0-3.227 3.723-5.804 8.301-5.804s8.207 2.577 8.207 5.804c-0.014 3.577-3.419 6.202-7.996 6.202 0 0-0.699 0.027-1.416-0.079zM24.008 14.302c0-2.033-0.794-3.583-2.776-4.746-0.048 0.541-0.203 1.121-0.37 1.63 1.281 0.885 1.647 1.794 1.647 3.116 0 1.618-0.754 2.791-2.506 3.688l-0.746 0.37s0.078 1.922 0.193 2.408c-1.464-1.073-1.966-1.969-1.966-1.969l-0.789 0.121c-0.312 0.045-1.156 0.046-1.156 0.046-2.038 0-3.548-0.486-4.836-1.494 0.35-0.021-2.090-0.021-2.145 0.027 1.49 1.819 3.925 2.967 6.981 2.967 0.166 0 0.307 0.002 0.439 0.002 0.311 0 0.562-0.009 0.934-0.063 0.363 0.44 2.396 2.379 4.050 2.649-0.001-0.002 0.001-0.002 0.009-0.002 0.022 0 0.086 0.008 0.125 0.008 0.266 0 0.48-0.214 0.48-0.48 0-0.067-0.015-0.131-0.039-0.189h0.002c-0.311-0.536-0.8-2.103-0.8-3.053 0-0.015-0.005-0.025-0.005-0.038 2.238-1.145 3.275-2.814 3.275-4.999z"></path>
</svg>
