<!-- Generated by IcoMoon.io -->
<svg version="1.1" xmlns="http://www.w3.org/2000/svg" width="24" height="24" viewBox="0 0 24 24">
<title>bulb</title>
<path d="M12 0c-4.641 0-8.276 3.776-8.276 8.417 0 3.497 1.717 5.162 3.075 6.378 0.874 0.783 1.462 1.255 1.462 1.836v1.272c0 0.033 0.005 0.064 0.009 0.097h-0.017v2.171c0 2.29 1.481 3.829 3.775 3.829 2.214 0 3.725-1.539 3.725-3.829v-2.171h-0.022c0.004-0.032 0.010-0.064 0.010-0.097v-1.272c0-0.885 0.657-1.42 1.653-2.29 1.348-1.177 2.883-2.641 2.883-5.925 0-4.641-3.635-8.417-8.277-8.417zM11.971 22.5c-1.404 0-2.219-0.871-2.219-2.329l-0.011-1c0.54 0.184 1.275 0.329 2.259 0.329 0.971 0 1.707-0.155 2.252-0.346v1.017c0 1.48-0.826 2.329-2.281 2.329zM16.407 13.212c-1.019 0.89-2.166 1.81-2.166 3.42v0.948c-0.356 0.199-1.012 0.435-2.253 0.435-1.302 0-1.92-0.231-2.227-0.41v-0.974c0-1.28-1.001-2.093-1.961-2.954-1.273-1.141-2.575-2.434-2.575-5.261-0-3.814 2.962-6.917 6.776-6.917s6.777 3.103 6.777 6.917c0 2.602-1.136 3.717-2.37 4.795z"></path>
</svg>
