<!-- Generated by IcoMoon.io -->
<svg version="1.1" xmlns="http://www.w3.org/2000/svg" width="24" height="24" viewBox="0 0 24 24">
<title>calculator</title>
<path d="M22.5-0.002h-21c-0.825 0-1.5 0.675-1.5 1.5v21.005c0 0.825 0.675 1.5 1.5 1.5h21c0.825 0 1.5-0.675 1.5-1.5v-21.005c0-0.825-0.675-1.5-1.5-1.5zM22.5 22.502h-21v-21.005h21v21.005zM5.25 8.257h1.5v1.5c0 0.414 0.336 0.75 0.75 0.75s0.75-0.336 0.75-0.75v-1.5h1.5c0.414 0 0.75-0.336 0.75-0.75s-0.336-0.75-0.75-0.75h-1.5v-1.5c0-0.414-0.336-0.75-0.75-0.75s-0.75 0.336-0.75 0.75v1.5h-1.5c-0.414 0-0.75 0.336-0.75 0.75s0.336 0.75 0.75 0.75zM10.152 13.855c-0.293-0.293-0.768-0.293-1.060-0l-1.591 1.591-1.591-1.591c-0.293-0.293-0.768-0.293-1.061 0s-0.293 0.768 0 1.061l1.591 1.591-1.591 1.591c-0.293 0.293-0.293 0.768 0 1.061s0.768 0.293 1.061 0l1.591-1.59 1.591 1.591c0.293 0.293 0.768 0.293 1.060 0s0.293-0.768 0-1.061l-1.591-1.591 1.591-1.591c0.293-0.293 0.293-0.768 0-1.061zM14.25 8.257h4.5c0.414 0 0.75-0.336 0.75-0.75s-0.336-0.75-0.75-0.75h-4.5c-0.414 0-0.75 0.336-0.75 0.75s0.336 0.75 0.75 0.75zM14.25 15.757h4.5c0.414 0 0.75-0.336 0.75-0.75s-0.336-0.75-0.75-0.75h-4.5c-0.414 0-0.75 0.336-0.75 0.75s0.336 0.75 0.75 0.75zM14.25 18.757h4.5c0.414 0 0.75-0.336 0.75-0.75s-0.336-0.75-0.75-0.75h-4.5c-0.414 0-0.75 0.336-0.75 0.75s0.336 0.75 0.75 0.75z"></path>
</svg>
