<!-- Generated by IcoMoon.io -->
<svg version="1.1" xmlns="http://www.w3.org/2000/svg" width="24" height="24" viewBox="0 0 24 24">
<title>calender</title>
<path d="M22.5 2.248l-6.005 0v-1.495c0-0.414-0.336-0.75-0.75-0.75s-0.75 0.336-0.75 0.75v1.494h-6v-1.494c0-0.414-0.336-0.75-0.75-0.75s-0.75 0.336-0.75 0.75v1.494h-5.995c-0.828 0-1.5 0.672-1.5 1.5v18.75c0 0.828 0.672 1.5 1.5 1.5h21c0.828 0 1.5-0.672 1.5-1.5v-18.75c0-0.828-0.672-1.5-1.5-1.5zM22.5 22.497l-21-0v-18.75h5.995v0.756c0 0.414 0.336 0.75 0.75 0.75s0.75-0.336 0.75-0.75v-0.755h6v0.756c0 0.414 0.336 0.75 0.75 0.75s0.75-0.336 0.75-0.75v-0.756h6.005v18.75zM17.25 11.998h1.5c0.414 0 0.75-0.336 0.75-0.75v-1.5c0-0.414-0.336-0.75-0.75-0.75h-1.5c-0.414 0-0.75 0.336-0.75 0.75v1.5c0 0.414 0.336 0.75 0.75 0.75zM17.25 17.997h1.5c0.414 0 0.75-0.336 0.75-0.75v-1.5c0-0.414-0.336-0.75-0.75-0.75h-1.5c-0.414 0-0.75 0.336-0.75 0.75v1.5c0 0.415 0.336 0.75 0.75 0.75zM12.75 14.997h-1.5c-0.414 0-0.75 0.336-0.75 0.75v1.5c0 0.414 0.336 0.75 0.75 0.75h1.5c0.414 0 0.75-0.336 0.75-0.75v-1.5c0-0.414-0.336-0.75-0.75-0.75zM12.75 8.998h-1.5c-0.414 0-0.75 0.336-0.75 0.75v1.5c0 0.414 0.336 0.75 0.75 0.75h1.5c0.414 0 0.75-0.336 0.75-0.75v-1.5c0-0.414-0.336-0.75-0.75-0.75zM6.75 8.998h-1.5c-0.414 0-0.75 0.336-0.75 0.75v1.5c0 0.414 0.336 0.75 0.75 0.75h1.5c0.414 0 0.75-0.336 0.75-0.75v-1.5c0-0.414-0.336-0.75-0.75-0.75zM6.75 14.997h-1.5c-0.414 0-0.75 0.336-0.75 0.75v1.5c0 0.414 0.336 0.75 0.75 0.75h1.5c0.414 0 0.75-0.336 0.75-0.75v-1.5c0-0.414-0.336-0.75-0.75-0.75z"></path>
</svg>
