<!-- Generated by IcoMoon.io -->
<svg version="1.1" xmlns="http://www.w3.org/2000/svg" width="24" height="24" viewBox="0 0 24 24">
<title>call-end</title>
<path d="M22.518 4.692c0 0.025-0.002 0.045-0.005 0.061-0.612 0.421-4.033 2.681-4.673 3.091-0.067 0.002-0.238-0.021-0.482-0.15-0.26-0.137-1.018-0.562-2.079-1.167l-0.825-0.471-0.778 0.546c-0.578 0.407-1.835 1.376-3.749 3.289-1.922 1.922-2.887 3.174-3.292 3.75l-0.546 0.778 0.472 0.825c0.457 0.8 1.004 1.766 1.169 2.080 0.133 0.252 0.143 0.425 0.143 0.472 0 0.007 0 0.014-0.001 0.019-0.359 0.573-2.68 4.068-3.103 4.685-0.060 0.010-0.19 0.001-0.353-0.113-1.316-0.95-2.689-2.298-2.886-2.825 0.132-2.807 2.599-6.747 6.96-11.107s8.296-6.827 11.095-6.957c0.529 0.189 1.886 1.563 2.828 2.866 0.066 0.097 0.105 0.216 0.105 0.327zM23.968 4.692c0-0.396-0.12-0.817-0.374-1.181-0.025-0.035-2.532-3.557-3.984-3.511-4.080 0.13-8.875 4.094-12.179 7.397s-7.269 8.098-7.4 12.194v0.034c0 1.434 3.477 3.955 3.512 3.979 0.945 0.662 1.985 0.42 2.408-0.182 0.257-0.366 2.923-4.375 3.223-4.866 0.131-0.214 0.195-0.475 0.195-0.759 0-0.366-0.107-0.772-0.315-1.168-0.203-0.386-0.868-1.555-1.195-2.126 0.354-0.504 1.26-1.687 3.126-3.551 1.852-1.853 3.045-2.767 3.551-3.123 0.571 0.326 1.74 0.99 2.125 1.192 0.725 0.383 1.449 0.426 1.938 0.116 0.46-0.292 4.439-2.946 4.818-3.22 0.357-0.259 0.55-0.721 0.55-1.223z"></path>
</svg>
