<!-- Generated by IcoMoon.io -->
<svg version="1.1" xmlns="http://www.w3.org/2000/svg" width="24" height="24" viewBox="0 0 24 24">
<title>call-out</title>
<path d="M23.446 18.085c-0.367-0.258-4.384-2.929-4.877-3.23-0.215-0.131-0.476-0.195-0.761-0.195-0.367 0-0.774 0.107-1.17 0.316-0.387 0.204-1.558 0.87-2.131 1.197-0.505-0.354-1.691-1.263-3.559-3.133-1.857-1.856-2.773-3.051-3.13-3.559 0.327-0.573 0.992-1.744 1.195-2.129 0.384-0.727 0.427-1.452 0.116-1.942-0.292-0.461-2.952-4.495-3.227-4.875-0.258-0.358-0.722-0.552-1.226-0.552-0.397 0-0.818 0.12-1.184 0.374-0.035 0.025-3.565 2.584-3.518 4.040 0.13 4.088 4.103 8.893 7.413 12.204s8.115 7.285 12.219 7.416h0.034c1.437 0 3.963-3.485 3.987-3.519 0.663-0.947 0.421-1.989-0.183-2.412zM22.41 19.623c-0.951 1.318-2.302 2.694-2.831 2.891-2.813-0.132-6.761-2.604-11.13-6.974s-6.841-8.313-6.971-11.117c0.19-0.53 1.566-1.89 2.872-2.834 0.097-0.067 0.216-0.105 0.327-0.105 0.025 0 0.045 0.002 0.061 0.005 0.422 0.613 2.687 4.041 3.097 4.682 0.002 0.067-0.021 0.239-0.15 0.483-0.137 0.261-0.563 1.020-1.17 2.083l-0.472 0.827 0.547 0.779c0.408 0.579 1.379 1.839 3.296 3.757 1.926 1.926 3.181 2.894 3.758 3.3l0.779 0.547 0.827-0.473c0.801-0.458 1.77-1.006 2.085-1.172 0.253-0.133 0.426-0.144 0.473-0.144 0.008 0 0.014 0 0.019 0.001 0.574 0.36 4.077 2.686 4.695 3.11 0.010 0.060 0.001 0.191-0.113 0.354zM16.029 8.96l6.451-6.412-0.021 3.634c-0.007 0.303 0.234 0.567 0.537 0.56l0.385-0c0.304-0.007 0.554-0.188 0.561-0.49l0.015-5.414c0-0.005-0.020-0.009-0.020-0.014l0.030-0.274c0.003-0.152-0.032-0.288-0.131-0.385-0.097-0.098-0.233-0.158-0.384-0.153l-0.274 0.006c-0.005 0-0.009 0.002-0.015 0.003l-5.378-0.024c-0.303 0.007-0.553 0.257-0.561 0.561l-0.001 0.385c0.046 0.357 0.327 0.566 0.63 0.56l3.545 0.009-6.429 6.39c-0.293 0.293-0.293 0.768 0 1.061s0.768 0.293 1.060 0z"></path>
</svg>
