<!-- Generated by IcoMoon.io -->
<svg version="1.1" xmlns="http://www.w3.org/2000/svg" width="24" height="24" viewBox="0 0 24 24">
<title>call-in</title>
<path d="M23.422 18.072c-0.366-0.257-4.375-2.923-4.866-3.223-0.214-0.131-0.475-0.195-0.759-0.195-0.366 0-0.772 0.107-1.168 0.315-0.386 0.203-1.555 0.868-2.126 1.195-0.504-0.354-1.687-1.26-3.551-3.126-1.853-1.852-2.767-3.045-3.123-3.551 0.326-0.571 0.99-1.74 1.192-2.125 0.383-0.725 0.426-1.449 0.116-1.938-0.292-0.46-2.946-4.486-3.22-4.865-0.258-0.357-0.721-0.55-1.223-0.55-0.396 0-0.817 0.12-1.181 0.373-0.035 0.025-3.557 2.579-3.511 4.031 0.13 4.080 4.094 8.874 7.397 12.178s8.098 7.27 12.194 7.4h0.034c1.434 0 3.955-3.478 3.979-3.512 0.661-0.945 0.42-1.985-0.182-2.407zM22.388 19.608c-0.949 1.315-2.297 2.688-2.825 2.885-2.807-0.132-6.747-2.599-11.107-6.96s-6.827-8.296-6.957-11.094c0.189-0.529 1.563-1.886 2.866-2.828 0.097-0.067 0.216-0.105 0.327-0.105 0.025 0 0.045 0.002 0.061 0.005 0.421 0.612 2.681 4.033 3.091 4.673 0.002 0.067-0.021 0.238-0.15 0.482-0.137 0.26-0.562 1.018-1.167 2.079l-0.471 0.825 0.546 0.778c0.407 0.578 1.376 1.835 3.289 3.749 1.922 1.922 3.174 2.888 3.75 3.293l0.778 0.546 0.825-0.472c0.8-0.457 1.766-1.004 2.080-1.169 0.252-0.133 0.425-0.143 0.472-0.143 0.007 0 0.014 0 0.019 0.001 0.573 0.36 4.068 2.68 4.685 3.103 0.010 0.060 0.001 0.19-0.113 0.353zM15.084 8.831c0.097 0.098 0.232 0.157 0.383 0.153l0.274-0.006c0.005 0 0.009-0.002 0.015-0.003l5.368 0.024c0.302-0.007 0.552-0.257 0.559-0.56l0-0.384c-0.046-0.356-0.326-0.565-0.628-0.558l-3.544-0.009 6.127-6.119c0.292-0.292 0.292-0.766 0-1.059s-0.766-0.292-1.058-0l-6.144 6.135 0.021-3.621c0.007-0.302-0.233-0.566-0.535-0.559l-0.384 0c-0.303 0.007-0.553 0.188-0.56 0.49l-0.015 5.403c0 0.005 0.021 0.009 0.021 0.014l-0.030 0.274c-0.003 0.152 0.033 0.287 0.131 0.384z"></path>
</svg>
