<!-- Generated by IcoMoon.io -->
<svg version="1.1" xmlns="http://www.w3.org/2000/svg" width="24" height="24" viewBox="0 0 24 24">
<title>camera</title>
<path d="M21.75 5.25h-3.45l-1.8-3h-9l-1.8 3h-3.45c-0.75 0-2.25 0.75-2.25 2.227v12.023c0 1.242 1.125 2.25 2.094 2.25h19.703c0.984 0 2.203-1.054 2.203-2.226v-12.024c0-0.75-0.75-2.25-2.25-2.25zM22.5 19.524c0 0.296-0.48 0.71-0.703 0.727h-19.699c-0.174-0.014-0.598-0.352-0.598-0.75v-12.023c0-0.475 0.638-0.715 0.75-0.727h4.299l1.8-3h7.351l1.339 2.272 0.413 0.728h4.298c0.529 0 0.742 0.691 0.75 0.75v12.024zM12 7.5c-2.899 0-5.25 2.351-5.25 5.25s2.351 5.25 5.25 5.25 5.25-2.351 5.25-5.25-2.35-5.25-5.25-5.25zM12 16.5c-2.068 0-3.75-1.682-3.75-3.75s1.682-3.75 3.75-3.75 3.75 1.682 3.75 3.75-1.682 3.75-3.75 3.75z"></path>
</svg>
