<!-- Generated by IcoMoon.io -->
<svg version="1.1" xmlns="http://www.w3.org/2000/svg" width="24" height="24" viewBox="0 0 24 24">
<title>camrecorder</title>
<path d="M14.956 5.235c0.030 0 0.054 0.024 0.054 0.053v2.997c0 0.555 0.306 1.065 0.797 1.325 0.22 0.117 0.462 0.175 0.703 0.175 0.294 0 0.634-0.086 0.887-0.258l5.103-2.888v10.697l-5.131-2.801c-0.257-0.18-0.557-0.27-0.859-0.27-0.237 0-0.475 0.056-0.693 0.169-0.495 0.258-0.806 0.771-0.807 1.329l-0.004 2.949c0 0.029-0.024 0.053-0.054 0.053h-13.399c-0.030 0-0.054-0.023-0.054-0.052l0.004-13.425c0-0.029 0.024-0.053 0.054-0.053h13.399zM23.212 4.485c-0.16 0-0.476 0.047-0.656 0.226l-6.046 3.574v-2.997c0-0.857-0.696-1.552-1.554-1.552h-13.399c-0.859 0-1.554 0.695-1.554 1.552l-0.003 13.424c0 0.857 0.695 1.553 1.554 1.553h13.399c0.859 0 1.554-0.696 1.554-1.553l0.004-2.947 6.164 3.593c0.181 0.18 0.381 0.157 0.541 0.157 0.166 0 0.29-0.051 0.305-0.057 0.291-0.122 0.48-0.403 0.48-0.719v-13.476c0-0.316-0.188-0.599-0.48-0.718-0.017-0.008-0.141-0.059-0.309-0.059z"></path>
</svg>
