<!-- Generated by IcoMoon.io -->
<svg version="1.1" xmlns="http://www.w3.org/2000/svg" width="24" height="24" viewBox="0 0 24 24">
<title>chart</title>
<path d="M6.377 7.5h-5.251c-0.414 0-0.75 0.336-0.75 0.75v15c0 0.414 0.336 0.75 0.75 0.75h5.251c0.414 0 0.75-0.336 0.75-0.75v-15c0-0.414-0.336-0.75-0.75-0.75zM5.627 22.5h-3.752v-13.5h3.752v13.5zM14.619 11.959h-5.252c-0.414 0-0.75 0.336-0.75 0.75v10.541c0 0.414 0.336 0.75 0.75 0.75h5.252c0.414 0 0.75-0.336 0.75-0.75v-10.541c0-0.415-0.335-0.75-0.75-0.75zM13.869 22.5h-3.752v-9.041h3.752v9.041zM22.875 0h-5.244c-0.414 0-0.75 0.336-0.75 0.75v22.5c0 0.414 0.336 0.75 0.75 0.75h5.244c0.414 0 0.75-0.336 0.75-0.75v-22.5c0-0.414-0.336-0.75-0.75-0.75zM22.125 22.5h-3.744v-21h3.744v21z"></path>
</svg>
