<!-- Generated by IcoMoon.io -->
<svg version="1.1" xmlns="http://www.w3.org/2000/svg" width="24" height="24" viewBox="0 0 24 24">
<title>chemistry</title>
<path d="M18.992 22.748l-3.993-4.725v-8.283h0.499c0.414 0 0.75-0.336 0.75-0.75s-0.336-0.75-0.75-0.75h-1.249c-0.414 0-0.75 0.336-0.75 0.75v9.321c0 0.186 0.069 0.365 0.193 0.502l3.055 3.687h-9.496l3.055-3.687c0.124-0.138 0.193-0.316 0.193-0.502v-9.321c0-0.414-0.336-0.75-0.75-0.75h-1.249c-0.414 0-0.75 0.336-0.75 0.75s0.336 0.75 0.75 0.75h0.499v8.283l-3.993 4.725c-0.198 0.22-0.249 0.536-0.129 0.807s0.389 0.445 0.685 0.445h12.871c0.297 0 0.565-0.174 0.685-0.445s0.070-0.587-0.129-0.807zM11.25 7.494c0.826 0 1.496-0.67 1.496-1.496s-0.67-1.495-1.496-1.495c-0.827 0-1.496 0.67-1.496 1.495s0.669 1.496 1.496 1.496zM16.135 5.268c1.461 0 2.646-1.179 2.646-2.634s-1.184-2.634-2.646-2.634c-1.461 0-2.646 1.179-2.646 2.634s1.185 2.634 2.646 2.634zM16.123 1.495c0.625 0 1.133 0.506 1.133 1.128s-0.508 1.128-1.133 1.128-1.133-0.506-1.133-1.128c0-0.622 0.508-1.128 1.133-1.128z"></path>
</svg>
