<!-- Generated by IcoMoon.io -->
<svg version="1.1" xmlns="http://www.w3.org/2000/svg" width="24" height="24" viewBox="0 0 24 24">
<title>clock</title>
<path d="M12 0c-6.627 0-12 5.373-12 12s5.373 12 12 12c6.628 0 12-5.372 12-12s-5.372-12-12-12zM12 22.524c-5.79 0-10.5-4.734-10.5-10.524s4.71-10.5 10.5-10.5 10.5 4.71 10.5 10.5-4.71 10.524-10.5 10.524zM12.75 11.695v-7.195c0-0.414-0.336-0.75-0.75-0.75s-0.75 0.336-0.75 0.75v7.5c0 0.212 0.089 0.403 0.231 0.539 0.012 0.015 0.022 0.030 0.036 0.044l3.712 3.712c0.293 0.293 0.768 0.293 1.061 0s0.293-0.768 0-1.061z"></path>
</svg>
