<!-- Generated by IcoMoon.io -->
<svg version="1.1" xmlns="http://www.w3.org/2000/svg" width="24" height="24" viewBox="0 0 24 24">
<title>close</title>
<path d="M12 0c-6.627 0-12 5.373-12 12s5.373 12 12 12c6.628 0 12-5.372 12-12s-5.372-12-12-12zM12 22.524c-5.79 0-10.5-4.734-10.5-10.524s4.71-10.5 10.5-10.5 10.5 4.71 10.5 10.5-4.71 10.524-10.5 10.524zM16.242 7.758c-0.293-0.293-0.768-0.293-1.061 0l-3.182 3.182-3.182-3.182c-0.293-0.293-0.768-0.293-1.061 0s-0.293 0.768 0 1.060l3.182 3.182-3.182 3.182c-0.293 0.293-0.293 0.768 0 1.061s0.768 0.293 1.061 0l3.182-3.182 3.182 3.182c0.293 0.293 0.768 0.293 1.061 0s0.293-0.768 0-1.061l-3.182-3.182 3.182-3.182c0.293-0.293 0.293-0.768 0-1.060z"></path>
</svg>
