<!-- Generated by IcoMoon.io -->
<svg version="1.1" xmlns="http://www.w3.org/2000/svg" width="24" height="24" viewBox="0 0 24 24">
<title>cloud-upload</title>
<path d="M17.892 6.090c-1.046-2.777-3.296-4.536-6.694-4.536-4.324 0-7.349 3.21-7.609 7.399-2.085 0.667-3.589 2.793-3.589 5.202 0 2.949 2.318 5.439 5.061 5.439h2.168c0.414 0 0.75-0.336 0.75-0.75s-0.336-0.75-0.75-0.75h-2.168c-1.93 0-3.584-1.803-3.584-3.939 0-1.887 1.323-3.589 2.982-3.874l0.681-0.117-0.060-0.688-0.006-0.009c0-3.655 2.405-6.412 6.124-6.412 2.98 0 4.655 1.468 5.429 3.973l0.161 0.517 0.541 0.012c2.788 0.059 5.232 2.32 5.232 5.13 0 2.557-1.695 5.407-4.261 5.407h-1.715c-0.414 0-0.75 0.336-0.75 0.75s0.336 0.75 0.75 0.75l1.709-0.002c3.752-0.099 5.706-3.683 5.706-6.906 0-3.464-2.714-6.231-6.108-6.596zM12.568 12.069c-0.004-0.005-0.006-0.008-0.008-0.012l-0.19-0.198c-0.104-0.11-0.242-0.164-0.381-0.164-0.138-0.001-0.276 0.054-0.382 0.164l-0.19 0.198c-0.004 0.004-0.005 0.008-0.008 0.012l-2.708 2.995c-0.21 0.219-0.21 0.574 0 0.793l0.189 0.128c0.21 0.219 0.55 0.148 0.759-0.071l1.597-1.781v7.561c0 0.414 0.336 0.75 0.75 0.75s0.75-0.336 0.75-0.75v-7.554l1.65 1.82c0.21 0.219 0.549 0.29 0.758 0.071l0.189-0.128c0.21-0.22 0.21-0.574 0-0.793z"></path>
</svg>
