<!-- Generated by IcoMoon.io -->
<svg version="1.1" xmlns="http://www.w3.org/2000/svg" width="24" height="24" viewBox="0 0 24 24">
<title>cloud-download</title>
<path d="M17.891 6.091c-1.046-2.777-3.296-4.536-6.693-4.536-4.323 0-7.348 3.21-7.608 7.399-2.085 0.667-3.59 2.793-3.59 5.202 0 2.948 2.318 5.439 5.061 5.439h0.667c0.414 0 0.75-0.336 0.75-0.75s-0.336-0.75-0.75-0.75h-0.667c-1.93 0-3.584-1.803-3.584-3.939 0-1.887 1.323-3.589 2.982-3.874l0.681-0.117-0.061-0.688-0.006-0.009c0-3.655 2.406-6.412 6.124-6.412 2.98 0 4.655 1.468 5.429 3.973l0.16 0.517 0.541 0.012c2.787 0.059 5.231 2.32 5.231 5.13 0 2.557-1.695 5.407-4.261 5.407h-0.213c-0.414 0-0.75 0.336-0.75 0.75s0.336 0.75 0.75 0.75v-0.002c3.752-0.099 5.915-3.683 5.915-6.905-0.001-3.464-2.715-6.231-6.109-6.596zM15.155 18.178c-0.21-0.219-0.549-0.219-0.758-0l-1.65 1.821v-7.554c0-0.414-0.336-0.75-0.75-0.75s-0.75 0.336-0.75 0.75v7.56l-1.597-1.781c-0.21-0.219-0.55-0.266-0.759-0.047l-0.189 0.104c-0.21 0.22-0.21 0.574 0 0.793l2.708 2.995c0.004 0.004 0.005 0.009 0.008 0.012l0.19 0.198c0.105 0.11 0.243 0.164 0.382 0.164 0.138 0.001 0.276-0.054 0.38-0.164l0.19-0.198c0.004-0.004 0.006-0.008 0.009-0.012l2.777-3.042c0.21-0.219 0.21-0.479 0-0.699z"></path>
</svg>
