<!-- Generated by IcoMoon.io -->
<svg version="1.1" xmlns="http://www.w3.org/2000/svg" width="24" height="24" viewBox="0 0 24 24">
<title>compass</title>
<path d="M17.184 6.569l-7.339 3.156c-0.133 0.068-0.24 0.175-0.308 0.308l-3.362 6.779c-0.138 0.27-0.088 0.599 0.125 0.815 0.136 0.138 0.319 0.212 0.505 0.212 0.104 0 0.21-0.023 0.307-0.070l7.166-2.976c0.131-0.063 0.24-0.165 0.31-0.293l3.536-6.959c0.151-0.272 0.106-0.61-0.109-0.834s-0.553-0.278-0.829-0.138zM8.387 15.582l2.039-4.164 2.060 2.578zM13.704 13.116l-2.081-2.605 4.143-1.635zM12 0c-6.627 0-12 5.373-12 12s5.373 12 12 12c6.628 0 12-5.372 12-12s-5.372-12-12-12zM12 22.524c-5.79 0-10.5-4.734-10.5-10.524s4.71-10.5 10.5-10.5 10.5 4.71 10.5 10.5-4.71 10.524-10.5 10.524z"></path>
</svg>
