<!-- Generated by IcoMoon.io -->
<svg version="1.1" xmlns="http://www.w3.org/2000/svg" width="24" height="24" viewBox="0 0 24 24">
<title>control-rewind</title>
<path d="M13.457 4.608l-11.891 7.392 11.891 7.392v-5.812l9.037 5.812v-14.783l-9.037 5.813v-5.813zM13.395 3.102c0.252 0 0.535 0.063 0.763 0.19 0.478 0.265 0.806 0.77 0.806 1.316v3.103l7.018-4.382c0.243-0.151 0.503-0.227 0.779-0.227 0.252 0 0.37 0.063 0.598 0.19 0.478 0.265 0.641 0.77 0.641 1.316v14.783c0 0.547-0.171 1.051-0.649 1.316-0.228 0.127-0.417 0.19-0.669 0.19-0.276 0-0.489-0.076-0.732-0.227l-6.987-4.381v3.103c0 0.547-0.328 1.051-0.806 1.316-0.228 0.127-0.495 0.19-0.747 0.19-0.276 0-0.56-0.076-0.803-0.227l-11.895-7.392c-0.442-0.274-0.712-0.758-0.712-1.279s0.268-1.004 0.71-1.279l11.89-7.392c0.242-0.151 0.518-0.227 0.794-0.227z"></path>
</svg>
