<!-- Generated by IcoMoon.io -->
<svg version="1.1" xmlns="http://www.w3.org/2000/svg" width="24" height="24" viewBox="0 0 24 24">
<title>control-end</title>
<path d="M22.123 0c-0.414 0-0.75 0.336-0.75 0.75v11.016c-0.067-0.426-0.315-0.808-0.688-1.040l-17.243-10.467c-0.242-0.15-0.517-0.226-0.792-0.226-0.251 0-0.502 0.063-0.729 0.189-0.476 0.264-0.771 0.766-0.771 1.311l-0.024 20.935c0 0.545 0.295 1.047 0.771 1.311 0.227 0.126 0.477 0.189 0.729 0.189 0.274 0 0.55-0.075 0.792-0.226l17.267-10.467c0.373-0.231 0.621-0.613 0.688-1.040v11.016c0 0.414 0.336 0.75 0.75 0.75s0.75-0.336 0.75-0.75v-22.5c0-0.414-0.336-0.75-0.75-0.75zM2.627 22.467l0.023-20.935 17.244 10.467z"></path>
</svg>
