<!-- Generated by IcoMoon.io -->
<svg version="1.1" xmlns="http://www.w3.org/2000/svg" width="24" height="24" viewBox="0 0 24 24">
<title>control-start</title>
<path d="M22.85 1.533c0-0.545-0.295-1.047-0.771-1.311-0.227-0.126-0.477-0.189-0.729-0.189-0.274 0-0.55 0.076-0.792 0.226l-17.244 10.467c-0.374 0.232-0.621 0.614-0.689 1.041v-11.016c0-0.414-0.336-0.75-0.75-0.75s-0.75 0.336-0.75 0.75v22.5c0 0.414 0.336 0.75 0.75 0.75s0.75-0.336 0.75-0.75v-11.017c0.067 0.427 0.315 0.809 0.688 1.040l17.267 10.468c0.242 0.151 0.517 0.227 0.792 0.227 0.251 0 0.502-0.063 0.729-0.189 0.476-0.264 0.771-0.766 0.771-1.311zM4.106 12l17.244-10.467 0.024 20.935z"></path>
</svg>
