<!-- Generated by IcoMoon.io -->
<svg version="1.1" xmlns="http://www.w3.org/2000/svg" width="24" height="24" viewBox="0 0 24 24">
<title>control-pause</title>
<path d="M9.756 0h-5.255c-0.414 0-0.75 0.336-0.75 0.75v22.5c0 0.414 0.336 0.75 0.75 0.75h5.255c0.414 0 0.75-0.336 0.75-0.75v-22.5c0-0.414-0.336-0.75-0.75-0.75zM9.006 22.5h-3.755v-21h3.755v21zM19.498 0h-5.228c-0.414 0-0.75 0.336-0.75 0.75v22.5c0 0.414 0.336 0.75 0.75 0.75h5.228c0.414 0 0.75-0.336 0.75-0.75v-22.5c0-0.414-0.335-0.75-0.75-0.75zM18.748 22.5h-3.728v-21h3.728v21z"></path>
</svg>
