<!-- Generated by IcoMoon.io -->
<svg version="1.1" xmlns="http://www.w3.org/2000/svg" width="24" height="24" viewBox="0 0 24 24">
<title>control-play</title>
<path d="M3.389 1.533l17.244 10.467-17.267 10.468zM3.389 0.033c-0.251 0-0.502 0.063-0.729 0.189-0.476 0.264-0.771 0.766-0.771 1.311l-0.023 20.935c0 0.545 0.295 1.047 0.771 1.311 0.227 0.126 0.477 0.189 0.729 0.189 0.274 0 0.55-0.075 0.792-0.226l17.267-10.468c0.441-0.273 0.709-0.755 0.709-1.274s-0.268-1-0.709-1.274l-17.244-10.467c-0.242-0.15-0.517-0.226-0.792-0.226v0z"></path>
</svg>
