<!-- Generated by IcoMoon.io -->
<svg version="1.1" xmlns="http://www.w3.org/2000/svg" width="24" height="24" viewBox="0 0 24 24">
<title>credit-card</title>
<path d="M21.751 4.127h-19.501c-1.242 0-2.249 1.007-2.249 2.249v11.247c0 1.242 1.007 2.249 2.249 2.249h19.501c1.242 0 2.249-1.007 2.249-2.249v-11.247c0-1.242-1.007-2.249-2.249-2.249zM2.249 5.627h19.501c0.414 0 0.75 0.336 0.75 0.75v1.5h-21.001v-1.5c0-0.414 0.336-0.75 0.75-0.75zM21.751 18.373h-19.501c-0.414 0-0.75-0.336-0.75-0.75v-6.748h21.001v6.748c0 0.414-0.336 0.75-0.75 0.75z"></path>
</svg>
