<!-- Generated by IcoMoon.io -->
<svg version="1.1" xmlns="http://www.w3.org/2000/svg" width="24" height="24" viewBox="0 0 24 24">
<title>crop</title>
<path d="M23.25 18.75l-3 0v-13.92l2.8-2.796c0.293-0.293 0.293-0.768 0-1.061s-0.768-0.293-1.061 0l-2.78 2.776h-13.959v-3c0-0.414-0.336-0.75-0.75-0.75s-0.75 0.336-0.75 0.75v3h-3c-0.414 0-0.75 0.336-0.75 0.75s0.336 0.75 0.75 0.75h3v14.25c0 0.069 0.022 0.131 0.039 0.194 0.008 0.029 0.006 0.058 0.017 0.085 0.075 0.189 0.225 0.338 0.414 0.414 0.032 0.013 0.067 0.012 0.101 0.020 0.059 0.015 0.116 0.036 0.179 0.036h14.25v3c0 0.414 0.336 0.75 0.75 0.75s0.75-0.336 0.75-0.75v-3h3c0.414 0 0.75-0.336 0.75-0.75s-0.336-0.75-0.75-0.75zM17.707 5.25l-12.457 12.44v-12.44h12.457zM6.311 18.75l12.439-12.421v12.421z"></path>
</svg>
