<!-- Generated by IcoMoon.io -->
<svg version="1.1" xmlns="http://www.w3.org/2000/svg" width="24" height="24" viewBox="0 0 24 24">
<title>cup</title>
<path d="M19.509 9.746c-0.195 0-0.825-0.004-1.506-0.009l0.003-1.499c0-0.828-0.671-1.499-1.499-1.499l-15.005-0.004c-0.828 0-1.499 0.671-1.499 1.499v11.267c0 2.484 2.014 4.498 4.498 4.498h9.011c2.484 0 4.475-2.014 4.475-4.498l0.002-0.77c0.68 0.005 1.373 0.009 1.522 0.009 2.478 0 4.488-1.992 4.488-4.476s-2.010-4.52-4.488-4.52zM16.487 19.502c0 1.654-1.321 2.999-2.975 2.999h-9.011c-1.654 0-2.999-1.345-2.999-2.999l-0.002-11.267 15.007 0.005zM19.509 17.264c-0.149 0-0.841-0.004-1.52-0.009l0.011-6.016c0.682 0.005 1.313 0.009 1.509 0.009 1.713 0 3.013 1.278 3.013 2.995s-1.3 3.022-3.013 3.022zM13.496 5.248c0.414 0 0.75-0.336 0.75-0.75v-3.748c0-0.414-0.336-0.75-0.75-0.75s-0.75 0.336-0.75 0.75v3.748c0 0.414 0.336 0.75 0.75 0.75zM4.5 5.248c0.414 0 0.75-0.336 0.75-0.75v-3.748c0-0.414-0.336-0.75-0.75-0.75s-0.75 0.336-0.75 0.75v3.748c0 0.414 0.336 0.75 0.75 0.75zM8.998 5.248c0.414 0 0.75-0.336 0.75-0.75v-3.748c0-0.414-0.336-0.75-0.75-0.75s-0.75 0.336-0.75 0.75v3.748c0 0.414 0.336 0.75 0.75 0.75z"></path>
</svg>
