<!-- Generated by IcoMoon.io -->
<svg version="1.1" xmlns="http://www.w3.org/2000/svg" width="24" height="24" viewBox="0 0 24 24">
<title>diamond</title>
<path d="M23.866 6.93l-3.275-6.263c-0.191-0.365-0.685-0.664-1.097-0.664h-7.539c-0.008-0-0.016-0.003-0.025-0.003-0.007 0-0.013 0.003-0.020 0.003h-7.404c-0.412 0-0.907 0.298-1.101 0.662l-3.267 6.142c-0.194 0.364-0.155 0.935 0.085 1.271l11.241 15.67c0.121 0.168 0.281 0.253 0.441 0.253 0.159 0 0.318-0.083 0.439-0.248l11.425-15.555c0.243-0.332 0.287-0.903 0.096-1.268zM22.078 6.746h-4.015l1.608-4.604zM13.483 1.502h4.823l-1.496 4.284zM15.659 6.746h-6.97l3.294-4.732zM7.361 6.031l-1.503-4.529h4.656zM15.952 8.245l-4.028 11.534-3.828-11.534h7.856zM10.242 19.472l-8.054-11.227h4.328zM17.539 8.245h4.336l-8.266 11.253zM4.424 1.94l1.595 4.806h-4.151z"></path>
</svg>
