<!-- Generated by IcoMoon.io -->
<svg version="1.1" xmlns="http://www.w3.org/2000/svg" width="24" height="24" viewBox="0 0 24 24">
<title>directions</title>
<path d="M23.812 4.377l-2.332-2.604c-0.142-0.16-0.346-0.251-0.56-0.251h-8.191v-0.794c0-0.387-0.335-0.702-0.748-0.702s-0.748 0.314-0.748 0.702v0.794h-5.983c-0.413 0-0.748 0.335-0.748 0.748v5.231c0 0.413 0.335 0.748 0.748 0.748h5.983v1.499h-8.152c-0.214 0-0.418 0.091-0.56 0.251l-2.331 2.65c-0.251 0.284-0.251 0.71 0 0.994l2.331 2.626c0.143 0.16 0.346 0.228 0.56 0.228h8.152v6.775c0 0.387 0.335 0.702 0.748 0.702s0.748-0.314 0.748-0.702v-6.775h5.998c0.413 0 0.748-0.335 0.748-0.748v-5.253c0-0.413-0.335-0.748-0.748-0.748h-5.998v-1.499h8.191c0.214 0 0.418-0.091 0.56-0.251l2.332-2.627c0.251-0.283 0.251-0.71 0-0.993v-0zM17.979 15.001h-14.563l-1.667-1.854 1.667-1.902h14.563v3.756zM20.584 6.753h-14.586v-3.734h14.586l1.667 1.856z"></path>
</svg>
