<!-- Generated by IcoMoon.io -->
<svg version="1.1" xmlns="http://www.w3.org/2000/svg" width="24" height="24" viewBox="0 0 24 24">
<title>direction</title>
<path d="M22.662 6.988l-4.198-4.5c-0.142-0.152-0.341-0.238-0.549-0.238h-6.261l-0.024-1.547c0-0.388-0.336-0.703-0.75-0.703s-0.703 0.315-0.703 0.703l-0.023 1.547h-8.268c-0.414 0-0.75 0.336-0.75 0.75v9c0 0.414 0.336 0.75 0.75 0.75h8.258v10.547c0 0.388 0.336 0.703 0.75 0.703s0.75-0.315 0.75-0.703v-10.547h6.27c0.208 0 0.407-0.086 0.549-0.238l4.198-4.5c0.269-0.288 0.269-0.735 0-1.024zM17.589 11.25h-14.952v-7.5h14.952l3.499 3.75z"></path>
</svg>
