<!-- Generated by IcoMoon.io -->
<svg version="1.1" xmlns="http://www.w3.org/2000/svg" width="24" height="24" viewBox="0 0 24 24">
<title>disc</title>
<path d="M12 0c-6.628 0-12 5.372-12 12s5.372 12 12 12 12-5.372 12-12-5.372-12-12-12zM22.5 12c0 1.554-0.342 3.030-0.951 4.358l-6.638-3.552c0.071-0.257 0.112-0.527 0.112-0.806 0-1.67-1.353-3.024-3.024-3.024-0.343 0-0.671 0.060-0.978 0.165l-3.975-6.396c1.476-0.793 3.163-1.245 4.953-1.245 5.79 0 10.5 4.71 10.5 10.5zM12 10.477c0.84 0 1.524 0.683 1.524 1.524s-0.684 1.523-1.524 1.523-1.523-0.684-1.523-1.524 0.683-1.523 1.523-1.523zM5.779 3.548l3.989 6.418c-0.018 0.019-0.036 0.039-0.054 0.059l-6.637-3.551c0.708-1.138 1.626-2.132 2.702-2.926zM1.5 12c0-1.492 0.315-2.912 0.879-4.199l6.665 3.566c-0.044 0.204-0.068 0.415-0.068 0.633 0 1.67 1.353 3.024 3.024 3.024 0.291 0 0.571-0.043 0.837-0.12l3.989 6.417c-1.446 0.751-3.086 1.179-4.825 1.179-5.79 0-10.5-4.71-10.5-10.5zM18.104 20.535l-3.973-6.391c0.012-0.012 0.023-0.024 0.034-0.036l6.663 3.566c-0.721 1.116-1.646 2.088-2.724 2.861z"></path>
</svg>
