<!-- Generated by IcoMoon.io -->
<svg version="1.1" xmlns="http://www.w3.org/2000/svg" width="24" height="24" viewBox="0 0 24 24">
<title>dislike</title>
<path d="M9.74 0.023c6.807 0 6.86 0.282 7.703 0.917 0.447 0.336 1.291 0.57 4.373 0.77 0.224 0.015 0.436 0.1 0.579 0.273 0.066 0.080 1.605 2.326 1.605 5.922 0 3.544-1.102 5.16-1.149 5.236-0.137 0.219-0.377 0.352-0.635 0.352-2.53 0-6.038 3.23-8.397 8.868-0.408 0.975-0.492 1.616-1.99 1.616-0.852 0-1.807-0.61-2.279-1.393-0.967-1.599-0.476-5.033-0.021-6.869-1.545 0.012-4.341 0.034-5.671 0.034-1.851 0-3.075-1.104-3.113-2.717-0.012-0.533 0.058-1.213 0.212-1.564-0.407-0.406-0.933-1.019-0.956-1.808-0.029-1.018 0.638-1.794 1.064-2.239-0.097-0.296-0.293-0.689-0.274-1.159 0.047-1.155 0.938-1.899 1.494-2.288-0.046-0.315-0.082-0.911 0.019-1.372 0.401-1.84 3.099-2.58 7.436-2.58zM21.418 3.229c-2.684-0.222-4.119-0.523-4.876-1.093-0.586-0.441-0.495-0.616-6.802-0.616-1.923 0-5.685 0.080-5.973 1.4-0.115 0.528 0.442 1.047 0.444 1.051 0.152 0.376-0.018 0.816-0.388 0.978-0.006 0.003-1.501 0.539-1.535 1.375-0.022 0.534 0.345 0.855 0.353 0.868 0.218 0.339 0.138 0.803-0.193 1.034-0.004 0.003-0.973 0.59-0.949 1.391 0.018 0.635 0.856 1.083 0.882 1.098 0.187 0.107 0.324 0.292 0.366 0.505 0.042 0.211-0.005 0.434-0.136 0.605 0 0-0.381 0.606-0.367 1.173 0.028 1.216 1.335 1.254 1.615 1.254 1.889 0 6.741-0.020 6.741-0.020 0.262-0.001 0.488 0.123 0.629 0.332s0.151 0.47 0.069 0.707c-0.731 2.107-1.14 5.413-0.461 6.543 0.2 0.333 0.246 0.665 0.995 0.665 0.104 0 0.351-0.082 0.609-0.696 2.504-5.987 6.242-9.451 9.304-9.763 0.264-0.602 0.761-1.85 0.761-4.114-0.001-2.311-0.733-4.098-1.085-4.677z"></path>
</svg>
