<!-- Generated by IcoMoon.io -->
<svg version="1.1" xmlns="http://www.w3.org/2000/svg" width="24" height="24" viewBox="0 0 24 24">
<title>drawar</title>
<path d="M23.974 11.953l-2.754-9.54c-0.090-0.325-0.386-0.55-0.723-0.55h-17.232c-0.34 0-0.637 0.228-0.725 0.557l-2.517 9.054c-0.046 0.176-0.024 0.352 0.047 0.505-0.040 0.136-0.069 0.277-0.069 0.426v8.233c0 0.828 0.672 1.5 1.5 1.5h20.997c0.828 0 1.5-0.672 1.5-1.5v-8.233c0-0.040-0.009-0.078-0.012-0.117 0.020-0.108 0.019-0.221-0.012-0.334zM3.843 3.363l16.084-0 2.182 7.542h-6.991c-0.034 1.8-1.31 3.039-3.118 3.039s-3.061-1.239-3.095-3.039h-7.165zM22.499 20.637h-20.997v-8.233h6.166c0.655 1.885 2.244 3.039 4.332 3.039s3.701-1.154 4.356-3.039h6.143v8.233z"></path>
</svg>
