<!-- Generated by IcoMoon.io -->
<svg version="1.1" xmlns="http://www.w3.org/2000/svg" width="24" height="24" viewBox="0 0 24 24">
<title>drop</title>
<path d="M11.962 24c-4.542 0-8.238-3.645-8.238-8.125 0-5.232 7.322-15.152 7.634-15.572 0.141-0.189 0.362-0.302 0.599-0.303 0.263-0.002 0.46 0.108 0.603 0.295 0.315 0.412 7.715 10.156 7.715 15.58 0 4.48-3.729 8.125-8.313 8.125zM11.971 2.030c-1.748 2.483-6.742 9.917-6.742 13.845 0 3.651 3.021 6.621 6.734 6.621 3.754 0 6.809-2.97 6.809-6.621 0-4.073-5.032-11.397-6.801-13.845z"></path>
</svg>
