<!-- Generated by IcoMoon.io -->
<svg version="1.1" xmlns="http://www.w3.org/2000/svg" width="24" height="24" viewBox="0 0 24 24">
<title>earphones-alt</title>
<path d="M23.98 13.417c0.002-0.493-0.075-2.352-0.134-2.884-0.682-6.103-5.635-10.533-11.778-10.533-6.398 0-11.582 4.93-11.934 11.467-0.008 0.143-0.060 1.155-0.064 1.758l-0.002 0.335c-0.031 0.139-0.049 0.282-0.049 0.429v5.024c0 1.097 0.892 1.99 1.99 1.99h2.020c1.097 0 1.99-0.892 1.99-1.99v-5.024c0-1.097-0.893-1.99-1.99-1.99h-2.020c-0.138 0-0.272 0.014-0.402 0.041 0.011-0.243 0.021-0.435 0.024-0.493 0.308-5.73 4.848-10.049 10.437-10.049 5.367 0 9.693 3.87 10.289 9.202 0.025 0.222 0.057 0.788 0.083 1.356-0.145-0.034-0.294-0.056-0.449-0.056h-1.996c-1.097 0-1.99 0.892-1.99 1.99v5.001c0 0.758 0.431 1.41 1.055 1.746l-4.809 1.888v-0.122c0-0.413-0.336-0.749-0.749-0.749h-2.247c-0.413 0-0.749 0.336-0.749 0.749v0.749c0 0.413 0.336 0.749 0.749 0.749h2.247c0.006 0 0.012-0.002 0.018-0.002l1.343-0.005 7.714-3.028c0.101-0.042 0.187-0.104 0.257-0.179 0.675-0.319 1.147-1 1.147-1.795v-5.001c0-0.122-0.015-0.241-0.036-0.357 0.021-0.069 0.035-0.14 0.036-0.216zM2.009 13.497h2.020c0.272 0 0.492 0.22 0.492 0.492v5.024c0 0.272-0.221 0.492-0.492 0.492h-2.020c-0.272 0-0.492-0.22-0.492-0.492v-5.024c0-0.272 0.221-0.492 0.492-0.492zM19.502 13.989c0-0.272 0.22-0.492 0.492-0.492h1.996c0.272 0 0.492 0.22 0.492 0.492v5.001c0 0.272-0.221 0.492-0.492 0.492h-1.996c-0.272 0-0.492-0.22-0.492-0.492v-5.001z"></path>
</svg>
