<!-- Generated by IcoMoon.io -->
<svg version="1.1" xmlns="http://www.w3.org/2000/svg" width="24" height="24" viewBox="0 0 24 24">
<title>earphones</title>
<path d="M24 14.17c0.002-0.494-0.075-2.356-0.135-2.889-0.683-6.113-5.644-10.55-11.797-10.55-6.408 0-11.601 4.938-11.953 11.486-0.008 0.143-0.060 1.157-0.064 1.76l-0.002 0.336c-0.031 0.139-0.050 0.282-0.050 0.43v6.533c0 1.099 0.894 1.993 1.993 1.993h2.023c1.099 0 1.993-0.894 1.993-1.993v-6.533c0-1.099-0.895-1.993-1.993-1.993h-2.024c-0.138 0-0.273 0.014-0.403 0.041 0.011-0.243 0.021-0.436 0.024-0.494 0.309-5.739 4.856-10.066 10.455-10.066 5.375 0 9.709 3.876 10.306 9.217 0.026 0.223 0.058 0.789 0.084 1.358-0.146-0.034-0.296-0.056-0.451-0.056h-1.999c-1.099 0-1.993 0.894-1.993 1.993v6.51c0 1.099 0.894 1.993 1.993 1.993h1.999c1.099 0 1.993-0.894 1.993-1.993v-6.51c0-0.122-0.015-0.241-0.037-0.357 0.022-0.069 0.036-0.141 0.037-0.216zM1.992 14.251h2.023c0.272 0 0.493 0.221 0.493 0.493v6.533c0 0.272-0.221 0.493-0.493 0.493h-2.023c-0.272 0-0.493-0.221-0.493-0.493v-6.533c0.001-0.272 0.221-0.493 0.493-0.493zM22.499 21.253c0 0.272-0.221 0.493-0.493 0.493h-1.999c-0.272 0-0.493-0.221-0.493-0.493v-6.509c0-0.272 0.221-0.493 0.493-0.493h1.999c0.272 0 0.493 0.221 0.493 0.493v6.509z"></path>
</svg>
