<!-- Generated by IcoMoon.io -->
<svg version="1.1" xmlns="http://www.w3.org/2000/svg" width="24" height="24" viewBox="0 0 24 24">
<title>emotsmile</title>
<path d="M18.311 14.23c-0.381-0.171-0.822 0.001-0.99 0.38-0.015 0.033-1.55 3.38-5.377 3.425-0.024 0-0.047 0.001-0.071 0.001-3.601 0-5.155-3.29-5.219-3.431-0.171-0.375-0.614-0.542-0.992-0.372s-0.545 0.614-0.374 0.992c0.080 0.177 2.001 4.311 6.582 4.311 0.030 0 0.061-0.001 0.091-0.001 4.778-0.056 6.652-4.14 6.729-4.314 0.17-0.379-0.001-0.822-0.379-0.99zM12 0c-6.628 0-12 5.372-12 12s5.372 12 12 12 12-5.372 12-12-5.372-12-12-12zM12 22.5c-5.79 0-10.5-4.71-10.5-10.5s4.71-10.5 10.5-10.5 10.5 4.71 10.5 10.5-4.71 10.5-10.5 10.5zM8.238 11.246c0.826 0 1.496-0.67 1.496-1.496s-0.67-1.496-1.496-1.496c-0.827 0-1.496 0.67-1.496 1.496s0.669 1.496 1.496 1.496zM15.738 11.246c0.826 0 1.496-0.67 1.496-1.496s-0.67-1.496-1.496-1.496c-0.827 0-1.496 0.67-1.496 1.496s0.669 1.496 1.496 1.496z"></path>
</svg>
