<!-- Generated by IcoMoon.io -->
<svg version="1.1" xmlns="http://www.w3.org/2000/svg" width="24" height="24" viewBox="0 0 24 24">
<title>energy</title>
<path d="M13.956 1.502v0zM13.956 1.502l-1.695 8.904 6.14 0.021-8.357 12.071 1.695-9.796-6.139-0.021zM13.957 0c-0.041 0-0.081 0.001-0.121 0.004-0.265 0.021-0.441 0.11-0.649 0.25-0.116 0.077-0.222 0.171-0.314 0.28-0.027 0.032-0.053 0.066-0.077 0.101l-8.417 11.139c-0.332 0.456-0.381 1.057-0.126 1.559s0.771 0.821 1.336 0.825l4.336 0.032-1.363 8.032c-0.13 0.69 0.238 1.378 0.886 1.655 0.193 0.083 0.396 0.122 0.596 0.122 0.472 0 0.86-0.221 1.151-0.62l8.427-12.071c0.332-0.456 0.381-1.058 0.126-1.559s-0.771-0.821-1.336-0.825l-4.336-0.008 1.349-7.062c0.028-0.114 0.043-0.232 0.043-0.353 0-0.813-0.647-1.475-1.457-1.501-0.018-0.001-0.036-0.001-0.053-0.001v0z"></path>
</svg>
