<!-- Generated by IcoMoon.io -->
<svg version="1.1" xmlns="http://www.w3.org/2000/svg" width="24" height="24" viewBox="0 0 24 24">
<title>envelope-open</title>
<path d="M23.981 11.093c-0.032-0.265-0.132-0.509-0.283-0.714h0.004l-0.021-0.021c-0.077-0.101-0.167-0.19-0.267-0.27l-9.777-9.452c-0.849-0.849-2.331-0.85-3.181 0l-9.776 9.378c-0.211 0.197-0.677 0.728-0.677 1.25v11.235c0 0.824 0.675 1.5 1.5 1.5h20.994c0.824 0 1.5-0.675 1.5-1.5v-11.206c0.005-0.067-0.002-0.135-0.015-0.202zM6.326 17.022l-4.823 4.442v-8.697zM7.867 17.64c0.054-0.036 0.105-0.076 0.149-0.127 0.009-0.010 0.015-0.021 0.022-0.032l3.308-3.046c0.17-0.137 0.371-0.209 0.583-0.209 0.215 0 0.43 0.075 0.575 0.187l8.988 8.086h-18.902zM17.752 17.121l4.744-4.21v8.478zM2.436 10.379l9.079-8.682c0.142-0.141 0.33-0.22 0.53-0.22s0.389 0.078 0.531 0.22l8.467 8.068h-0.023l1.286 1.307-5.677 5.038-3.169-2.851c-0.883-0.692-2.15-0.722-3.085 0.032l-2.941 2.708-5.665-4.999 0.632-0.623h0.034z"></path>
</svg>
