<!-- Generated by IcoMoon.io -->
<svg version="1.1" xmlns="http://www.w3.org/2000/svg" width="24" height="24" viewBox="0 0 24 24">
<title>envolope</title>
<path d="M23.987 5.438c0.023-0.144 0.004-0.292-0.058-0.428-0.189-0.831-0.789-1.259-1.804-1.259h-19.5c-0.893 0-1.854 0.328-2.327 0.972-0.041 0.031-0.080 0.066-0.115 0.107-0.151 0.174-0.204 0.399-0.17 0.61-0.007 0.061-0.013 0.122-0.013 0.186v12c0 1.243 1.383 2.625 2.625 2.625h19.5c1.243 0 1.875-1.382 1.875-2.625v-12c0-0.066-0.009-0.125-0.013-0.188zM2.625 5.25l19.51-0-10.135 8.078-10.094-8.045c0.229-0.042 0.512-0.033 0.719-0.033zM22.125 18.75h-19.5c-0.414 0-1.125-0.711-1.125-1.125v-10.745l10.009 8.007c0.141 0.122 0.316 0.183 0.491 0.183s0.35-0.061 0.492-0.183l10.008-8.007v10.745c0 0.414 0.039 1.125-0.375 1.125z"></path>
</svg>
