<!-- Generated by IcoMoon.io -->
<svg version="1.1" xmlns="http://www.w3.org/2000/svg" width="24" height="24" viewBox="0 0 24 24">
<title>envolope-letter</title>
<path d="M23.982 11.093c-0.032-0.265-0.132-0.509-0.283-0.714h0.004l-0.021-0.021c-0.077-0.101-0.167-0.19-0.267-0.27l-3.917-3.946v-2.42c0-0.414-0.336-0.75-0.75-0.75h-2.374l-2.737-2.336c-0.849-0.849-2.332-0.85-3.181 0l-2.727 2.336h-2.477c-0.414 0-0.75 0.336-0.75 0.75v2.469l-3.822 3.822c-0.406 0.269-0.677 0.728-0.677 1.25v11.236c0 0.824 0.675 1.5 1.5 1.5h20.995c0.824 0 1.5-0.675 1.5-1.5v-11.206c0.005-0.067-0.001-0.135-0.015-0.202zM6.304 17.003l-4.802 4.454v-8.691zM7.749 17.706c0.099-0.042 0.19-0.106 0.267-0.193 0.040-0.045 0.072-0.095 0.099-0.147l3.231-2.998c0.17-0.137 0.371-0.209 0.583-0.209 0.215 0 0.43 0.075 0.575 0.187l8.994 8.153h-18.917zM17.773 17.102l4.724-4.192v8.474zM21.044 9.765h-0.023l1.286 1.307-2.81 2.494v-5.347zM11.515 1.697c0.142-0.141 0.33-0.22 0.53-0.22s0.389 0.078 0.531 0.22l1.514 1.276h-4.087zM17.998 4.473v10.424l-1.343 1.192-3.194-2.895c-0.883-0.692-2.15-0.722-3.086 0.032l-2.967 2.752-1.407-1.242v-10.262zM2.435 10.379l2.066-2.065v5.099l-2.733-2.411 0.632-0.623h0.034z"></path>
</svg>
