<!-- Generated by IcoMoon.io -->
<svg version="1.1" xmlns="http://www.w3.org/2000/svg" width="24" height="24" viewBox="0 0 24 24">
<title>equalizer</title>
<path d="M3.757 9.093v-8.335c0-0.414-0.336-0.749-0.749-0.749s-0.749 0.336-0.749 0.749v8.334c-1.296 0.334-2.258 1.509-2.258 2.908s0.962 2.574 2.258 2.908v8.334c0 0.414 0.336 0.749 0.749 0.749s0.749-0.336 0.749-0.749v-8.335c1.295-0.335 2.256-1.509 2.256-2.908s-0.961-2.573-2.256-2.907zM3.016 13.5c-0.003 0-0.006-0.001-0.009-0.001s-0.006 0.001-0.010 0.001c-0.823-0.005-1.492-0.676-1.492-1.5s0.669-1.495 1.492-1.5c0.003 0 0.006 0.001 0.009 0.001s0.006-0.001 0.009-0.001c0.823 0.005 1.491 0.676 1.491 1.5s-0.668 1.494-1.491 1.5zM12.751 13.59l-0-12.832c0-0.414-0.336-0.749-0.749-0.749s-0.749 0.336-0.749 0.749v12.831c-1.296 0.334-2.258 1.509-2.258 2.908s0.962 2.574 2.258 2.908v3.837c0 0.414 0.336 0.749 0.749 0.749s0.749-0.336 0.749-0.749v-3.838c1.294-0.335 2.255-1.509 2.255-2.908s-0.961-2.572-2.255-2.907zM12.010 17.997c-0.003 0-0.006-0.001-0.009-0.001s-0.006 0.001-0.010 0.001c-0.823-0.005-1.492-0.676-1.492-1.5s0.67-1.496 1.494-1.5c0.003 0 0.005 0.001 0.008 0.001s0.004-0.001 0.007-0.001c0.824 0.005 1.493 0.675 1.493 1.5s-0.668 1.494-1.491 1.5zM21.745 4.596l-0-3.838c0-0.414-0.336-0.749-0.749-0.749s-0.749 0.336-0.749 0.749v3.837c-1.296 0.334-2.258 1.509-2.258 2.908s0.962 2.574 2.258 2.908v12.831c0 0.414 0.335 0.749 0.749 0.749s0.749-0.336 0.749-0.749v-12.832c1.294-0.335 2.255-1.509 2.255-2.908s-0.961-2.572-2.255-2.907zM21.004 9.003c-0.003 0-0.006-0.001-0.008-0.001s-0.007 0.001-0.010 0.001c-0.823-0.005-1.492-0.675-1.492-1.5s0.669-1.495 1.492-1.5c0.003 0 0.007 0.001 0.010 0.001s0.006-0.001 0.008-0.001c0.823 0.006 1.491 0.676 1.491 1.5s-0.667 1.494-1.491 1.5z"></path>
</svg>
