<!-- Generated by IcoMoon.io -->
<svg version="1.1" xmlns="http://www.w3.org/2000/svg" width="24" height="24" viewBox="0 0 24 24">
<title>event</title>
<path d="M15.844 20.203c-0.375 0-0.656-0.305-0.656-0.68v-3.328c0-0.375 0.281-0.656 0.656-0.656h3.328c0.375 0 0.68 0.281 0.68 0.656v3.328c0 0.375-0.305 0.68-0.68 0.68h-3.328zM19.172 16.195h-3.328v3.328h3.328v-3.328zM22.5 2.25c0.82 0 1.5 0.68 1.5 1.5v18.75c0 0.82-0.68 1.5-1.5 1.5h-21c-0.82 0-1.5-0.68-1.5-1.5v-18.75c0-0.82 0.68-1.5 1.5-1.5h6v-1.5c0-0.422 0.328-0.75 0.75-0.75s0.75 0.328 0.75 0.75v1.5h6v-1.5c0-0.422 0.328-0.75 0.75-0.75s0.75 0.328 0.75 0.75v1.5h6zM1.5 22.5h21v-18.75h-6v0.75c0 0.422-0.328 0.75-0.75 0.75s-0.75-0.328-0.75-0.75v-0.75h-6v0.75c0 0.422-0.328 0.75-0.75 0.75s-0.75-0.328-0.75-0.75v-0.75h-6v18.75z"></path>
</svg>
