<!-- Generated by IcoMoon.io -->
<svg version="1.1" xmlns="http://www.w3.org/2000/svg" width="24" height="24" viewBox="0 0 24 24">
<title>eye</title>
<path d="M12.081 7.54c-2.481 0-4.493 2.012-4.493 4.493s2.012 4.493 4.493 4.493 4.493-2.012 4.493-4.493-2.012-4.493-4.493-4.493zM12.081 15.028c-1.652 0-3.030-1.376-3.030-3.028s1.344-2.995 2.995-2.995c1.652 0 2.995 1.344 2.995 2.995s-1.309 3.028-2.961 3.028zM23.974 11.826c-0.009-0.038-0.005-0.078-0.016-0.115-0.005-0.016-0.015-0.025-0.020-0.039-0.008-0.021-0.006-0.046-0.017-0.067-2.178-4.987-6.872-7.857-11.874-7.857s-9.79 2.865-11.969 7.852c-0.009 0.021-0.008 0.043-0.015 0.067-0.005 0.015-0.016 0.023-0.021 0.037-0.012 0.038-0.007 0.077-0.014 0.115-0.014 0.067-0.027 0.133-0.027 0.201s0.013 0.133 0.027 0.201c0.008 0.037 0.003 0.078 0.014 0.114 0.005 0.017 0.016 0.024 0.021 0.039 0.008 0.021 0.006 0.046 0.015 0.067 2.18 4.986 6.921 7.809 11.923 7.809s9.743-2.818 11.922-7.804c0.011-0.021 0.009-0.044 0.017-0.067 0.005-0.013 0.015-0.023 0.020-0.037 0.012-0.037 0.008-0.077 0.016-0.115 0.013-0.067 0.025-0.133 0.025-0.202 0-0.066-0.012-0.131-0.026-0.199zM12 18.754c-4.243 0-8.418-2.236-10.47-6.732 2.032-4.481 6.264-6.775 10.517-6.775 4.252 0 8.389 2.297 10.422 6.78-2.032 4.479-6.216 6.727-10.469 6.727z"></path>
</svg>
