<!-- Generated by IcoMoon.io -->
<svg version="1.1" xmlns="http://www.w3.org/2000/svg" width="24" height="24" viewBox="0 0 24 24">
<title>eyeglass</title>
<path d="M23.998 15.267c-0.023-0.323-1.239-7.463-1.429-8.606-0.018-0.11-0.033-0.226-0.049-0.349-0.147-1.149-0.421-3.287-3.867-3.287-0.413 0-0.748 0.335-0.748 0.748s0.335 0.748 0.748 0.748c2.13 0 2.242 0.874 2.384 1.982 0.018 0.142 0.036 0.277 0.057 0.404 0.087 0.527 0.484 2.621 0.826 4.698-0.878-0.669-1.97-1.071-3.158-1.071-1.908 0-3.607 1.027-4.54 2.556-0.449-0.17-1.211-0.382-2.229-0.382-1.004 0-1.741 0.214-2.198 0.399-0.908-1.538-2.578-2.574-4.494-2.574-1.245 0-2.401 0.438-3.315 1.165 0.347-2.103 0.757-4.254 0.846-4.792 0.021-0.126 0.039-0.262 0.057-0.404 0.142-1.107 0.254-1.981 2.384-1.981 0.413 0 0.748-0.335 0.748-0.748s-0.335-0.748-0.748-0.748c-3.446 0-3.72 2.138-3.867 3.287-0.016 0.123-0.031 0.24-0.049 0.349-0.191 1.143-1.332 8.235-1.355 8.559-0.005 0.072 0.003 0.141 0.018 0.209-0.007 0.108-0.017 0.215-0.017 0.325 0 2.883 2.415 5.22 5.298 5.22s5.22-2.337 5.22-5.22c0-0.436-0.059-0.857-0.16-1.262 0.307-0.123 0.861-0.288 1.631-0.288 0.752 0 1.32 0.15 1.643 0.265-0.108 0.412-0.171 0.841-0.171 1.285 0 2.883 2.415 5.22 5.298 5.22s5.22-2.337 5.22-5.22c0-0.078-0.008-0.154-0.012-0.232 0.023-0.082 0.036-0.167 0.029-0.256zM5.3 19.478c-2.061 0-3.802-1.706-3.802-3.724s1.741-3.724 3.802-3.724c2.054 0 3.724 1.67 3.724 3.724s-1.67 3.724-3.724 3.724zM18.761 19.478c-2.061 0-3.802-1.706-3.802-3.724s1.741-3.724 3.802-3.724c1.776 0 3.263 1.25 3.633 2.916 0.015 0.153 0.028 0.296 0.038 0.427 0.004 0.063 0.021 0.122 0.043 0.179 0.004 0.067 0.010 0.133 0.010 0.202 0 2.053-1.67 3.724-3.724 3.724z"></path>
</svg>
