<!-- Generated by IcoMoon.io -->
<svg version="1.1" xmlns="http://www.w3.org/2000/svg" width="24" height="24" viewBox="0 0 24 24">
<title>feed</title>
<path d="M2.338 7.718c-0.427 0-0.772 0.345-0.772 0.772s0.345 0.772 0.772 0.772c7.138 0 12.376 5.286 12.376 12.423 0 0.426 0.345 0.772 0.772 0.772s0.772-0.345 0.772-0.772c0-8.018-5.902-13.967-13.92-13.967zM2.345 0c-0.427 0-0.772 0.345-0.772 0.772s0.345 0.772 0.772 0.772c11.076 0 20.087 9.011 20.087 20.087 0 0.426 0.345 0.772 0.772 0.772s0.772-0.345 0.772-0.772c-0-11.927-9.704-21.631-21.631-21.631zM4.273 15.477c-2.343 0-4.249 1.911-4.249 4.261 0 2.349 1.906 4.262 4.249 4.262s4.25-1.913 4.25-4.262c0-2.35-1.907-4.261-4.25-4.261zM4.273 22.507c-1.522 0-2.76-1.243-2.76-2.77s1.238-2.769 2.76-2.769c1.522 0 2.761 1.242 2.761 2.769s-1.239 2.77-2.761 2.77z"></path>
</svg>
