<!-- Generated by IcoMoon.io -->
<svg version="1.1" xmlns="http://www.w3.org/2000/svg" width="24" height="24" viewBox="0 0 24 24">
<title>film</title>
<path d="M18.75 6.382h1.5c0.414 0 0.75-0.336 0.75-0.75v-0.75c0-0.414-0.336-0.75-0.75-0.75h-1.5c-0.414 0-0.75 0.336-0.75 0.75v0.75c0 0.414 0.336 0.75 0.75 0.75zM18.75 10.882h1.5c0.414 0 0.75-0.336 0.75-0.75v-0.75c0-0.414-0.336-0.75-0.75-0.75h-1.5c-0.414 0-0.75 0.336-0.75 0.75v0.75c0 0.414 0.336 0.75 0.75 0.75zM18.75 15.382h1.5c0.414 0 0.75-0.336 0.75-0.75v-0.75c0-0.414-0.336-0.75-0.75-0.75h-1.5c-0.414 0-0.75 0.336-0.75 0.75v0.75c0 0.414 0.336 0.75 0.75 0.75zM18.75 19.882h1.5c0.414 0 0.75-0.336 0.75-0.75v-0.75c0-0.414-0.336-0.75-0.75-0.75h-1.5c-0.414 0-0.75 0.336-0.75 0.75v0.75c0 0.414 0.336 0.75 0.75 0.75zM3.75 6.382h1.5c0.414 0 0.75-0.336 0.75-0.75v-0.75c0-0.414-0.336-0.75-0.75-0.75h-1.5c-0.414 0-0.75 0.336-0.75 0.75v0.75c0 0.414 0.336 0.75 0.75 0.75zM3.75 10.882h1.5c0.414 0 0.75-0.336 0.75-0.75v-0.75c0-0.414-0.336-0.75-0.75-0.75h-1.5c-0.414 0-0.75 0.336-0.75 0.75v0.75c0 0.414 0.336 0.75 0.75 0.75zM3.75 15.382h1.5c0.414 0 0.75-0.336 0.75-0.75v-0.75c0-0.414-0.336-0.75-0.75-0.75h-1.5c-0.414 0-0.75 0.336-0.75 0.75v0.75c0 0.414 0.336 0.75 0.75 0.75zM3.75 19.882h1.5c0.414 0 0.75-0.336 0.75-0.75v-0.75c0-0.414-0.336-0.75-0.75-0.75h-1.5c-0.414 0-0.75 0.336-0.75 0.75v0.75c0 0.414 0.336 0.75 0.75 0.75zM22.5 0.373h-21c-0.825 0-1.5 0.675-1.5 1.5v20.255c0 0.825 0.675 1.5 1.5 1.5h21c0.825 0 1.5-0.675 1.5-1.5v-20.255c0-0.825-0.675-1.5-1.5-1.5zM22.5 22.127h-21v-20.255h21v20.255z"></path>
</svg>
