<!-- Generated by IcoMoon.io -->
<svg version="1.1" xmlns="http://www.w3.org/2000/svg" width="24" height="24" viewBox="0 0 24 24">
<title>fire</title>
<path d="M11.916 24c-5.662 0-9.679-3.926-9.679-9.336 0-2.872 1.722-5.966 1.795-6.096 0.149-0.266 0.443-0.411 0.75-0.377 0.303 0.039 0.552 0.258 0.631 0.553 0.005 0.018 0.469 1.754 1.081 2.719 0.412 0.649 0.829 1.107 1.298 1.426-0.318-1.377-0.561-3.448-0.165-5.574 1.088-5.834 5.68-7.23 5.876-7.286 0.253-0.072 0.522-0.007 0.714 0.168s0.28 0.44 0.23 0.696c-0.008 0.041-0.766 4.126 0.843 7.606 0.146 0.316 0.35 0.683 0.569 1.051 0.062-0.505 0.159-1.041 0.308-1.562 0.59-2.065 2.117-2.77 2.181-2.798 0.255-0.116 0.552-0.078 0.772 0.095s0.325 0.453 0.274 0.728c-0.008 0.051-0.221 1.456 0.975 3.449 1.080 1.8 1.391 2.966 1.391 5.203 0 5.41-4.141 9.336-9.847 9.336zM4.576 10.96c-0.412 1.040-0.837 2.423-0.837 3.704 0 4.539 3.384 7.834 8.176 7.834 4.835 0 8.345-3.295 8.345-7.834 0-1.961-0.242-2.871-1.177-4.43-0.625-1.041-0.934-1.978-1.081-2.723-0.149 0.241-0.287 0.535-0.388 0.889-0.458 1.601-0.342 3.472-0.341 3.491 0.022 0.335-0.182 0.645-0.499 0.757s-0.67 0.001-0.864-0.274c-0.056-0.080-1.392-1.971-1.981-3.245-1.223-2.643-1.202-5.5-1.077-7.146-1.237 0.721-3.137 2.332-3.747 5.607-0.594 3.188 0.56 6.375 0.573 6.406 0.1 0.26 0.047 0.555-0.136 0.765-0.184 0.208-0.467 0.301-0.74 0.235-0.093-0.023-2.207-0.573-3.575-2.729-0.244-0.386-0.464-0.854-0.649-1.309z"></path>
</svg>
