<!-- Generated by IcoMoon.io -->
<svg version="1.1" xmlns="http://www.w3.org/2000/svg" width="24" height="24" viewBox="0 0 24 24">
<title>frame</title>
<path d="M5.25 2.625h-4.5c-0.414 0-0.75 0.336-0.75 0.75v4.5c0 0.414 0.336 0.75 0.75 0.75s0.75-0.336 0.75-0.75v-3.75h3.75c0.414 0 0.75-0.336 0.75-0.75s-0.336-0.75-0.75-0.75zM23.25 15.375c-0.414 0-0.75 0.336-0.75 0.75v3.75h-3.75c-0.414 0-0.75 0.336-0.75 0.75s0.336 0.75 0.75 0.75h4.5c0.414 0 0.75-0.336 0.75-0.75v-4.5c0-0.414-0.336-0.75-0.75-0.75zM5.25 19.875h-3.75v-3.75c0-0.414-0.336-0.75-0.75-0.75s-0.75 0.336-0.75 0.75v4.5c0 0.414 0.336 0.75 0.75 0.75h4.5c0.414 0 0.75-0.336 0.75-0.75s-0.336-0.75-0.75-0.75zM23.25 2.625h-4.5c-0.414 0-0.75 0.336-0.75 0.75s0.336 0.75 0.75 0.75h3.75v3.75c0 0.414 0.336 0.75 0.75 0.75s0.75-0.336 0.75-0.75v-4.5c0-0.414-0.336-0.75-0.75-0.75z"></path>
</svg>
