<!-- Generated by IcoMoon.io -->
<svg version="1.1" xmlns="http://www.w3.org/2000/svg" width="24" height="24" viewBox="0 0 24 24">
<title>game-controller</title>
<path d="M17.41 1.788c-0.599-0.281-1.165-0.546-1.681-0.804-1.321-0.662-2.519-0.983-3.661-0.983-2.3 0-3.891 1.327-4.889 2.325l-4.84 4.845c-2.59 2.592-3.003 5.232-1.34 8.559 0.258 0.517 0.523 1.084 0.804 1.685 1.514 3.238 3.079 6.586 5.64 6.586 0.072 0 0.143-0.002 0.216-0.008 2.643-0.207 3.393-3.61 4.055-6.612 0.105-0.475 0.205-0.931 0.307-1.34 0.178-0.707 0.528-1.146 1.487-2.107l0.132-0.133 0.081-0.081 0.213-0.213c0.961-0.961 1.4-1.311 2.108-1.49 0.405-0.102 0.86-0.202 1.334-0.306 3-0.662 6.402-1.412 6.607-4.060 0.208-2.687-3.24-4.301-6.574-5.863zM22.446 7.515c-0.146 1.867-4.324 2.418-6.811 3.041-1.1 0.278-1.769 0.86-2.779 1.87-0.070 0.070-0.141 0.141-0.213 0.212s-0.141 0.143-0.212 0.213c-1.010 1.011-1.591 1.68-1.868 2.781-0.624 2.489-1.174 6.672-3.039 6.819-0.034 0.003-0.067 0.003-0.101 0.003-1.978 0-3.642-4.498-5.111-7.432-1.491-2.983-0.852-4.919 1.061-6.834 0.367-0.368 0.824-0.825 1.384-1.385 0.572-0.572 1.251-1.253 2.057-2.059 0.559-0.56 1.016-1.016 1.383-1.385 1.189-1.19 2.385-1.887 3.835-1.887 0.885 0 1.863 0.259 2.992 0.825 2.982 1.495 7.578 3.193 7.421 5.217zM11.223 8.239h1.497v-1.497h-1.497v1.497zM11.223 5.993h1.497v-1.497h-1.497v1.497zM13.469 5.993h1.497v-1.497h-1.497v1.497zM13.469 8.239h1.497v-1.497h-1.497v1.497zM7.739 12.735l0.569-0.569c0.281-0.281 0.281-0.736 0-1.017s-0.736-0.281-1.016 0l-0.57 0.57-0.57-0.57c-0.281-0.281-0.736-0.281-1.016 0s-0.281 0.736 0 1.017l0.57 0.57-0.57 0.57c-0.281 0.28-0.281 0.736 0 1.016s0.736 0.281 1.016 0l0.57-0.569 0.586 0.586c0.281 0.281 0.736 0.281 1.016 0s0.281-0.736 0-1.017z"></path>
</svg>
