<!-- Generated by IcoMoon.io -->
<svg version="1.1" xmlns="http://www.w3.org/2000/svg" width="24" height="24" viewBox="0 0 24 24">
<title>ghost</title>
<path d="M12 0c-5.371 0-9.74 4.684-9.74 10.441v12.809c0 0.31 0.191 0.588 0.48 0.699 0.087 0.035 0.179 0.051 0.27 0.051 0.207 0 0.411-0.086 0.556-0.247l2.826-3.119 2.213 3.056c0.14 0.193 0.363 0.308 0.602 0.31h0.005c0.237 0 0.46-0.112 0.601-0.303l2.222-2.984 2.183 2.979c0.141 0.193 0.366 0.307 0.605 0.307s0.463-0.114 0.605-0.306l2.239-3.053 2.765 3.108c0.207 0.232 0.538 0.313 0.827 0.202 0.291-0.111 0.483-0.39 0.483-0.701v-12.809c0-5.757-4.37-10.441-9.741-10.441zM20.241 21.279l-2.071-2.328c-0.151-0.169-0.37-0.265-0.595-0.25-0.226 0.011-0.436 0.123-0.57 0.305l-2.182 2.976-2.179-2.974c-0.141-0.192-0.364-0.306-0.602-0.307h-0.003c-0.237 0-0.46 0.112-0.601 0.303l-2.219 2.979-2.156-2.978c-0.133-0.183-0.34-0.297-0.566-0.308-0.014-0.001-0.027-0.002-0.041-0.002-0.211 0-0.413 0.089-0.556 0.247l-2.141 2.363v-10.865c0-4.93 3.697-8.941 8.24-8.941s8.241 4.011 8.241 8.941v10.839h0zM15.749 8.255c-0.827 0-1.496 0.67-1.496 1.495s0.669 1.496 1.496 1.496 1.496-0.67 1.496-1.496c0-0.825-0.669-1.495-1.496-1.495zM8.251 8.255c-0.827 0-1.496 0.67-1.496 1.495s0.67 1.496 1.496 1.496 1.496-0.67 1.496-1.496c0-0.825-0.669-1.495-1.496-1.495z"></path>
</svg>
