<!-- Generated by IcoMoon.io -->
<svg version="1.1" xmlns="http://www.w3.org/2000/svg" width="24" height="24" viewBox="0 0 24 24">
<title>globe</title>
<path d="M24 12c0-6.363-4.998-11.581-11.282-11.953-0.129-0.014-0.259-0.024-0.391-0.024-0.039 0-0.078 0.004-0.117 0.005-0.070-0.001-0.14-0.005-0.21-0.005-6.617 0-12 5.373-12 11.977s5.383 11.977 12 11.977c0.071 0 0.14-0.004 0.211-0.006 0.039 0.001 0.078 0.006 0.117 0.006 0.132 0 0.262-0.009 0.391-0.024 6.284-0.372 11.281-5.59 11.281-11.953zM21.767 15.856c-0.412-0.12-1.448-0.38-3.276-0.594 0.151-1.034 0.234-2.126 0.234-3.262 0-0.895-0.052-1.762-0.147-2.597 2.316-0.277 3.33-0.625 3.399-0.649l-0.279-0.786c0.52 1.242 0.808 2.603 0.808 4.031 0 1.361-0.264 2.661-0.739 3.856zM6.702 12c0-0.838 0.055-1.655 0.157-2.442 1.214 0.095 2.665 0.166 4.371 0.182v5.194c-1.661 0.016-3.080 0.083-4.273 0.175-0.165-0.987-0.254-2.032-0.254-3.109zM12.724 1.62c1.835 0.532 3.407 3.080 4.111 6.458-1.131 0.090-2.494 0.156-4.111 0.171v-6.63zM11.23 1.638v6.611c-1.599-0.016-2.968-0.081-4.118-0.169 0.718-3.336 2.302-5.865 4.118-6.442zM11.23 16.426l0 5.935c-1.694-0.537-3.186-2.774-3.961-5.778 1.117-0.082 2.435-0.142 3.961-0.157zM12.724 22.38l-0-5.954c1.543 0.015 2.855 0.077 3.958 0.162-0.763 3.044-2.246 5.296-3.958 5.792zM12.724 14.934l0-5.193c1.715-0.016 3.158-0.088 4.355-0.187 0.098 0.788 0.152 1.607 0.152 2.446 0 1.079-0.087 2.125-0.246 3.114-1.179-0.095-2.592-0.164-4.261-0.18zM21.422 7.367c-0.226 0.070-1.171 0.339-3.065 0.562-0.422-2.244-1.185-4.163-2.178-5.548 2.281 0.991 4.143 2.767 5.243 4.985zM8.417 2.143c-1.221 1.402-2.218 3.419-2.762 5.804-1.695-0.184-2.711-0.4-3.118-0.498 1.186-2.448 3.299-4.368 5.881-5.306zM1.98 8.847c0.288 0.078 1.378 0.349 3.405 0.574-0.116 0.829-0.18 1.691-0.18 2.58 0 1.129 0.102 2.216 0.286 3.244-1.74 0.188-2.811 0.413-3.291 0.529-0.455-1.172-0.707-2.443-0.707-3.773 0-1.098 0.171-2.158 0.486-3.153zM2.856 17.154c0.544-0.116 1.518-0.292 2.961-0.443 0.568 2.098 1.492 3.874 2.6 5.145-2.365-0.859-4.334-2.544-5.561-4.702v0zM16.179 21.618c0.894-1.246 1.602-2.924 2.042-4.884 1.483 0.17 2.414 0.369 2.884 0.488-1.123 1.943-2.85 3.494-4.926 4.396z"></path>
</svg>
