<!-- Generated by IcoMoon.io -->
<svg version="1.1" xmlns="http://www.w3.org/2000/svg" width="24" height="24" viewBox="0 0 24 24">
<title>globe-alt</title>
<path d="M21.793 9.711c0-3.959-2.087-7.55-5.582-9.607-0.358-0.211-0.818-0.091-1.028 0.267s-0.091 0.817 0.267 1.028c3.032 1.783 4.841 4.891 4.841 8.312 0 5.685-4.127 9.812-9.812 9.812-1.271 0-2.505-0.238-3.667-0.707-0.384-0.156-0.822 0.030-0.977 0.414s0.030 0.822 0.414 0.977c1.342 0.542 2.765 0.817 4.23 0.817 0.005 0 0.009-0 0.014-0v1.478h-2.18c-0.433 0-0.784 0.336-0.784 0.749s0.351 0.749 0.784 0.749h5.931c0.433 0 0.784-0.336 0.784-0.749s-0.351-0.749-0.784-0.749h-2.261v-1.567c5.766-0.67 9.81-5.182 9.81-11.223zM18.741 9.779c0-4.566-3.7-8.29-8.266-8.29s-8.268 3.724-8.268 8.29 3.701 8.243 8.268 8.243c4.566 0 8.266-3.678 8.266-8.243zM3.708 9.779c0-3.73 3.035-6.788 6.766-6.788s6.765 3.058 6.765 6.788-3.035 6.742-6.765 6.742c-3.731 0-6.766-3.012-6.766-6.742z"></path>
</svg>
