<!-- Generated by IcoMoon.io -->
<svg version="1.1" xmlns="http://www.w3.org/2000/svg" width="24" height="24" viewBox="0 0 24 24">
<title>graduation</title>
<path d="M23.22 16.319v-6.049l0.377-0.199c0.245-0.127 0.4-0.38 0.403-0.657s-0.147-0.532-0.389-0.665l-11.281-6.036c-0.226-0.124-0.499-0.123-0.726 0.002l-11.219 6.044c-0.239 0.133-0.387 0.386-0.385 0.66s0.152 0.525 0.394 0.655l4.93 2.624c-0.062 0.109-0.1 0.234-0.1 0.368v6.345c0 0.214 0.091 0.418 0.251 0.56 0.163 0.144 1.721 1.408 6.485 1.408 4.747 0 6.347-1.194 6.514-1.331 0.174-0.142 0.275-0.355 0.275-0.581v-6.508c0-0.105-0.022-0.205-0.061-0.296l3.033-1.602v5.261c-0.445 0.26-0.746 0.737-0.746 1.289 0 0.828 0.671 1.5 1.5 1.5s1.5-0.671 1.5-1.5c0-0.555-0.306-1.034-0.754-1.293zM17.249 19.038c-0.589 0.283-2.149 0.841-5.29 0.841-3.161 0-4.685-0.594-5.236-0.88v-5.557l4.869 2.592c0.111 0.060 0.234 0.090 0.356 0.090 0.119 0 0.239-0.029 0.347-0.086l4.954-2.616v5.615zM11.954 14.526l-9.645-5.121 9.661-5.178 9.691 5.163z"></path>
</svg>
