<!-- Generated by IcoMoon.io -->
<svg version="1.1" xmlns="http://www.w3.org/2000/svg" width="24" height="24" viewBox="0 0 24 24">
<title>graph</title>
<path d="M22.125 5.25c-1.036 0-1.875 0.84-1.875 1.875 0 0.213 0.043 0.413 0.108 0.604l-4.571 3.936c-0.321-0.255-0.721-0.414-1.162-0.414-0.51 0-0.971 0.205-1.308 0.535l-3.58-1.793c-0.070-0.972-0.872-1.742-1.862-1.742-1.035 0-1.875 0.84-1.875 1.875 0 0.284 0.067 0.549 0.18 0.79l-3.65 4.209c-0.205-0.076-0.423-0.124-0.655-0.124-1.035 0-1.875 0.84-1.875 1.875s0.84 1.875 1.875 1.875c1.035 0 1.875-0.84 1.875-1.875 0-0.249-0.051-0.487-0.139-0.704l3.709-4.264c0.177 0.055 0.36 0.093 0.555 0.093 0.546 0 1.032-0.237 1.375-0.609l3.502 1.756c0.012 1.025 0.845 1.854 1.873 1.854 1.036 0 1.875-0.84 1.875-1.875 0-0.033-0.008-0.064-0.010-0.097l4.877-4.19c0.232 0.103 0.487 0.162 0.758 0.162 1.036 0 1.875-0.839 1.875-1.875s-0.839-1.875-1.875-1.875z"></path>
</svg>
