<!-- Generated by IcoMoon.io -->
<svg version="1.1" xmlns="http://www.w3.org/2000/svg" width="24" height="24" viewBox="0 0 24 24">
<title>grid</title>
<path d="M22.5 24h-7.5c-0.828 0-1.5-0.672-1.5-1.5v-7.5c0-0.828 0.672-1.5 1.5-1.5h7.5c0.828 0 1.5 0.672 1.5 1.5v7.5c0 0.828-0.672 1.5-1.5 1.5zM22.5 15h-7.5v7.5h7.5v-7.5zM22.5 10.5h-7.5c-0.828 0-1.5-0.672-1.5-1.5v-7.5c0-0.828 0.672-1.5 1.5-1.5h7.5c0.828 0 1.5 0.672 1.5 1.5v7.5c0 0.828-0.672 1.5-1.5 1.5zM22.5 1.5h-7.5v7.5h7.5v-7.5zM9 24h-7.5c-0.828 0-1.5-0.672-1.5-1.5v-7.5c0-0.828 0.672-1.5 1.5-1.5h7.5c0.828 0 1.5 0.672 1.5 1.5v7.5c0 0.828-0.672 1.5-1.5 1.5zM9 15h-7.5v7.5h7.5v-7.5zM9 10.5h-7.5c-0.828 0-1.5-0.672-1.5-1.5v-7.5c0-0.828 0.672-1.5 1.5-1.5h7.5c0.828 0 1.5 0.672 1.5 1.5v7.5c0 0.828-0.672 1.5-1.5 1.5zM9 1.5h-7.5v7.5h7.5v-7.5z"></path>
</svg>
