<!-- Generated by IcoMoon.io -->
<svg version="1.1" xmlns="http://www.w3.org/2000/svg" width="24" height="24" viewBox="0 0 24 24">
<title>handbag</title>
<path d="M23.949 22.075l-1.951-11.787c-0.174-1.528-1.567-2.771-3.105-2.771h-1.653v-1.995c0-3.045-2.172-5.522-5.217-5.522s-5.263 2.477-5.263 5.522v1.995h-1.794c-1.538 0-2.931 1.243-3.101 2.739l-1.808 11.796c-0.070 0.621 0.052 1.111 0.36 1.457 0.291 0.325 0.714 0.491 1.257 0.491h20.438c0.77 0 1.211-0.309 1.447-0.569 0.216-0.239 0.46-0.658 0.389-1.356zM8.258 5.522c0-2.219 1.547-4.025 3.766-4.025s3.72 1.806 3.72 4.025v1.995h-7.485zM22.181 22.492l-20.413 0.010c-0.129 0-0.258-0.069-0.227-0.25l1.807-11.794c0.090-0.782 0.831-1.443 1.618-1.443h1.794v1.706c-0.446 0.259-0.75 0.737-0.75 1.29 0 0.827 0.67 1.497 1.497 1.497s1.497-0.67 1.497-1.497c0-0.553-0.302-1.029-0.748-1.289v-1.708h7.485v1.708c-0.445 0.259-0.748 0.737-0.748 1.289 0 0.827 0.67 1.497 1.497 1.497s1.497-0.67 1.497-1.497c0-0.553-0.304-1.031-0.75-1.29v-1.706h1.653c0.788 0 1.528 0.661 1.624 1.484l1.95 11.775c0.009 0.096-0.066 0.218-0.285 0.218z"></path>
</svg>
