<!-- Generated by IcoMoon.io -->
<svg version="1.1" xmlns="http://www.w3.org/2000/svg" width="24" height="24" viewBox="0 0 24 24">
<title>heart</title>
<path d="M6.737 2.694c0.734 0 2.061 0.351 4.213 2.471l1.067 1.051 1.051-1.067c1.494-1.518 3.084-2.461 4.149-2.461 1.436 0 2.569 0.491 3.673 1.593 1.040 1.038 1.614 2.418 1.614 3.886s-0.572 2.85-1.624 3.899c-0.086 0.087-4.608 4.966-8.397 9.055-0.179 0.17-0.383 0.195-0.491 0.195-0.107 0-0.309-0.024-0.487-0.189-0.923-1.027-7.615-8.468-8.394-9.245-1.042-1.039-1.615-2.42-1.615-3.888s0.573-2.848 1.615-3.887c1.013-1.012 2.199-1.411 3.625-1.411zM6.737 1.197c-1.79 0-3.369 0.536-4.683 1.848-2.739 2.732-2.739 7.161 0 9.894 0.782 0.782 8.371 9.225 8.371 9.225 0.432 0.433 1 0.648 1.566 0.648s1.132-0.215 1.565-0.648c0 0 8.302-8.96 8.39-9.049 2.738-2.734 2.738-7.164 0-9.895-1.359-1.357-2.878-2.030-4.73-2.030-1.77 0-3.743 1.411-5.217 2.908-1.52-1.497-3.433-2.9-5.263-2.9v0z"></path>
</svg>
