<!-- Generated by IcoMoon.io -->
<svg version="1.1" xmlns="http://www.w3.org/2000/svg" width="24" height="24" viewBox="0 0 24 24">
<title>home</title>
<path d="M23.792 12.032l-11.224-11.756c-0.141-0.147-0.336-0.23-0.539-0.23s-0.398 0.083-0.539 0.23l-11.281 11.756c-0.286 0.298-0.276 0.771 0.022 1.057s0.771 0.277 1.057-0.022l1.005-1.047v11.188c0 0.413 0.335 0.748 0.748 0.748h5.223c0.412 0 0.746-0.333 0.748-0.745l0.024-7.469h5.958v7.467c0 0.413 0.335 0.748 0.748 0.748h5.221c0.413 0 0.748-0.335 0.748-0.748v-11.191l1.004 1.052c0.147 0.153 0.343 0.23 0.539 0.23 0.186 0 0.373-0.069 0.518-0.209 0.298-0.286 0.307-0.759 0.022-1.057zM20.213 10.664v11.795h-3.726v-7.466c0-0.413-0.335-0.748-0.748-0.748h-7.45c-0.412 0-0.746 0.333-0.748 0.745l-0.024 7.469h-3.73v-11.795c0-0.062-0.010-0.121-0.024-0.178l8.265-8.613 8.211 8.603c-0.016 0.061-0.027 0.123-0.027 0.188z"></path>
</svg>
