<!-- Generated by IcoMoon.io -->
<svg version="1.1" xmlns="http://www.w3.org/2000/svg" width="24" height="24" viewBox="0 0 24 24">
<title>hourglass</title>
<path d="M19.534 1.501h-1.513v5.055c0 2.449-1.329 4.303-4.179 5.754 2.958 1.497 4.203 3.336 4.203 6.079 0 1.786-0.008 3.285-0.014 4.109h1.503c0.415 0 0.751 0.335 0.751 0.75s-0.336 0.751-0.751 0.751h-15.068c-0.415 0-0.751-0.336-0.751-0.751s0.336-0.75 0.751-0.75h1.547c-0.006-0.824-0.014-2.323-0.014-4.109 0-2.743 1.227-4.582 4.18-6.079-2.845-1.451-4.157-3.304-4.157-5.754v-5.055h-1.557c-0.415 0-0.751-0.336-0.751-0.751s0.336-0.751 0.751-0.751h15.068c0.415 0 0.751 0.336 0.751 0.751s-0.336 0.751-0.751 0.751zM7.501 18.39c0 1.79 0.008 3.291 0.014 4.109h9.015c0.005-0.819 0.014-2.32 0.014-4.109 0-2.089-0.777-3.708-4.533-5.266-3.755 1.557-4.51 3.177-4.51 5.266zM16.52 1.501h-8.996v5.055c0 1.44 0.484 3.295 4.486 4.94 4.002-1.645 4.51-3.5 4.51-4.94v-5.055z"></path>
</svg>
