<!-- Generated by IcoMoon.io -->
<svg version="1.1" xmlns="http://www.w3.org/2000/svg" width="24" height="24" viewBox="0 0 24 24">
<title>info</title>
<path d="M13.5 17.25l-0.75-0v-6.703c0-0.008-0.002-0.015-0.002-0.024s0.002-0.015 0.002-0.023c0-0.414-0.336-0.75-0.75-0.75h-1.5c-0.414 0-0.75 0.336-0.75 0.75s0.336 0.75 0.75 0.75h0.75v6h-0.75c-0.414 0-0.75 0.336-0.75 0.75s0.336 0.75 0.75 0.75h3c0.414 0 0.75-0.336 0.75-0.75s-0.336-0.75-0.75-0.75zM12 8.25c0.828 0 1.5-0.672 1.5-1.5s-0.672-1.5-1.5-1.5-1.5 0.672-1.5 1.5 0.672 1.5 1.5 1.5zM12 0c-6.627 0-12 5.373-12 12s5.373 12 12 12c6.628 0 12-5.372 12-12s-5.372-12-12-12zM12 22.524c-5.79 0-10.5-4.734-10.5-10.524s4.71-10.5 10.5-10.5 10.5 4.71 10.5 10.5-4.71 10.524-10.5 10.524z"></path>
</svg>
