<!-- Generated by IcoMoon.io -->
<svg version="1.1" xmlns="http://www.w3.org/2000/svg" width="24" height="24" viewBox="0 0 24 24">
<title>key</title>
<path d="M15.366 0c-3.726 0-6.747 3.026-6.747 6.758 0 1.673 0.61 3.201 1.615 4.381-0.207-0.013-0.418 0.057-0.576 0.215l-7.553 7.599c-0.292 0.293-0.292 0.768 0 1.060 0.006 0.006 0.012 0.009 0.018 0.015 0.002 0.002 0.003 0.004 0.005 0.006l3.676 3.746c0.292 0.293 0.767 0.293 1.060 0s0.293-0.768 0-1.060l-3.174-3.234 1.933-1.945 3.18 3.24c0.292 0.293 0.767 0.293 1.060 0s0.292-0.768 0-1.060l-3.183-3.243 4.038-4.064c0.156-0.156 0.226-0.364 0.216-0.569 1.186 1.038 2.733 1.671 4.432 1.671 3.726 0 6.747-3.026 6.747-6.758s-3.021-6.758-6.747-6.758zM15.366 11.995c-2.887 0-5.248-2.349-5.248-5.248s2.36-5.248 5.248-5.248 5.248 2.349 5.248 5.248c0 2.899-2.36 5.248-5.248 5.248z"></path>
</svg>
