<!-- Generated by IcoMoon.io -->
<svg version="1.1" xmlns="http://www.w3.org/2000/svg" width="24" height="24" viewBox="0 0 24 24">
<title>layers</title>
<path d="M0.52 7.077l11.127 6.060c0.112 0.061 0.235 0.091 0.359 0.091 0.122 0 0.244-0.030 0.356-0.090l11.245-6.060c0.245-0.132 0.398-0.389 0.394-0.668s-0.162-0.533-0.41-0.66l-11.128-5.651c-0.212-0.108-0.462-0.108-0.676-0.002l-11.243 5.651c-0.249 0.125-0.408 0.378-0.413 0.657s0.147 0.537 0.391 0.67zM12.121 1.608l9.513 4.831-9.626 5.187-9.513-5.18zM23.461 11.258l-2.224-1.13-1.606 0.866 1.874 0.951-9.625 5.187-9.514-5.18 1.998-1.004-1.601-0.872-2.35 1.18c-0.249 0.125-0.408 0.378-0.413 0.657s0.147 0.537 0.391 0.67l11.127 6.060c0.112 0.061 0.235 0.091 0.359 0.091 0.122 0 0.244-0.030 0.356-0.090l11.245-6.060c0.245-0.132 0.398-0.389 0.394-0.668s-0.162-0.533-0.41-0.659zM23.462 16.504l-2.107-1.036-1.606 0.866 1.757 0.858-9.626 5.187-9.514-5.18 1.858-0.84-1.601-0.872-2.209 1.017c-0.249 0.125-0.408 0.378-0.413 0.657s0.147 0.537 0.391 0.67l11.127 6.060c0.112 0.061 0.235 0.091 0.359 0.091 0.122 0 0.244-0.030 0.356-0.090l11.245-6.060c0.245-0.132 0.398-0.389 0.394-0.668-0.003-0.28-0.162-0.533-0.41-0.66z"></path>
</svg>
