<!-- Generated by IcoMoon.io -->
<svg version="1.1" xmlns="http://www.w3.org/2000/svg" width="24" height="24" viewBox="0 0 24 24">
<title>link</title>
<path d="M6.931 17.165c0.147 0.147 0.338 0.22 0.53 0.22s0.384-0.073 0.53-0.22l9.083-9.154c0.293-0.293 0.293-0.767 0-1.060s-0.767-0.293-1.060 0l-9.083 9.154c-0.293 0.293-0.293 0.767 0 1.060zM11.154 15.569c0.248 1.092-0.020 2.165-0.864 3.009l-3.028 2.935c-0.637 0.637-1.485 0.988-2.386 0.988s-1.749-0.351-2.385-0.988c-1.316-1.316-1.316-3.457-0.008-4.765l2.958-3.052c0.637-0.637 1.485-0.988 2.386-0.988 0.308 0 0.605 0.055 0.894 0.135l1.17-1.17c-0.653-0.305-1.358-0.464-2.065-0.464-1.247 0-2.495 0.476-3.446 1.428l-2.951 3.045c-1.903 1.903-1.903 4.989 0 6.892 0.951 0.952 2.199 1.427 3.446 1.427s2.495-0.475 3.446-1.427l3.021-2.928c1.456-1.456 1.771-3.485 0.999-5.265zM22.571 1.428c-0.952-0.951-2.199-1.428-3.446-1.428s-2.495 0.476-3.446 1.428l-3.021 2.928c-1.509 1.509-1.817 3.76-0.932 5.577l1.164-1.163c-0.345-1.151-0.080-2.445 0.821-3.347l3.028-2.935c0.638-0.637 1.484-0.988 2.386-0.988 0.9 0 1.749 0.351 2.385 0.988 1.315 1.316 1.315 3.457 0.008 4.765l-3.028 3.028c-0.637 0.637-1.485 0.988-2.385 0.988-0.23 0-0.432 0.023-0.652-0.022l-1.194 1.195c0.597 0.248 1.21 0.327 1.847 0.327 1.247 0 2.494-0.476 3.446-1.428l3.021-3.021c1.903-1.903 1.903-4.988-0-6.892z"></path>
</svg>
