<!-- Generated by IcoMoon.io -->
<svg version="1.1" xmlns="http://www.w3.org/2000/svg" width="24" height="24" viewBox="0 0 24 24">
<title>list</title>
<path d="M2.25 10.5h-1.5c-0.414 0-0.75 0.336-0.75 0.75v1.5c0 0.414 0.336 0.75 0.75 0.75h1.5c0.414 0 0.75-0.336 0.75-0.75v-1.5c0-0.414-0.336-0.75-0.75-0.75zM23.25 11.25h-15.75c-0.414 0-0.75 0.336-0.75 0.75s0.336 0.75 0.75 0.75h15.75c0.414 0 0.75-0.336 0.75-0.75s-0.336-0.75-0.75-0.75zM2.25 16.5h-1.5c-0.414 0-0.75 0.336-0.75 0.75v1.5c0 0.414 0.336 0.75 0.75 0.75h1.5c0.414 0 0.75-0.336 0.75-0.75v-1.5c0-0.414-0.336-0.75-0.75-0.75zM23.25 17.25h-15.75c-0.414 0-0.75 0.336-0.75 0.75s0.336 0.75 0.75 0.75h15.75c0.414 0 0.75-0.336 0.75-0.75s-0.336-0.75-0.75-0.75zM2.25 4.5h-1.5c-0.414 0-0.75 0.336-0.75 0.75v1.5c0 0.414 0.336 0.75 0.75 0.75h1.5c0.414 0 0.75-0.336 0.75-0.75v-1.5c0-0.414-0.336-0.75-0.75-0.75zM7.5 6.75h15.75c0.414 0 0.75-0.336 0.75-0.75s-0.336-0.75-0.75-0.75h-15.75c-0.414 0-0.75 0.336-0.75 0.75s0.336 0.75 0.75 0.75z"></path>
</svg>
