<!-- Generated by IcoMoon.io -->
<svg version="1.1" xmlns="http://www.w3.org/2000/svg" width="24" height="24" viewBox="0 0 24 24">
<title>location-pin</title>
<path d="M12.086 0c-4.92 0-9.086 4.19-9.086 9.153 0 5.197 4.829 10.513 8.077 14.248 0.012 0.015 0.537 0.598 1.184 0.598h0.057c0.647 0 1.168-0.583 1.181-0.598 3.048-3.504 7.5-9.282 7.5-14.248 0-4.964-3.25-9.153-8.914-9.153zM12.387 22.396c-0.026 0.026-0.065 0.056-0.098 0.080-0.034-0.024-0.072-0.054-0.1-0.080l-0.392-0.451c-3.079-3.533-7.296-8.371-7.296-12.791 0-4.149 3.474-7.654 7.586-7.654 5.122 0 7.414 3.844 7.414 7.654 0 3.356-2.394 7.812-7.113 13.242zM12.026 4.542c-2.485 0-4.5 2.015-4.5 4.5s2.015 4.5 4.5 4.5 4.5-2.015 4.5-4.5-2.015-4.5-4.5-4.5zM12.026 12.042c-1.654 0-3.035-1.379-3.035-3.033s1.346-3 3-3c1.655 0 3 1.346 3 3s-1.31 3.033-2.965 3.033z"></path>
</svg>
