<!-- Generated by IcoMoon.io -->
<svg version="1.1" xmlns="http://www.w3.org/2000/svg" width="24" height="24" viewBox="0 0 24 24">
<title>lock</title>
<path d="M18.75 9h-0.75v-2.862c0-3.442-2.49-6.138-6.028-6.138-3.552 0-5.972 2.753-5.972 6.138v2.862h-0.75c-1.655 0-3 1.346-3 3v9c0 1.654 1.345 3 3 3h13.5c1.654 0 3-1.346 3-3v-9c0-1.654-1.346-3-3-3zM7.5 6.138c0-2.557 1.748-4.638 4.472-4.638 2.697 0 4.528 2.037 4.528 4.638v2.862h-9v-2.862zM20.25 21c0 0.827-0.673 1.5-1.5 1.5h-13.5c-0.827 0-1.5-0.673-1.5-1.5v-9c0-0.827 0.673-1.5 1.5-1.5h13.5c0.827 0 1.5 0.673 1.5 1.5v9zM12 13.5c-0.828 0-1.5 0.672-1.5 1.5 0 0.554 0.304 1.032 0.75 1.292v2.458c0 0.414 0.336 0.75 0.75 0.75s0.75-0.336 0.75-0.75v-2.458c0.446-0.26 0.75-0.738 0.75-1.292 0-0.828-0.672-1.5-1.5-1.5z"></path>
</svg>
