<!-- Generated by IcoMoon.io -->
<svg version="1.1" xmlns="http://www.w3.org/2000/svg" width="24" height="24" viewBox="0 0 24 24">
<title>lock-open</title>
<path d="M18.735 9.032l-10.687 0-0.387-1.737c-0.66-2.464 0.487-4.921 3.113-5.625 2.599-0.696 4.89 0.794 5.562 3.3l0.318 1.262c0.107 0.399 0.517 0.636 0.917 0.529s0.636-0.517 0.529-0.916l-0.318-1.262c-0.888-3.317-3.985-5.272-7.395-4.359-3.423 0.917-5.045 4.196-4.171 7.458l0.301 1.349h-1.252c-1.651 0-2.994 1.343-2.994 2.994v8.981c0 1.651 1.343 2.994 2.994 2.994h13.471c1.651 0 2.994-1.343 2.994-2.994v-8.981c0-1.651-1.343-2.994-2.994-2.994zM20.232 21.007c0 0.825-0.672 1.497-1.497 1.497h-13.471c-0.825 0-1.497-0.672-1.497-1.497v-8.981c0-0.825 0.672-1.497 1.497-1.497h13.471c0.825 0 1.497 0.672 1.497 1.497v8.981zM12 13.523c-0.827 0-1.497 0.67-1.497 1.497 0 0.553 0.303 1.030 0.748 1.289v2.453c0 0.413 0.335 0.748 0.748 0.748s0.748-0.335 0.748-0.748v-2.453c0.445-0.259 0.748-0.737 0.748-1.289 0-0.827-0.67-1.497-1.497-1.497z"></path>
</svg>
