<!-- Generated by IcoMoon.io -->
<svg version="1.1" xmlns="http://www.w3.org/2000/svg" width="24" height="24" viewBox="0 0 24 24">
<title>login</title>
<path d="M12.481 15.501c-0.293 0.293-0.293 0.767-0 1.060 0.147 0.147 0.338 0.22 0.53 0.22s0.384-0.073 0.53-0.22l4.428-4.545-4.428-4.546c-0.293-0.293-0.767-0.293-1.060 0s-0.293 0.767 0 1.060l2.712 2.712h-14.443c-0.414 0-0.75 0.336-0.75 0.75s0.336 0.75 0.75 0.75h14.49zM22.5 0.004h-13.496c-0.828 0-1.5 0.671-1.5 1.5v6.748h1.51v-5.833c0-0.501 0.406-0.907 0.907-0.907h11.638c0.502 0 0.907 0.406 0.907 0.907l0.024 19.172c0 0.501-0.406 0.907-0.907 0.907h-11.661c-0.501 0-0.907-0.406-0.907-0.907v-5.866l-1.51 0.002v6.771c0 0.828 0.671 1.5 1.5 1.5h13.496c0.828 0 1.5-0.671 1.5-1.5v-20.993c-0-0.828-0.672-1.5-1.5-1.5z"></path>
</svg>
