<!-- Generated by IcoMoon.io -->
<svg version="1.1" xmlns="http://www.w3.org/2000/svg" width="24" height="24" viewBox="0 0 24 24">
<title>logout</title>
<path d="M2.738 12.742h12.995c0.415 0 0.75-0.336 0.75-0.75s-0.335-0.75-0.75-0.75h-12.948l2.713-2.713c0.293-0.293 0.293-0.768 0-1.060s-0.768-0.293-1.061 0l-4.43 4.547 4.43 4.547c0.147 0.147 0.338 0.22 0.53 0.22s0.384-0.073 0.53-0.22c0.293-0.293 0.293-0.768 0-1.061zM22.492 0h-12.75c-0.829 0-1.5 0.672-1.5 1.5v6.75h1.51v-5.835c0-0.501 0.406-0.907 0.907-0.907h10.892c0.501 0 0.908 0.406 0.908 0.907l0.024 19.179c0 0.501-0.406 0.907-0.908 0.907h-10.915c-0.501 0-0.908-0.407-0.908-0.907v-5.868l-1.51 0.002v6.773c0 0.828 0.671 1.5 1.5 1.5h12.75c0.829 0 1.5-0.672 1.5-1.5v-21c-0-0.828-0.672-1.5-1.5-1.5z"></path>
</svg>
