<!-- Generated by IcoMoon.io -->
<svg version="1.1" xmlns="http://www.w3.org/2000/svg" width="24" height="24" viewBox="0 0 24 24">
<title>loop</title>
<path d="M22.5 2.387l-21 0c-0.828 0-1.5 0.672-1.5 1.5v13.5c0 0.829 0.672 1.5 1.5 1.5h3.75c0.48 0 0.75-0.617 0.75-0.75v-0c0-0.136-0.255-0.76-0.75-0.76h-2.835c-0.501 0-0.907-0.407-0.907-0.907v-11.642c0-0.501 0.406-0.907 0.907-0.907l19.178-0.024c0.501 0 0.907 0.406 0.907 0.907v11.665c0 0.501-0.407 0.907-0.907 0.907h-9.449l1.781-1.615c0.219-0.21 0.29-0.549 0.071-0.758l-0.128-0.189c-0.22-0.21-0.574-0.21-0.793 0l-3.040 2.776c-0.005 0.004-0.009 0.005-0.012 0.009l-0.199 0.19c-0.11 0.104-0.164 0.242-0.164 0.38-0.001 0.138 0.054 0.276 0.164 0.382l0.199 0.19c0.004 0.004 0.009 0.005 0.012 0.008l2.994 2.707c0.219 0.21 0.573 0.21 0.793 0l0.128-0.189c0.219-0.21 0.148-0.549-0.071-0.759l-1.808-1.621h10.43c0.828 0 1.5-0.671 1.5-1.5v-13.5c0-0.828-0.672-1.5-1.5-1.5z"></path>
</svg>
