<!-- Generated by IcoMoon.io -->
<svg version="1.1" xmlns="http://www.w3.org/2000/svg" width="24" height="24" viewBox="0 0 24 24">
<title>magic-wand</title>
<path d="M23.87 10.071l-2.399-3.587 1.194-4.174c0.074-0.262 0.001-0.543-0.192-0.735s-0.473-0.264-0.736-0.187l-4.167 1.217-3.602-2.425c-0.227-0.152-0.517-0.171-0.758-0.045-0.242 0.124-0.397 0.37-0.406 0.642l-0.129 4.34-3.42 2.675c-0.214 0.168-0.32 0.439-0.277 0.708s0.229 0.492 0.486 0.584l3.209 1.15c-0.022 0.017-0.044 0.033-0.065 0.053l-12.389 12.389c-0.292 0.292-0.292 0.765 0 1.056 0.146 0.146 0.337 0.219 0.528 0.219s0.382-0.073 0.528-0.219l12.389-12.389c0.048-0.048 0.086-0.103 0.118-0.159l1.256 3.444c0.093 0.255 0.318 0.44 0.587 0.482 0.038 0.006 0.077 0.009 0.115 0.009 0.229 0 0.448-0.106 0.591-0.29l2.656-3.435 4.293-0.153c0.272-0.009 0.517-0.166 0.641-0.409s0.104-0.533-0.049-0.758zM18.584 9.912c-0.222 0.007-0.429 0.114-0.565 0.289l-2.042 2.64-1.143-3.135c-0.076-0.209-0.241-0.372-0.45-0.447l-3.142-1.126 2.629-2.056c0.175-0.137 0.279-0.344 0.287-0.566l0.099-3.337 2.768 1.864c0.184 0.124 0.415 0.159 0.627 0.098l3.204-0.936-0.918 3.209c-0.061 0.214-0.024 0.443 0.101 0.627l1.881 2.757z"></path>
</svg>
