<!-- Generated by IcoMoon.io -->
<svg version="1.1" xmlns="http://www.w3.org/2000/svg" width="24" height="24" viewBox="0 0 24 24">
<title>magnifier</title>
<path d="M23.821 22.716l-7.287-7.332c1.358-1.627 2.177-3.72 2.177-6.005 0-5.178-4.197-9.375-9.375-9.375s-9.375 4.197-9.375 9.375 4.197 9.375 9.375 9.375c2.352 0 4.501-0.869 6.147-2.3l7.277 7.323c0.293 0.293 0.768 0.293 1.061 0s0.293-0.768 0-1.061zM9.335 17.266c-4.356 0-7.887-3.531-7.887-7.887s3.531-7.887 7.887-7.887c4.356 0 7.887 3.531 7.887 7.887s-3.531 7.887-7.887 7.887z"></path>
</svg>
