<!-- Generated by IcoMoon.io -->
<svg version="1.1" xmlns="http://www.w3.org/2000/svg" width="24" height="24" viewBox="0 0 24 24">
<title>magnet</title>
<path d="M22.49 1.428v-0.679c0-0.414-0.335-0.749-0.749-0.749h-5.256c-0.414 0-0.749 0.335-0.749 0.749v3.057c0 0.001 0.001 0.002 0.001 0.003v9.302c0 2.254-1.271 4.087-3.525 4.087s-3.947-1.833-3.947-4.087v-11.684h-0.002v-0.679c0-0.414-0.335-0.749-0.749-0.749h-5.256c-0.414 0-0.749 0.335-0.749 0.749v3.057c0 0.015 0.008 0.028 0.009 0.043v9.606c0 5.824 4.652 10.545 10.475 10.545s10.498-4.721 10.498-10.545v-12.027zM20.992 1.498v3.003h-3.75v-3.003h3.75zM6.765 1.498v3.003h-3.75v-3.003h3.75zM11.992 22.503c-4.989 0-8.978-4.059-8.978-9.048v-7.457h3.752v7.113c0 3.084 2.36 5.584 5.444 5.584s5.023-2.5 5.023-5.584v-7.113h3.759v7.457c0 4.988-4.011 9.048-9.001 9.048z"></path>
</svg>
