<!-- Generated by IcoMoon.io -->
<svg version="1.1" xmlns="http://www.w3.org/2000/svg" width="24" height="24" viewBox="0 0 24 24">
<title>magnifier-remove</title>
<path d="M23.82 22.716l-6.633-6.674c1.421-1.697 2.276-3.885 2.276-6.275 0-5.392-4.348-9.763-9.739-9.763s-9.763 4.371-9.763 9.763 4.371 9.763 9.763 9.763c2.461 0 4.703-0.913 6.415-2.416l6.622 6.663c0.293 0.293 0.768 0.293 1.061 0s0.293-0.768 0-1.061zM9.71 18.004c-4.536 0-8.25-3.714-8.25-8.25s3.714-8.25 8.25-8.25c4.536 0 8.25 3.714 8.25 8.25s-3.714 8.25-8.25 8.25zM13.46 9.004h-7.5c-0.414 0-0.75 0.336-0.75 0.75s0.336 0.75 0.75 0.75h7.5c0.414 0 0.75-0.336 0.75-0.75s-0.336-0.75-0.75-0.75z"></path>
</svg>
