<!-- Generated by IcoMoon.io -->
<svg version="1.1" xmlns="http://www.w3.org/2000/svg" width="24" height="24" viewBox="0 0 24 24">
<title>map</title>
<path d="M23.278 3.164l-7.523-3.119-7.487 2.963-7.546-2.962c-0.065-0.019-0.127-0.026-0.187-0.026-0.308-0.002-0.535 0.228-0.535 0.574v19.453c0 0.412 0.325 0.841 0.722 0.951l7.555 2.981 7.477-3.035 7.524 2.956c0.064 0.018 0.128 0.026 0.187 0.026 0.307 0 0.535-0.228 0.535-0.574v-19.236c0-0.412-0.325-0.841-0.722-0.952zM9 4.245l6-2.351v17.848l-6 2.372v-17.868zM1.5 2.032l6 2.217v17.854l-6-2.444v-17.626zM22.5 21.984l-6-2.259v-17.808l6 2.587v17.48z"></path>
</svg>
