<!-- Generated by IcoMoon.io -->
<svg version="1.1" xmlns="http://www.w3.org/2000/svg" width="24" height="24" viewBox="0 0 24 24">
<title>menu</title>
<path d="M0.577 4.587c-0.192-0.192-0.286-0.436-0.286-0.731s0.094-0.539 0.286-0.731 0.436-0.286 0.731-0.286h21.384c0.295 0 0.539 0.094 0.731 0.286s0.286 0.436 0.286 0.731-0.094 0.539-0.286 0.731-0.436 0.286-0.731 0.286h-21.384c-0.295 0-0.539-0.094-0.731-0.286zM23.423 11.271c0.192 0.192 0.286 0.436 0.286 0.731s-0.094 0.539-0.286 0.731-0.436 0.286-0.731 0.286h-21.384c-0.295 0-0.539-0.094-0.731-0.286s-0.286-0.436-0.286-0.731 0.094-0.539 0.286-0.731 0.436-0.286 0.731-0.286h21.384c0.295 0 0.539 0.094 0.731 0.286zM23.423 19.413c0.192 0.192 0.286 0.436 0.286 0.731s-0.094 0.539-0.286 0.731-0.436 0.286-0.731 0.286h-21.384c-0.295 0-0.539-0.094-0.731-0.286s-0.286-0.436-0.286-0.731 0.094-0.539 0.286-0.731 0.436-0.286 0.731-0.286h21.384c0.295 0 0.539 0.098 0.731 0.286z"></path>
</svg>
