<!-- Generated by IcoMoon.io -->
<svg version="1.1" xmlns="http://www.w3.org/2000/svg" width="24" height="24" viewBox="0 0 24 24">
<title>microphone</title>
<path d="M11.974 16.5h0.178c2.085 0 3.598-1.538 3.598-3.655v-8.939c0-2.19-1.581-3.905-3.599-3.905h-0.178c-2.053 0-3.724 1.752-3.724 3.905v8.939c0 2.084 1.601 3.655 3.724 3.655zM9.75 3.905c0-1.326 0.998-2.405 2.224-2.405h0.178c1.196 0 2.098 1.034 2.098 2.405v8.939c0 1.289-0.843 2.155-2.099 2.155h-0.178c-1.309 0-2.224-0.886-2.224-2.155zM18.75 8.25c-0.414 0-0.75 0.336-0.75 0.75v3.119c0 4.463-1.593 6.631-4.869 6.631h-2.23c-4.284 0-4.901-3.606-4.901-6.631v-3.119c0-0.414-0.336-0.75-0.75-0.75s-0.75 0.336-0.75 0.75v3.119c0 5.168 2.154 8.131 6.401 8.131h0.349v2.25h-3.75c-0.414 0-0.75 0.336-0.75 0.75s0.336 0.75 0.75 0.75h9c0.414 0 0.75-0.336 0.75-0.75s-0.336-0.75-0.75-0.75h-3.75v-2.25h0.381c2.905 0 6.369-1.411 6.369-8.131v-3.119c0-0.414-0.336-0.75-0.75-0.75z"></path>
</svg>
