<!-- Generated by IcoMoon.io -->
<svg version="1.1" xmlns="http://www.w3.org/2000/svg" width="24" height="24" viewBox="0 0 24 24">
<title>mouse</title>
<path d="M12.037 0c-3.706 0-6.785 3.005-6.785 6.711v10.578c0 3.706 3.079 6.711 6.785 6.711s6.711-3.005 6.711-6.711v-10.578c0-3.706-3.005-6.711-6.711-6.711v-0zM17.248 17.289c0 2.873-2.338 5.211-5.211 5.211s-5.285-2.338-5.285-5.211v-10.578c0-2.873 2.412-5.211 5.285-5.211s5.211 2.338 5.211 5.211v10.578zM12.008 4.5c-0.414 0-0.75 0.336-0.75 0.75v3.75c0 0.414 0.336 0.75 0.75 0.75s0.75-0.336 0.75-0.75v-3.75c0-0.414-0.336-0.75-0.75-0.75z"></path>
</svg>
