<!-- Generated by IcoMoon.io -->
<svg version="1.1" xmlns="http://www.w3.org/2000/svg" width="24" height="24" viewBox="0 0 24 24">
<title>music-tone-alt</title>
<path d="M23.238 16.531c0-0.013 0.004-0.025 0.004-0.038v-15.626c0.009-0.082 0.006-0.167-0.014-0.252-0.064-0.349-0.368-0.614-0.736-0.614-0.138 0-0.266 0.040-0.377 0.105l-14.006 3.646c-0.252 0.063-0.439 0.251-0.516 0.484-0.058 0.106-0.094 0.226-0.094 0.356v13.413c-0.714-0.478-1.626-0.765-2.621-0.765-2.285 0-4.138 1.514-4.138 3.38s1.853 3.381 4.138 3.381c2.286 0 4.137-1.514 4.137-3.381 0-0.095-0.008-0.189-0.017-0.282v-15.268l12.744-3.317v12.504c-0.713-0.478-1.626-0.765-2.621-0.765-2.285 0-4.138 1.514-4.138 3.38s1.853 3.381 4.138 3.381c2.286 0 4.137-1.514 4.137-3.381-0-0.115-0.007-0.228-0.021-0.34zM4.894 22.494c-1.559 0-2.646-0.988-2.646-1.874s1.087-1.873 2.646-1.873c1.388 0 2.399 0.782 2.605 1.579v0.009c0 0.076 0.015 0.147 0.036 0.216 0.002 0.023 0.005 0.046 0.005 0.069 0 0.886-1.087 1.874-2.646 1.874zM19.114 18.746c-1.545 0-2.623-0.988-2.623-1.874s1.077-1.873 2.623-1.873c1.545 0 2.622 0.987 2.622 1.873s-1.077 1.874-2.622 1.874z"></path>
</svg>
