<!-- Generated by IcoMoon.io -->
<svg version="1.1" xmlns="http://www.w3.org/2000/svg" width="24" height="24" viewBox="0 0 24 24">
<title>music-tone</title>
<path d="M20 7.567l-7.349-7.349c-0.233-0.233-0.579-0.278-0.86-0.141-0.295 0.102-0.507 0.378-0.507 0.708v16.637c-0.797-0.59-1.842-0.952-2.992-0.952-2.491 0-4.512 1.686-4.512 3.764s2.021 3.766 4.512 3.766c2.492 0 4.511-1.686 4.511-3.766 0-0.092-0.009-0.182-0.017-0.273v-17.481l6.15 6.15c0.293 0.293 0.769 0.293 1.063 0s0.293-0.77 0-1.063zM8.275 22.487c-1.777 0-3.014-1.187-3.014-2.252s1.238-2.25 3.014-2.25c1.739 0 2.959 1.137 3.009 2.184v0.133c-0.050 1.047-1.27 2.185-3.009 2.185v0z"></path>
</svg>
