<!-- Generated by IcoMoon.io -->
<svg version="1.1" xmlns="http://www.w3.org/2000/svg" width="24" height="24" viewBox="0 0 24 24">
<title>mustache</title>
<path d="M18.575 17.26c-2.372 0-3.719-1.115-4.61-1.853-0.315-0.261-0.602-0.513-0.863-0.741-0.396-0.348-0.89-0.781-1.061-0.84-0.005 0-0.087-0.004-0.092-0.005-0.027 0.002-0.097 0.016-0.104 0.017-0.119 0.048-0.54 0.411-0.879 0.702-0.308 0.264-0.658 0.566-1.054 0.875l-0.072 0.055c-1.018 0.794-2.284 1.783-4.521 1.783-1.662 0-3.299-0.752-4.274-1.963-0.654-0.812-1.341-2.224-0.905-4.342 0.053-0.256 0.234-0.466 0.478-0.553 0.245-0.088 0.515-0.040 0.716 0.126 0.015 0.011 0.528 0.406 1.382 0.406 0.43 0 0.878-0.102 1.33-0.303 0.776-0.345 1.328-1.314 1.913-1.968 0.8-0.893 1.705-1.906 3.2-1.917 1.031 0 1.961 0.381 2.791 1.135 0.827-0.751 1.75-1.13 2.755-1.13 1.524 0.012 2.448 1.025 3.264 1.92 0.596 0.652 1.158 1.62 1.934 1.966 0.452 0.201 0.905 0.303 1.346 0.303 0.887 0 1.44-0.405 1.462-0.423 0.205-0.152 0.476-0.192 0.713-0.099s0.414 0.301 0.461 0.554c0.4 2.094-0.303 3.497-0.964 4.306-1.001 1.227-2.666 1.989-4.345 1.989zM11.971 12.325c0.023 0 0.086 0.002 0.108 0.004 0.001 0 0.11 0.008 0.11 0.009 0.008 0.001 0.070 0.009 0.077 0.010 0.542 0.077 1.045 0.518 1.808 1.187 0.251 0.22 0.527 0.462 0.83 0.714 0.814 0.675 1.828 1.514 3.671 1.514 1.248 0 2.475-0.553 3.202-1.444 0.478-0.585 0.726-1.281 0.742-2.078-0.352 0.11-0.779 0.192-1.272 0.192-0.648 0-1.301-0.145-1.942-0.43-1.059-0.47-1.786-1.618-2.427-2.321-0.808-0.887-1.345-1.43-2.155-1.437-1.081 0-1.778 0.68-2.21 1.192-0.141 0.167-0.347 0.263-0.564 0.263v0c-0.217 0-0.423-0.097-0.564-0.263-0.434-0.513-1.133-1.197-2.197-1.197-0.821 0.006-1.344 0.545-2.13 1.424-0.633 0.708-1.351 1.86-2.416 2.333-0.641 0.285-1.29 0.43-1.927 0.43-0.478 0-0.891-0.080-1.232-0.188-0.001 0.813 0.237 1.52 0.71 2.108 0.701 0.87 1.897 1.41 3.124 1.41 1.732 0 2.69-0.748 3.616-1.47l0.072-0.057c0.376-0.293 0.708-0.579 0.999-0.83 0.667-0.573 1.108-0.952 1.584-1.037v0c0 0 0.227-0.038 0.384-0.038z"></path>
</svg>
