<!-- Generated by IcoMoon.io -->
<svg version="1.1" xmlns="http://www.w3.org/2000/svg" width="24" height="24" viewBox="0 0 24 24">
<title>notebook</title>
<path d="M19.902 0h-14.953c-1.078 0-1.548 0.797-1.548 1.547v2.984h-0.819c-0.406 0-0.735 0.329-0.735 0.735s0.329 0.735 0.735 0.735h0.819v3.018h-0.749c-0.406 0-0.735 0.329-0.735 0.735s0.329 0.735 0.735 0.735h0.749v3.034h-0.765c-0.406 0-0.735 0.329-0.735 0.735s0.329 0.735 0.735 0.735h0.765v3.011h-0.765c-0.406 0-0.735 0.329-0.735 0.735s0.329 0.735 0.735 0.735h0.765v3.030c0 1.243 0.973 1.5 1.512 1.5h14.988c1.243 0 2.25-1.007 2.25-2.25v-19.5c0-1.243-1.007-2.25-2.25-2.25zM4.901 22.5l-0-3.030h0.781c0.406 0 0.735-0.329 0.735-0.735s-0.329-0.735-0.735-0.735h-0.782v-3.011h0.782c0.406 0 0.735-0.329 0.735-0.735s-0.329-0.735-0.735-0.735h-0.782v-3.034h0.798c0.406 0 0.735-0.329 0.735-0.735s-0.329-0.735-0.735-0.735h-0.798v-3.018h0.727c0.406 0 0.735-0.329 0.735-0.735s-0.329-0.735-0.735-0.735h-0.727v-2.984c0-0.018 0.002-0.032 0.004-0.045 0.012-0.001 0.026-0.002 0.044-0.002h11.953v21h-12.001zM20.652 21.75c0 0.414-0.336 0.75-0.75 0.75h-1.5v-21h1.5c0.414 0 0.75 0.336 0.75 0.75v19.5z"></path>
</svg>
