<!-- Generated by IcoMoon.io -->
<svg version="1.1" xmlns="http://www.w3.org/2000/svg" width="24" height="24" viewBox="0 0 24 24">
<title>note</title>
<path d="M18.726 22.493h-17.228v-18.726h10.524l1.515-1.459-0.039-0.039h-12c-0.827 0-1.498 0.671-1.498 1.498v18.726c0 0.827 0.671 1.498 1.498 1.498h17.228c0.827 0 1.498-0.671 1.498-1.498v-10.97l-1.498 1.43v9.54zM22.82 0.985c-0.676-0.648-1.422-0.976-2.218-0.976-1.246 0-2.154 0.804-2.401 1.051-0.351 0.346-10.28 10.261-10.28 10.261-0.078 0.079-0.135 0.176-0.164 0.284-0.269 0.994-1.617 5.407-1.63 5.451-0.070 0.226-0.007 0.473 0.159 0.637 0.119 0.12 0.279 0.184 0.443 0.184 0.064 0 0.129-0.009 0.193-0.029 0.046-0.015 4.6-1.488 5.349-1.712 0.099-0.029 0.188-0.083 0.263-0.155 0.473-0.467 9.6-9.452 10.338-10.215 0.764-0.788 1.143-1.607 1.129-2.437-0.014-0.819-0.412-1.608-1.18-2.344zM21.795 4.723c-0.417 0.43-3.681 3.655-9.701 9.586l-0.461 0.454c-0.69 0.213-2.343 0.745-3.592 1.148 0.402-1.328 0.885-2.933 1.1-3.692 1.286-1.285 9.793-9.778 10.117-10.098 0.063-0.063 0.637-0.615 1.345-0.615 0.401 0 0.788 0.183 1.181 0.56 0.47 0.451 0.712 0.883 0.718 1.288 0.008 0.416-0.23 0.877-0.707 1.369z"></path>
</svg>
