<!-- Generated by IcoMoon.io -->
<svg version="1.1" xmlns="http://www.w3.org/2000/svg" width="24" height="24" viewBox="0 0 24 24">
<title>options</title>
<path d="M21.007 14.958h-0.637c-0.052-0.014-0.098-0.037-0.15-0.047-1.341-0.206-2.4-1.322-2.489-2.63-0.103-1.462 0.731-2.7 2.091-3.103 0.178-0.052 0.366-0.089 0.548-0.136h0.638c0.042 0.014 0.080 0.037 0.127 0.042 1.238 0.202 2.18 1.092 2.447 2.311 0.019 0.094 0.047 0.188 0.070 0.281v0.638c-0.014 0.042-0.038 0.084-0.042 0.127-0.197 1.219-1.064 2.147-2.269 2.428-0.117 0.028-0.225 0.061-0.333 0.089zM2.988 9.042l0.638 0c0.052 0.014 0.098 0.037 0.15 0.042 1.35 0.211 2.405 1.331 2.489 2.653 0.094 1.458-0.75 2.691-2.114 3.089-0.173 0.052-0.352 0.089-0.525 0.131h-0.638c-0.042-0.014-0.080-0.038-0.122-0.047-1.219-0.225-2.016-0.933-2.395-2.114-0.052-0.155-0.080-0.319-0.122-0.478v-0.637c0.014-0.042 0.037-0.084 0.042-0.127 0.202-1.223 1.064-2.147 2.269-2.428 0.113-0.028 0.22-0.056 0.328-0.084zM11.679 9.042h0.637c0.052 0.014 0.098 0.037 0.15 0.047 1.345 0.211 2.428 1.373 2.484 2.686 0.066 1.477-0.825 2.728-2.198 3.080-0.145 0.037-0.291 0.070-0.436 0.103h-0.637c-0.052-0.014-0.098-0.038-0.15-0.047-1.345-0.206-2.428-1.373-2.489-2.686-0.070-1.477 0.825-2.728 2.198-3.080 0.15-0.038 0.295-0.070 0.441-0.103z"></path>
</svg>
