<!-- Generated by IcoMoon.io -->
<svg version="1.1" xmlns="http://www.w3.org/2000/svg" width="24" height="24" viewBox="0 0 24 24">
<title>options-vertical</title>
<path d="M9.042 21.007v-0.637c0.014-0.052 0.037-0.098 0.047-0.15 0.206-1.341 1.322-2.4 2.63-2.489 1.463-0.103 2.7 0.731 3.103 2.091 0.052 0.178 0.089 0.366 0.136 0.548v0.638c-0.014 0.042-0.037 0.080-0.042 0.127-0.202 1.238-1.092 2.18-2.311 2.447-0.094 0.019-0.188 0.047-0.281 0.070h-0.637c-0.042-0.014-0.084-0.038-0.127-0.042-1.219-0.197-2.147-1.064-2.428-2.269-0.028-0.117-0.061-0.225-0.089-0.333zM14.958 2.988l-0 0.638c-0.014 0.052-0.038 0.098-0.042 0.15-0.211 1.35-1.331 2.405-2.653 2.489-1.458 0.094-2.691-0.75-3.089-2.114-0.052-0.173-0.089-0.352-0.131-0.525v-0.638c0.014-0.042 0.037-0.080 0.047-0.122 0.225-1.219 0.933-2.016 2.114-2.395 0.155-0.052 0.319-0.080 0.478-0.122h0.638c0.042 0.014 0.084 0.037 0.127 0.042 1.223 0.202 2.147 1.064 2.428 2.269 0.028 0.113 0.056 0.22 0.084 0.328zM14.958 11.679v0.637c-0.014 0.052-0.037 0.098-0.047 0.15-0.211 1.345-1.373 2.428-2.686 2.484-1.477 0.066-2.728-0.825-3.080-2.198-0.037-0.145-0.070-0.291-0.103-0.436v-0.637c0.014-0.052 0.038-0.098 0.047-0.15 0.206-1.345 1.373-2.428 2.686-2.489 1.477-0.070 2.728 0.825 3.080 2.198 0.038 0.15 0.070 0.295 0.103 0.441z"></path>
</svg>
