<!-- Generated by IcoMoon.io -->
<svg version="1.1" xmlns="http://www.w3.org/2000/svg" width="24" height="24" viewBox="0 0 24 24">
<title>organization</title>
<path d="M19.095 10.49h3.395c0.82 0 1.499-0.679 1.499-1.499v-7.493c0-0.82-0.679-1.499-1.499-1.499h-7.493c-0.82 0-1.499 0.679-1.499 1.499v7.493c0 0.82 0.679 1.499 1.499 1.499h2.646v0.89h-11.309v-0.89h2.669c0.82 0 1.499-0.679 1.499-1.499v-7.493c0-0.82-0.679-1.499-1.499-1.499h-7.493c-0.82 0-1.499 0.679-1.499 1.499v7.493c0 0.82 0.679 1.499 1.499 1.499h3.372v1.405c0 0.515 0.656 0.773 1.241 0.773h5.151v0.843h-3.231c-0.82 0-1.499 0.679-1.499 1.499v7.493c0 0.82 0.679 1.499 1.499 1.499h7.493c0.82 0 1.499-0.679 1.499-1.499v-7.493c0-0.82-0.679-1.499-1.499-1.499h-2.763v-0.866c1.943 0 3.138 0.023 5.081 0.023 0.585 0 1.241-0.234 1.241-0.773v-1.405zM22.49 8.991h-7.493v-7.493h7.493v7.493zM15.536 22.501h-7.493v-7.493h7.493v7.493zM9.003 8.991h-7.493v-7.493h7.493v7.493z"></path>
</svg>
