<!-- Generated by IcoMoon.io -->
<svg version="1.1" xmlns="http://www.w3.org/2000/svg" width="24" height="24" viewBox="0 0 24 24">
<title>paper-plane</title>
<path d="M23.552 0.008c-0.143 0-0.317 0.041-0.518 0.126l-22.394 9.502c-0.806 0.342-0.857 1.001-0.113 1.465l6.328 3.942c0.744 0.463 1.728 1.456 2.186 2.206l3.793 6.211c0.218 0.356 0.481 0.533 0.734 0.533 0.28 0 0.546-0.215 0.728-0.639l9.577-22.373c0.259-0.607 0.111-0.973-0.32-0.973zM7.636 13.705l-5.129-3.195 17.209-7.301-11.077 11.264c-0.339-0.3-0.682-0.568-1.003-0.768zM13.434 21.478l-3.060-5.009c-0.181-0.296-0.419-0.611-0.685-0.924l11.128-11.316z"></path>
</svg>
