<!-- Generated by IcoMoon.io -->
<svg version="1.1" xmlns="http://www.w3.org/2000/svg" width="24" height="24" viewBox="0 0 24 24">
<title>paper-clip</title>
<path d="M4.061 23.598c-1.016 0-1.991-0.42-2.768-1.198-1.723-1.729-1.723-4.541-0-6.269l13.438-14.27c2.097-2.1 5.308-1.911 7.652 0.435 1.050 1.052 1.639 2.569 1.617 4.163-0.022 1.577-0.638 3.087-1.692 4.142l-10.156 10.812c-0.283 0.303-0.757 0.317-1.058 0.033s-0.316-0.759-0.032-1.061l10.171-10.828c0.796-0.797 1.252-1.928 1.269-3.118s-0.413-2.314-1.179-3.081c-1.438-1.441-3.778-2.195-5.519-0.451l-13.438 14.27c-1.155 1.158-1.155 3.019-0.015 4.162 0.535 0.535 1.169 0.796 1.845 0.755 0.669-0.041 1.356-0.384 1.936-0.965l10.692-11.38c0.387-0.388 1.166-1.34 0.374-2.134-0.449-0.45-0.764-0.422-0.868-0.413-0.296 0.026-0.642 0.231-1.001 0.591l-8.048 8.559c-0.284 0.302-0.759 0.317-1.058 0.032-0.301-0.284-0.315-0.759-0.032-1.060l8.062-8.575c0.634-0.637 1.282-0.982 1.942-1.041 0.515-0.046 1.28 0.064 2.061 0.847 1.159 1.161 1.015 2.865-0.358 4.24l-10.692 11.379c-0.854 0.857-1.884 1.354-2.918 1.418-0.076 0.005-0.152 0.007-0.228 0.007z"></path>
</svg>
