<!-- Generated by IcoMoon.io -->
<svg version="1.1" xmlns="http://www.w3.org/2000/svg" width="24" height="24" viewBox="0 0 24 24">
<title>paypal</title>
<path d="M7.462 20.047h-5.053c-0.205 0-0.402-0.090-0.533-0.25s-0.185-0.365-0.148-0.57l3.24-17.623c0.193-0.964 0.984-1.604 1.977-1.604h7.776c3.125 0 5.229 1.997 5.229 4.971 0 2.998-2.067 8.596-7.042 8.596h-3.4l-1.37 5.943c-0.074 0.316-0.353 0.537-0.677 0.537zM3.242 18.664l3.67-0 1.366-5.943c0.074-0.316 0.353-0.537 0.677-0.537h3.954c3.949 0 5.656-4.774 5.656-7.21 0-2.211-1.472-3.584-3.843-3.584h-7.776c-0.193 0-0.533 0.062-0.615 0.48zM9.861 24l-5.053 0c-0.205 0-0.398-0.090-0.529-0.246s-0.189-0.365-0.152-0.566l0.648-3.691c0.066-0.377 0.422-0.627 0.8-0.562s0.627 0.427 0.562 0.8l-0.504 2.879h3.671l1.308-6c0.070-0.32 0.353-0.545 0.677-0.545h3.954c3.949 0 5.656-4.774 5.656-7.21 0-1.587-0.668-2.682-1.981-3.252-0.349-0.152-0.513-0.562-0.357-0.91 0.152-0.353 0.562-0.513 0.91-0.361 1.813 0.787 2.813 2.395 2.813 4.524 0 2.998-2.067 8.596-7.042 8.596h-3.396l-1.308 6c-0.070 0.32-0.353 0.545-0.677 0.545h0zM10.767 9.683h-1.362c-0.205 0-0.398-0.090-0.533-0.25-0.131-0.156-0.189-0.365-0.152-0.566l0.91-5.053c0.057-0.328 0.345-0.57 0.681-0.57h2.202c0.833 0 1.497 0.267 1.919 0.767 0.459 0.545 0.611 1.321 0.447 2.309-0.332 2.35-1.563 3.363-4.113 3.363zM10.234 8.297l0.533-0c2.059 0 2.543-0.738 2.748-2.19 0.066-0.406 0.094-0.927-0.135-1.202-0.193-0.23-0.578-0.275-0.865-0.275h-1.624l-0.656 3.666z"></path>
</svg>
