<!-- Generated by IcoMoon.io -->
<svg version="1.1" xmlns="http://www.w3.org/2000/svg" width="24" height="24" viewBox="0 0 24 24">
<title>pencil</title>
<path d="M22.577 1.187c-0.815-0.781-1.715-1.177-2.675-1.177-1.501 0-2.597 0.97-2.896 1.267-0.422 0.418-14.808 14.81-14.808 14.81-0.094 0.094-0.162 0.212-0.198 0.341-0.324 1.199-1.95 6.519-1.966 6.572-0.083 0.272-0.009 0.569 0.192 0.77 0.144 0.144 0.337 0.221 0.534 0.221 0.077 0 0.156-0.012 0.232-0.037 0.055-0.018 5.546-1.793 6.45-2.063 0.119-0.036 0.228-0.1 0.317-0.188 0.571-0.564 13.989-13.833 14.88-14.753 0.921-0.949 1.379-1.938 1.361-2.938-0.018-0.987-0.497-1.938-1.422-2.826zM16.767 3.67c0.381 0.092 1.281 0.394 2.199 1.321 0.928 0.936 1.179 2.007 1.226 2.25-2.943 2.927-9.717 9.63-12.387 12.271-0.247-0.574-0.645-1.266-1.286-1.912-0.783-0.789-1.58-1.235-2.194-1.485 2.643-2.643 9.544-9.548 12.443-12.445zM3.308 17.378c0.411 0.109 1.266 0.426 2.136 1.304 0.671 0.676 0.987 1.422 1.129 1.877-1.040 0.335-3.318 1.121-4.766 1.587 0.429-1.411 1.153-3.609 1.5-4.768zM21.552 5.881c-0.031 0.031-0.081 0.083-0.142 0.144-0.237-0.609-0.652-1.392-1.37-2.117-0.734-0.74-1.479-1.177-2.076-1.435 0.051-0.051 0.090-0.090 0.106-0.105 0.086-0.085 0.863-0.827 1.832-0.827 0.558 0 1.105 0.254 1.628 0.756 0.62 0.595 0.94 1.181 0.95 1.745 0.010 0.575-0.302 1.194-0.928 1.84z"></path>
</svg>
