<!-- Generated by IcoMoon.io -->
<svg version="1.1" xmlns="http://www.w3.org/2000/svg" width="24" height="24" viewBox="0 0 24 24">
<title>people</title>
<path d="M17.479 19.57l-4.717-2.613c1.753-1.379 2.229-4.090 2.229-5.61v-3.164c0-2.095-2.784-4.428-5.579-4.428s-5.652 2.334-5.652 4.428v3.164c0 1.382 0.585 4.178 2.356 5.598l-4.839 2.625s-1.264 0.563-1.264 1.266v1.899c0 0.699 0.567 1.266 1.264 1.266h16.203c0.698 0 1.265-0.567 1.265-1.266v-1.899c0-0.745-1.265-1.266-1.265-1.266zM17.245 22.501h-15.735v-1.34c0.108-0.078 0.258-0.169 0.376-0.223 0.035-0.016 0.070-0.033 0.104-0.052l4.839-2.625c0.441-0.239 0.734-0.683 0.778-1.183s-0.164-0.989-0.555-1.303c-1.257-1.007-1.795-3.239-1.795-4.429v-3.164c0-1.076 2.029-2.93 4.154-2.93 2.164 0 4.081 1.828 4.081 2.93v3.164c0 1.174-0.365 3.415-1.657 4.432-0.396 0.312-0.609 0.801-0.567 1.303s0.334 0.949 0.775 1.191l4.717 2.613c0.042 0.023 0.094 0.048 0.138 0.067 0.111 0.047 0.246 0.125 0.346 0.194v1.355zM22.723 15.839l-4.787-2.613c1.753-1.379 2.3-4.090 2.3-5.61v-3.164c0-2.095-2.854-4.452-5.649-4.452-1.817 0-3.675 0.988-4.756 2.253 0.617 0.038 1.297 0.039 1.884 0.226 0.789-0.615 1.788-0.98 2.872-0.98 2.164 0 4.151 1.851 4.151 2.953v3.164c0 1.174-0.435 3.415-1.727 4.432-0.396 0.312-0.609 0.801-0.567 1.303s0.334 0.949 0.775 1.191l4.787 2.613c0.042 0.023 0.094 0.048 0.138 0.067 0.111 0.047 0.246 0.125 0.346 0.194v1.333h-3.025c0.457 0.345 0.595 0.838 0.772 1.498h2.486c0.698 0 1.265-0.567 1.265-1.266v-1.875c-0-0.746-1.266-1.267-1.266-1.267z"></path>
</svg>
