<!-- Generated by IcoMoon.io -->
<svg version="1.1" xmlns="http://www.w3.org/2000/svg" width="24" height="24" viewBox="0 0 24 24">
<title>phone</title>
<path d="M5.937 0.598c0.902 1.244 1.978 2.85 3.222 4.813 0.314 0.531 0.265 1.167-0.14 1.915-0.154 0.313-0.545 1.027-1.167 2.151 0.685 0.965 1.727 2.151 3.13 3.55s2.571 2.445 3.502 3.13c1.119-0.656 1.838-1.056 2.151-1.215 0.405-0.217 0.796-0.328 1.167-0.328 0.28 0 0.531 0.063 0.748 0.188 1.432 0.873 3.053 1.949 4.857 3.222 0.342 0.251 0.535 0.593 0.584 1.027 0.048 0.439-0.087 0.902-0.395 1.404-0.154 0.217-0.405 0.535-0.748 0.96-0.342 0.42-0.859 0.95-1.543 1.587s-1.244 0.96-1.683 0.96h-0.048c-3.294-0.13-7.355-2.6-12.164-7.408-4.814-4.814-7.283-8.87-7.408-12.169 0-0.434 0.318-1.003 0.96-1.707 0.637-0.699 1.162-1.206 1.563-1.519 0.405-0.309 0.748-0.559 1.027-0.748 0.342-0.251 0.733-0.371 1.167-0.371 0.535 0 0.936 0.188 1.22 0.559zM4.394 1.577c-0.656 0.468-1.269 0.994-1.847 1.567-0.574 0.579-0.912 1.003-1.003 1.283 0.125 2.899 2.436 6.588 6.936 11.074s8.199 6.805 11.093 6.96c0.251-0.092 0.661-0.434 1.24-1.027s1.1-1.215 1.563-1.867c0.092-0.125 0.125-0.232 0.092-0.328-1.867-1.307-3.424-2.349-4.674-3.13-0.125 0-0.28 0.048-0.468 0.14-0.28 0.154-0.979 0.545-2.103 1.167l-0.796 0.468-0.796-0.516c-1.027-0.714-2.272-1.823-3.738-3.318-1.461-1.461-2.551-2.711-3.27-3.738l-0.559-0.748 0.468-0.839c0.622-1.119 1.013-1.823 1.167-2.103 0.092-0.188 0.14-0.342 0.14-0.468-1.109-1.77-2.137-3.328-3.072-4.669h-0.048c-0.121 0-0.232 0.034-0.323 0.092z"></path>
</svg>
