<!-- Generated by IcoMoon.io -->
<svg version="1.1" xmlns="http://www.w3.org/2000/svg" width="24" height="24" viewBox="0 0 24 24">
<title>picture</title>
<path d="M22.5 1.873h-21c-0.825 0-1.5 0.675-1.5 1.5v17.255c0 0.825 0.675 1.5 1.5 1.5h21c0.825 0 1.5-0.675 1.5-1.5v-17.255c0-0.825-0.675-1.5-1.5-1.5zM22.5 20.627l-21-0v-4.419l6.020-5.834 6.206 6.199c0.256 0.311 0.711 0.271 1.034 0.026l2.739-2.48 4.941 5.072c0.019 0.019 0.040 0.033 0.060 0.049v1.388zM22.5 17.105l-4.407-4.51c-0.267-0.264-0.686-0.291-0.983-0.064l-2.826 2.461-6.21-6.142c-0.133-0.161-0.324-0.258-0.532-0.272-0.207-0.008-0.41 0.060-0.562 0.202l-5.481 5.334v-10.741h21v13.732zM17.25 9.378c0.827 0 1.496-0.671 1.496-1.496s-0.669-1.496-1.496-1.496-1.496 0.671-1.496 1.496c0 0.826 0.669 1.496 1.496 1.496z"></path>
</svg>
