<!-- Generated by IcoMoon.io -->
<svg version="1.1" xmlns="http://www.w3.org/2000/svg" width="24" height="24" viewBox="0 0 24 24">
<title>pie-chart</title>
<path d="M13.491 2.189c-0.414 0-0.75 0.336-0.75 0.75s0.336 0.75 0.75 0.75c5.307 0 9.009 3.878 9.009 9.185s-4.318 9.626-9.625 9.626c-5.307 0-9.186-3.834-9.186-9.142 0-0.414-0.336-0.75-0.75-0.75s-0.75 0.336-0.75 0.75c0 6.135 4.551 10.642 10.686 10.642s11.125-4.991 11.125-11.125c0-6.134-4.375-10.685-10.509-10.685v-0zM11.256 10.506v-9.756c0-0.414-0.336-0.75-0.75-0.75-5.842 0-10.506 4.664-10.506 10.506 0 0.414 0.336 0.75 0.75 0.75h9.756c0.414 0 0.75-0.336 0.75-0.75zM9.756 9.756h-8.225c0.362-4.418 3.807-7.863 8.225-8.225v8.225z"></path>
</svg>
