<!-- Generated by IcoMoon.io -->
<svg version="1.1" xmlns="http://www.w3.org/2000/svg" width="24" height="24" viewBox="0 0 24 24">
<title>pin</title>
<path d="M23.781 8.899l-8.626-8.669c-0.186-0.187-0.454-0.263-0.71-0.199-0.256 0.062-0.459 0.254-0.538 0.505-0.519 1.671-0.579 3.183-0.183 4.562-0.036 0.025-0.071 0.052-0.103 0.085l-4.009 4.008c-1.293-0.6-2.684-0.924-4.070-0.924-0.881 0-1.745 0.13-2.567 0.386-0.25 0.078-0.442 0.281-0.505 0.535s0.011 0.523 0.196 0.71l5.131 5.164-7.173 7.288-0.624 1.643 1.508-0.583 7.342-7.288 5.197 5.231c0.142 0.144 0.335 0.221 0.532 0.221 0.059 0 0.119-0.008 0.179-0.021 0.256-0.063 0.459-0.255 0.538-0.506 0.679-2.184 0.48-4.53-0.476-6.633l4.093-4.094c0.015-0.015 0.025-0.031 0.038-0.047 0.618 0.177 1.258 0.271 1.922 0.271 0.825 0 1.7-0.118 2.6-0.398 0.25-0.078 0.442-0.281 0.505-0.535s-0.012-0.523-0.197-0.709zM14.135 19.314l-9.437-9.499c2.422-0.283 5.034 0.694 6.925 2.585 1.882 1.882 2.8 4.482 2.512 6.914zM14.067 13.044c-0.394-0.603-0.854-1.176-1.383-1.705-0.526-0.526-1.101-0.99-1.709-1.39l3.377-3.376c0.345 0.599 0.789 1.171 1.336 1.718 0.559 0.559 1.15 1.011 1.771 1.36zM16.747 7.231c-1.442-1.442-1.997-3.049-1.703-4.988l6.722 6.757c-1.937 0.278-3.552-0.302-5.019-1.769z"></path>
</svg>
