<!-- Generated by IcoMoon.io -->
<svg version="1.1" xmlns="http://www.w3.org/2000/svg" width="24" height="24" viewBox="0 0 24 24">
<title>plane</title>
<path d="M21.918 1.525c0.245 0 0.417 0.046 0.507 0.080 0.108 0.287 0.252 1.316-0.811 2.38l-5.424 5.424 0.039 0.673c0.082 1.408 0.235 3.932 0.366 6.095 0.116 1.926 0.226 3.744 0.233 3.899 0.004 0.106 0.005 0.132-0.094 0.251-0.222 0.269-0.635 0.726-0.984 1.104-0.541-1.457-1.677-4.533-2.304-6.256l-0.806-2.216-1.668 1.668-3.067 2.949-0.427 0.426-0.013 0.603c-0.010 0.481-0.008 1.345-0.007 2.107 0.002 0.531 0.003 1.013-0.001 1.278-0.007 0.012 0.103 0.027 0.092 0.045-0.065-0.105-0.136-0.218-0.21-0.336-0.618-0.986-1.474-2.35-1.735-2.776l-0.191-0.312-0.313-0.189c-1.14-0.688-2.402-1.483-3.172-1.979 0.027-0.015 0.048 0.066 0.066 0.057h0.050c0.242 0 0.643 0.005 1.092 0.012 0.587 0.008 1.253 0.018 1.763 0.018 0.195 0 0.369-0.001 0.509-0.005l0.603-0.014 0.426-0.426 2.953-3.046 1.662-1.661-2.206-0.812c-1.658-0.61-4.833-1.796-6.318-2.353 0.381-0.351 0.84-0.768 1.108-0.989 0.075-0.062 0.133-0.093 0.173-0.093l0.053 0.002c0.166 0.008 2.223 0.142 4.213 0.272 2.112 0.138 4.495 0.293 5.851 0.379l0.677 0.042 5.425-5.425c0.762-0.761 1.51-0.875 1.889-0.875zM21.918 0.022c-0.888 0-1.978 0.341-2.951 1.315l-4.945 4.945c-2.786-0.176-9.92-0.648-10.096-0.653-0.032-0.002-0.071-0.003-0.115-0.003-0.241 0-0.657 0.046-1.13 0.437-0.556 0.459-1.714 1.549-1.714 1.549-0.28 0.28-0.421 0.627-0.387 0.954 0.021 0.197 0.128 0.557 0.612 0.746 0.294 0.115 4.976 1.867 7.138 2.662l-2.953 3.046c-0.131 0.003-0.293 0.005-0.476 0.005-0.9 0-2.296-0.029-2.855-0.029-0.074 0-0.133 0-0.175 0.002-0.17 0.005-0.523-0.079-1.452 0.698l-0.066 0.062c-0.279 0.279-0.344 0.557-0.35 0.741-0.006 0.189 0.045 0.462 0.319 0.682 0.165 0.133 2.274 1.484 4.004 2.529 0.415 0.677 2.323 3.71 2.423 3.875 0.145 0.246 0.383 0.386 0.668 0.395h0.024c0.277 0 0.561-0.137 0.839-0.407 0.787-0.92 0.678-1.301 0.682-1.461 0.012-0.502-0.009-2.628 0.009-3.472l3.067-2.949c0.784 2.153 2.497 6.786 2.612 7.081 0.191 0.484 0.55 0.591 0.748 0.611 0.032 0.004 0.065 0.005 0.098 0.005 0.296 0 0.604-0.139 0.855-0.391 0 0 1.086-1.153 1.548-1.714s0.444-1.039 0.435-1.265c-0.004-0.156-0.439-7.252-0.6-10.022l4.947-4.947c1.753-1.754 1.474-3.867 0.823-4.517-0.287-0.289-0.869-0.508-1.58-0.508z"></path>
</svg>
