<!-- Generated by IcoMoon.io -->
<svg version="1.1" xmlns="http://www.w3.org/2000/svg" width="24" height="24" viewBox="0 0 24 24">
<title>playlist</title>
<path d="M0.797 1.499h10.495c0.414 0 0.75-0.336 0.75-0.75s-0.336-0.75-0.75-0.75h-10.495c-0.414 0-0.75 0.336-0.75 0.75s0.335 0.75 0.75 0.75zM0.797 5.997h10.495c0.414 0 0.75-0.336 0.75-0.75s-0.336-0.75-0.75-0.75h-10.495c-0.414 0-0.75 0.336-0.75 0.75s0.335 0.75 0.75 0.75zM12.041 9.745c0-0.414-0.336-0.75-0.75-0.75h-10.495c-0.414 0-0.75 0.336-0.75 0.75s0.336 0.75 0.75 0.75h10.495c0.414 0 0.75-0.336 0.75-0.75zM23.734 7.608l-7.33-7.33c-0.232-0.232-0.578-0.277-0.857-0.141-0.294 0.102-0.506 0.377-0.506 0.706v16.595c-0.795-0.589-1.837-0.949-2.984-0.949-2.485 0-4.5 1.681-4.5 3.755s2.015 3.756 4.5 3.756c2.486 0 4.5-1.682 4.5-3.756 0-0.094-0.009-0.186-0.017-0.278v-17.431l6.134 6.134c0.293 0.293 0.768 0.293 1.060 0s0.293-0.768 0-1.060zM15.040 20.317c-0.054 1.042-1.269 2.174-3.002 2.174-1.772 0-3.007-1.184-3.007-2.246s1.235-2.245 3.007-2.245c1.732 0 2.948 1.13 3.002 2.174v0.143z"></path>
</svg>
