<!-- Generated by IcoMoon.io -->
<svg version="1.1" xmlns="http://www.w3.org/2000/svg" width="24" height="24" viewBox="0 0 24 24">
<title>plus</title>
<path d="M12 0c-6.627 0-12 5.373-12 12s5.373 12 12 12c6.628 0 12-5.372 12-12s-5.372-12-12-12zM12 22.524c-5.79 0-10.5-4.734-10.5-10.524s4.71-10.5 10.5-10.5 10.5 4.71 10.5 10.5-4.71 10.524-10.5 10.524zM17.25 11.25h-4.5v-4.5c0-0.414-0.336-0.75-0.75-0.75s-0.75 0.336-0.75 0.75v4.5h-4.5c-0.414 0-0.75 0.336-0.75 0.75s0.336 0.75 0.75 0.75h4.5v4.5c0 0.414 0.336 0.75 0.75 0.75s0.75-0.336 0.75-0.75v-4.5h4.5c0.414 0 0.75-0.336 0.75-0.75s-0.336-0.75-0.75-0.75z"></path>
</svg>
