<!-- Generated by IcoMoon.io -->
<svg version="1.1" xmlns="http://www.w3.org/2000/svg" width="24" height="24" viewBox="0 0 24 24">
<title>power</title>
<path d="M16.447 3.85c-0.375-0.175-0.822-0.014-0.998 0.362s-0.014 0.822 0.361 0.998c3.809 1.783 5.877 5.911 5.029 10.039-1.007 4.901-5.811 8.067-10.712 7.063-2.374-0.488-4.322-1.87-5.656-3.893s-1.8-4.446-1.313-6.82c0.58-2.821 2.408-5.146 5.015-6.38 0.375-0.177 0.535-0.625 0.357-1s-0.624-0.533-0.999-0.357c-3.038 1.437-5.169 4.147-5.844 7.434-0.568 2.767-0.025 5.59 1.529 7.949 1.555 2.358 3.841 3.969 6.608 4.538 0.714 0.147 1.427 0.217 2.129 0.217 4.914 0 9.33-3.452 10.356-8.449 0.988-4.81-1.423-9.622-5.864-11.701zM12 9.76c0.414 0 0.751-0.336 0.751-0.751v-8.259c0-0.414-0.336-0.751-0.751-0.751s-0.751 0.336-0.751 0.751v8.259c0 0.414 0.336 0.751 0.751 0.751z"></path>
</svg>
