<!-- Generated by IcoMoon.io -->
<svg version="1.1" xmlns="http://www.w3.org/2000/svg" width="24" height="24" viewBox="0 0 24 24">
<title>present</title>
<path d="M24 7.512c0-0.828-0.672-1.5-1.5-1.5h-2.56c0.663-0.654 1.087-1.51 1.087-2.566 0-1.299-0.746-2.711-2.841-2.711-2.756 0-5.059 2.935-6.141 4.58-1.083-1.645-3.456-4.579-6.212-4.579-2.095 0-2.841 1.411-2.841 2.711 0 1.055 0.436 1.912 1.112 2.566h-2.604c-0.828 0-1.5 0.672-1.5 1.5v4.49h1.513v9.763c0 0.828 0.672 1.5 1.5 1.5h17.993c0.828 0 1.5-0.672 1.5-1.5v-9.764h1.494v-4.49zM18.185 2.235c0.927 0 1.341 0.39 1.341 1.211 0 1.666-1.86 2.565-3.609 2.565h-2.539c1.066-1.583 2.942-3.776 4.807-3.776zM5.833 2.235c1.866 0 3.812 2.193 4.878 3.776h-2.54c-1.749 0-3.679-0.922-3.679-2.588 0-0.821 0.414-1.187 1.341-1.187zM22.5 10.502h-9.75v-2.99h9.75v2.99zM1.5 7.512h9.75v2.99h-9.75zM3.013 12.002h8.237v9.763h-8.237zM21.006 21.765h-8.256v-9.763h8.256v9.763z"></path>
</svg>
