<!-- Generated by IcoMoon.io -->
<svg version="1.1" xmlns="http://www.w3.org/2000/svg" width="24" height="24" viewBox="0 0 24 24">
<title>printer</title>
<path d="M22.329 5.975h-2.829v-5.963h-14.999v5.963h-2.829c-0.921 0-1.671 0.75-1.671 1.672v10.168c0 0.922 0.75 1.672 1.671 1.672h2.829v4.5h14.999v-4.5h2.829c0.921 0 1.671-0.75 1.671-1.672v-10.168c0-0.922-0.75-1.672-1.671-1.672zM6 1.489h12v4.486h-12v-4.486zM18 22.488h-12v-8.259h12v8.259zM22.5 17.816c0 0.096-0.077 0.172-0.171 0.172h-2.829v-5.259h-14.999v5.258h-2.829c-0.095 0-0.171-0.077-0.171-0.172v-10.168c0-0.095 0.077-0.172 0.171-0.172h20.658c0.095 0 0.171 0.077 0.171 0.172zM19.499 8.987h-0.75c-0.414 0-0.75 0.336-0.75 0.75s0.336 0.75 0.75 0.75h0.75c0.414 0 0.75-0.336 0.75-0.75s-0.336-0.75-0.75-0.75z"></path>
</svg>
