<!-- Generated by IcoMoon.io -->
<svg version="1.1" xmlns="http://www.w3.org/2000/svg" width="24" height="24" viewBox="0 0 24 24">
<title>puzzle</title>
<path d="M12 23.994c-0.475 0-0.922-0.184-1.259-0.52l-10.222-10.222c-0.692-0.695-0.692-1.825-0.002-2.519l3.745-3.744c0.231-0.231 0.586-0.286 0.877-0.134 0.29 0.151 0.448 0.474 0.391 0.795-0.038 0.214-0.055 0.386-0.055 0.541 0 1.639 1.334 3.001 2.974 3.001 1.642 0 2.84-1.362 2.84-3.001 0-1.642-1.199-2.976-2.84-2.976-0.154 0-0.325 0.018-0.539 0.055-0.325 0.060-0.644-0.101-0.795-0.391s-0.097-0.646 0.135-0.877l3.491-3.492c0.676-0.673 1.846-0.672 2.519-0.001l2.556 2.558c0.534-1.658 2.091-2.862 3.923-2.862 2.272 0 4.121 1.849 4.121 4.122 0 1.833-1.203 3.39-2.862 3.923l2.483 2.482c0.693 0.695 0.693 1.826 0.001 2.52l-10.221 10.221c-0.338 0.337-0.785 0.521-1.26 0.521zM4.106 9.265l-2.527 2.526c-0.109 0.11-0.109 0.291 0.001 0.402l10.219 10.219c0.144 0.142 0.256 0.144 0.402-0.001l10.219-10.219c0.11-0.111 0.11-0.29-0.001-0.402l-3.604-3.602c-0.226-0.226-0.284-0.57-0.145-0.856s0.441-0.457 0.762-0.418l0.114 0.015c0.063 0.009 0.126 0.019 0.192 0.019 1.446 0 2.622-1.175 2.622-2.621 0-1.447-1.176-2.624-2.622-2.624s-2.621 1.177-2.621 2.624c0 0.060 0.009 0.118 0.018 0.177l0.016 0.134c0.034 0.316-0.135 0.619-0.422 0.756-0.285 0.136-0.628 0.078-0.852-0.147l-3.675-3.677c-0.144-0.142-0.256-0.144-0.402 0.001l-2.274 2.274c1.95 0.483 3.264 2.247 3.264 4.345 0 2.466-1.872 4.499-4.339 4.499-2.097-0-3.86-1.477-4.343-3.426z"></path>
</svg>
