<!-- Generated by IcoMoon.io -->
<svg version="1.1" xmlns="http://www.w3.org/2000/svg" width="24" height="24" viewBox="0 0 24 24">
<title>question</title>
<path d="M12 0c-6.627 0-12 5.373-12 12s5.373 12 12 12c6.628 0 12-5.372 12-12s-5.373-12-12-12zM12 22.523c-5.79 0-10.5-4.734-10.5-10.523s4.71-10.5 10.5-10.5 10.5 4.71 10.5 10.5-4.711 10.523-10.5 10.523zM10.897 18.761h1.887v-1.904h-1.887zM11.978 5.239c-1.099 0-2.004 0.296-2.715 0.888s-1.057 1.778-1.039 2.76l0.028 0.055h1.721c0-0.586 0.195-1.428 0.586-1.731s0.864-0.453 1.419-0.453c0.64 0 1.133 0.174 1.478 0.522s0.517 0.846 0.517 1.492c0 0.543-0.128 1.007-0.384 1.392s-0.687 0.934-1.291 1.648c-0.623 0.562-1.008 1.013-1.154 1.355s-0.223 0.955-0.228 1.84h1.804c0-0.555 0.035-0.964 0.105-1.227s0.27-0.558 0.599-0.888c0.708-0.683 1.277-1.351 1.708-2.005 0.43-0.653 0.645-1.373 0.645-2.161 0-1.099-0.332-1.955-0.998-2.568s-1.6-0.92-2.802-0.92z"></path>
</svg>
