<!-- Generated by IcoMoon.io -->
<svg version="1.1" xmlns="http://www.w3.org/2000/svg" width="24" height="24" viewBox="0 0 24 24">
<title>refresh</title>
<path d="M11.657 21.067c-0.002-0.005-0.006-0.008-0.009-0.011l-2.159-3.374c-0.153-0.252-0.486-0.341-0.745-0.2l-0.192 0.118c-0.259 0.141-0.253 0.506-0.1 0.758l1.384 2.147c-0.118-0.026-0.237-0.047-0.354-0.077-2.423-0.634-4.474-2.274-5.626-4.5-1.088-2.102-1.293-4.502-0.576-6.758s2.343-4.098 4.446-5.185c0.358-0.185 0.498-0.626 0.313-0.983-0.185-0.359-0.626-0.499-0.983-0.313-2.449 1.267-4.331 3.412-5.166 6.040s-0.597 5.423 0.67 7.871c1.342 2.591 3.73 4.502 6.553 5.241 0.032 0.008 0.065 0.013 0.098 0.021l-1.91 0.968c-0.259 0.142-0.344 0.461-0.191 0.713l0.074 0.192c0.154 0.252 0.419 0.341 0.677 0.2l3.496-1.79c0.005-0.003 0.009-0.002 0.014-0.005l0.234-0.128c0.13-0.071 0.215-0.187 0.25-0.317 0.036-0.13 0.019-0.274-0.057-0.399zM21.439 7.497c-1.34-2.591-3.654-4.501-6.477-5.24-0.201-0.053-0.407-0.094-0.612-0.134l1.875-0.951c0.259-0.142 0.413-0.461 0.259-0.713l-0.074-0.192c-0.154-0.252-0.487-0.341-0.745-0.2l-3.495 1.79c-0.004 0.003-0.009 0.002-0.014 0.005l-0.234 0.129c-0.13 0.071-0.215 0.187-0.25 0.317-0.036 0.13-0.019 0.274 0.058 0.399l0.139 0.228c0.002 0.004 0.006 0.007 0.009 0.012l2.159 3.374c0.153 0.252 0.486 0.341 0.745 0.2l0.169-0.118c0.259-0.141 0.275-0.506 0.123-0.757l-1.39-2.157c0.306 0.047 0.61 0.104 0.907 0.182 2.425 0.635 4.401 2.275 5.552 4.499 1.088 2.102 1.292 4.502 0.575 6.758s-2.27 4.097-4.373 5.186c-0.358 0.185-0.497 0.625-0.312 0.983 0.13 0.25 0.384 0.394 0.648 0.394 0.113 0 0.227-0.026 0.335-0.082 2.449-1.267 4.257-3.412 5.092-6.039 0.835-2.628 0.596-5.424-0.671-7.872z"></path>
</svg>
