<!-- Generated by IcoMoon.io -->
<svg version="1.1" xmlns="http://www.w3.org/2000/svg" width="24" height="24" viewBox="0 0 24 24">
<title>reload</title>
<path d="M11.988 0c-5.996 0-10.873 4.878-10.873 10.874 0 5.636 4.343 10.349 9.927 10.83l-2.153 1.091c-0.266 0.146-0.424 0.474-0.267 0.733l0.076 0.197c0.158 0.259 0.501 0.351 0.766 0.206l3.593-1.84c0.005-0.003 0.009-0.002 0.014-0.005l0.241-0.132c0.133-0.073 0.221-0.193 0.256-0.326 0.037-0.133 0.020-0.281-0.059-0.41l-0.143-0.234c-0.002-0.005-0.007-0.008-0.009-0.012l-2.219-3.468c-0.157-0.259-0.499-0.351-0.766-0.206l-0.174 0.122c-0.266 0.145-0.284 0.52-0.126 0.779l1.31 2.031c-0.007-0-0.014-0.003-0.020-0.003-4.905-0.322-8.747-4.431-8.747-9.353 0-5.169 4.205-9.374 9.373-9.374s9.398 4.205 9.398 9.374c0 2.976-1.367 5.709-3.75 7.499-0.331 0.249-0.398 0.719-0.149 1.050s0.719 0.398 1.050 0.149c2.764-2.076 4.349-5.247 4.349-8.699-0-5.996-4.902-10.874-10.898-10.874z"></path>
</svg>
