<!-- Generated by IcoMoon.io -->
<svg version="1.1" xmlns="http://www.w3.org/2000/svg" width="24" height="24" viewBox="0 0 24 24">
<title>rocket</title>
<path d="M4.938 20.672c-0.47 0.977-0.766 1.627-3.38 1.722 0.075-2.522 0.556-2.793 1.518-3.272 0.404-0.201 0.907-0.452 1.451-0.87l-0.91-1.162c-0.43 0.33-0.825 0.504-1.208 0.694-1.603 0.799-2.359 1.587-2.359 5.341l0.013 0.764 0.735-0.016c3.962 0 4.703-0.895 5.445-2.437 0.163-0.338 0.253-0.566 0.527-1.021l-1.108-1.007c-0.332 0.453-0.54 0.885-0.724 1.264zM16.507 4.447c-1.653 0-2.998 1.345-2.998 2.998s1.345 2.998 2.998 2.998 2.998-1.345 2.998-2.998c0-1.653-1.345-2.998-2.998-2.998zM16.507 8.942c-0.825 0-1.497-0.672-1.497-1.497s0.672-1.497 1.497-1.497 1.497 0.672 1.497 1.497c-0 0.826-0.672 1.497-1.497 1.497zM23.954 0.725c-0.023-0.373-0.318-0.672-0.691-0.7 0 0-4.183-0.305-8.208 1.198-1.47 0.549-2.68 1.419-3.81 2.736-0.942 1.098-1.878 3.084-2.704 4.733-0.319 0.636-0.624 1.245-0.883 1.71h-4.158c-0.214 0-0.417 0.092-0.559 0.252l-2.74 2.97c-0.175 0.198-0.233 0.473-0.152 0.724s0.288 0.443 0.545 0.501l4.46 1.020c0.304 0.375 0.81 0.937 1.62 1.836l1.69 1.873 0.91 3.848c0.060 0.253 0.248 0.458 0.496 0.539 0.075 0.024 0.154 0.037 0.231 0.037 0.176 0 0.349-0.062 0.487-0.18l2.769-2.755c0.166-0.142 0.261-0.349 0.261-0.567v-3.857c0.372-0.231 1.032-0.588 1.653-0.935 1.693-0.946 4.219-2.124 5.267-3.055 1.475-1.311 2.013-2.272 2.54-3.693 1.255-3.38 0.988-8.036 0.975-8.233zM21.577 8.437c-0.46 1.24-0.878 1.981-2.131 3.096-0.926 0.823-3.46 2.005-5.003 2.868-1.152 0.644-1.842 1.020-2.144 1.267-0.174 0.142-0.275 0.354-0.275 0.579v3.907l-1.577 1.733-0.672-2.84c-0.029-0.122-0.088-0.235-0.173-0.328-1.375-1.523-3.451-3.826-3.61-4.009-0.104-0.126-0.248-0.216-0.41-0.253l-3.424-0.783 1.68-1.775h4.252c0.26 0 0.501-0.135 0.637-0.356 0.329-0.536 0.71-1.297 1.153-2.179 0.749-1.494 1.68-3.47 2.502-4.429 0.971-1.134 1.958-1.846 3.198-2.309 2.759-1.031 5.605-1.139 6.907-1.129 0.024 1.378-0.028 4.574-0.908 6.943z"></path>
</svg>
