<!-- Generated by IcoMoon.io -->
<svg version="1.1" xmlns="http://www.w3.org/2000/svg" width="24" height="24" viewBox="0 0 24 24">
<title>screen-smartphone</title>
<path d="M16.503 0h-9.007c-1.243 0-2.25 1.007-2.25 2.25v19.5c0 1.243 1.007 2.25 2.25 2.25h9.007c1.243 0 2.25-1.007 2.25-2.25v-19.5c0-1.243-1.007-2.25-2.25-2.25zM17.253 21.75c0 0.414-0.336 0.75-0.75 0.75h-9.007c-0.414 0-0.75-0.336-0.75-0.75v-19.5c0-0.414 0.336-0.75 0.75-0.75h9.007c0.414 0 0.75 0.336 0.75 0.75v19.5zM12.001 18.754c-0.827 0-1.496 0.67-1.496 1.496s0.67 1.496 1.496 1.496c0.827 0 1.496-0.671 1.496-1.496s-0.669-1.496-1.496-1.496zM13.501 2.25h-3c-0.414 0-0.75 0.336-0.75 0.75s0.336 0.75 0.75 0.75h3c0.414 0 0.75-0.336 0.75-0.75s-0.336-0.75-0.75-0.75z"></path>
</svg>
