<!-- Generated by IcoMoon.io -->
<svg version="1.1" xmlns="http://www.w3.org/2000/svg" width="24" height="24" viewBox="0 0 24 24">
<title>settings</title>
<path d="M22.512 9.728l-1.925-0.427c-0.15-0.48-0.346-0.939-0.572-1.381l1.041-1.735c0.389-0.621 0.585-1.536 0-2.121l-1.061-1.060c-0.585-0.586-1.574-0.48-2.171-0.066l-1.688 1.076c-0.438-0.227-0.896-0.422-1.372-0.576l-0.432-1.948c-0.129-0.714-0.754-1.488-1.582-1.488h-1.5c-0.828 0-1.336 0.785-1.5 1.5l-0.481 1.925c-0.508 0.162-0.996 0.369-1.461 0.614l-1.731-1.102c-0.597-0.414-1.585-0.519-2.171 0.066l-1.061 1.060c-0.586 0.586-0.389 1.5 0 2.121l1.096 1.826c-0.205 0.414-0.388 0.842-0.528 1.29l-1.924 0.427c-0.715 0.129-1.488 0.753-1.488 1.582v1.5c0 0.828 0.785 1.336 1.5 1.5l1.949 0.487c0.135 0.413 0.303 0.81 0.494 1.195l-1.097 1.828c-0.389 0.621-0.585 1.535 0 2.121l1.061 1.061c0.585 0.586 1.574 0.48 2.171 0.067l1.734-1.105c0.468 0.247 0.958 0.456 1.47 0.617l0.48 1.92c0.164 0.715 0.672 1.5 1.5 1.5h1.5c0.828 0 1.453-0.774 1.582-1.488l0.433-1.953c0.471-0.152 0.923-0.344 1.356-0.569l1.692 1.078c0.597 0.414 1.586 0.519 2.171-0.067l1.061-1.061c0.585-0.586 0.389-1.5 0-2.121l-1.042-1.737c0.21-0.412 0.391-0.84 0.537-1.286l1.949-0.487c0.715-0.164 1.5-0.672 1.5-1.5v-1.5c0-0.828-0.773-1.453-1.488-1.582zM22.501 12.704c-0.064 0.046-0.184 0.109-0.336 0.144l-2.781 0.694-0.258 0.788c-0.117 0.355-0.267 0.715-0.448 1.071l-0.377 0.74 1.469 2.45c0.094 0.15 0.138 0.284 0.151 0.363l-0.987 0.985c-0.095-0.030-0.204-0.069-0.256-0.105l-2.469-1.575-0.768 0.397c-0.37 0.192-0.749 0.351-1.127 0.473l-0.818 0.264-0.618 2.792c-0.028 0.149-0.108 0.27-0.163 0.313h-1.35c-0.046-0.064-0.108-0.184-0.143-0.336l-0.69-2.761-0.799-0.253c-0.412-0.13-0.822-0.303-1.222-0.513l-0.771-0.407-2.469 1.574c-0.101 0.068-0.209 0.107-0.307 0.107l-0.984-0.957c0.013-0.078 0.054-0.206 0.136-0.337l1.534-2.556-0.365-0.735c-0.17-0.346-0.305-0.672-0.41-0.994l-0.258-0.789-2.754-0.688c-0.173-0.039-0.298-0.104-0.364-0.15v-1.395c0.001 0 0.002 0.001 0.003 0.001 0.025 0 0.149-0.088 0.251-0.107l2.829-0.627 0.26-0.827c0.106-0.337 0.25-0.688 0.441-1.073l0.365-0.735-1.518-2.529c-0.094-0.151-0.138-0.285-0.151-0.364l0.986-0.986c0.096 0.031 0.203 0.069 0.255 0.105l2.515 1.603 0.771-0.407c0.396-0.208 0.805-0.381 1.216-0.511l0.797-0.254 0.684-2.737c0.040-0.173 0.103-0.298 0.15-0.364h1.394c-0.010 0.015 0.086 0.146 0.106 0.255l0.63 2.845 0.817 0.264c0.383 0.124 0.768 0.285 1.142 0.479l0.768 0.399 2.418-1.54c0.101-0.069 0.21-0.107 0.307-0.107l0.984 0.957c-0.013 0.078-0.054 0.207-0.136 0.338l-1.485 2.472 0.379 0.741c0.204 0.4 0.36 0.775 0.476 1.147l0.259 0.828 2.772 0.615c0.168 0.031 0.298 0.128 0.326 0.18zM12.010 7.492c-2.491 0-4.517 2.022-4.517 4.508s2.027 4.507 4.517 4.507 4.517-2.022 4.517-4.507c0-2.485-2.026-4.508-4.517-4.508zM12 15c-1.654 0-3-1.346-3-3s1.346-3 3-3c1.655 0 3 1.345 3 3s-1.346 3-3 3z"></path>
</svg>
