<!-- Generated by IcoMoon.io -->
<svg version="1.1" xmlns="http://www.w3.org/2000/svg" width="24" height="24" viewBox="0 0 24 24">
<title>share-alt</title>
<path d="M21.243 22.369h-19.725v-15.173h6.107l1.534-1.478-0.039-0.039h-7.602c-0.838 0-1.517 0.679-1.517 1.517v15.173c0 0.838 0.679 1.517 1.517 1.517h19.725c0.838 0 1.517-0.679 1.517-1.517v-11.87l-1.517 1.448v10.422zM6.266 16.3l1.529-0c1.064-6.034 6.319-10.621 12.658-10.621 0.266 0 0.518 0.002 0.773 0.004l-2.78 2.779c-0.295 0.296-0.295 0.776 0 1.073 0.148 0.148 0.343 0.222 0.537 0.222s0.387-0.074 0.536-0.222l4.481-4.599-4.481-4.6c-0.296-0.296-0.776-0.296-1.073 0-0.295 0.296-0.295 0.776 0 1.073l2.754 2.754c-0.238-0-0.473-0.001-0.716-0.001-7.185 0-13.124 5.262-14.218 12.139z"></path>
</svg>
