<!-- Generated by IcoMoon.io -->
<svg version="1.1" xmlns="http://www.w3.org/2000/svg" width="24" height="24" viewBox="0 0 24 24">
<title>share</title>
<path d="M20.25 16.5c-1.235 0-2.327 0.6-3.010 1.521l-9.876-5.032c0.086-0.315 0.136-0.645 0.136-0.988 0-0.429-0.075-0.839-0.208-1.223l9.932-4.819c0.682 0.933 1.782 1.542 3.026 1.542 2.071 0 3.75-1.679 3.75-3.75s-1.679-3.75-3.75-3.75-3.75 1.679-3.75 3.75c0 0.291 0.037 0.573 0.099 0.846l-10.074 4.888c-0.686-0.756-1.673-1.234-2.775-1.234-2.071 0-3.75 1.679-3.75 3.75s1.679 3.75 3.75 3.75c1.193 0 2.253-0.558 2.94-1.427l9.917 5.054c-0.067 0.28-0.106 0.572-0.106 0.873 0 2.071 1.679 3.75 3.75 3.75s3.75-1.679 3.75-3.75-1.679-3.75-3.75-3.75zM20.25 1.5c1.242 0 2.25 1.008 2.25 2.25s-1.008 2.25-2.25 2.25-2.25-1.008-2.25-2.25 1.008-2.25 2.25-2.25zM3.75 14.25c-1.243 0-2.25-1.008-2.25-2.25s1.007-2.25 2.25-2.25c1.242 0 2.25 1.008 2.25 2.25s-1.008 2.25-2.25 2.25zM20.25 22.5c-1.242 0-2.25-1.008-2.25-2.25s1.008-2.25 2.25-2.25 2.25 1.008 2.25 2.25-1.008 2.25-2.25 2.25z"></path>
</svg>
