<!-- Generated by IcoMoon.io -->
<svg version="1.1" xmlns="http://www.w3.org/2000/svg" width="24" height="24" viewBox="0 0 24 24">
<title>shield</title>
<path d="M21.297 3.371c-0.279-0.26-0.646-0.404-1.025-0.404-0.035 0-0.069 0.002-0.103 0.004-0.021 0.001-0.263 0.016-0.641 0.016-0.626 0-1.848-0.042-3.005-0.327-1.495-0.367-3.22-2.070-3.721-2.406-0.252-0.169-0.544-0.253-0.835-0.253-0.29 0-0.582 0.085-0.834 0.252-0.061 0.041-1.867 1.973-3.634 2.407-1.156 0.285-2.402 0.327-3.027 0.327-0.378 0-0.619-0.015-0.643-0.016-0.033-0.002-0.066-0.004-0.099-0.004-0.38 0-0.748 0.145-1.028 0.406-0.304 0.284-0.477 0.681-0.477 1.097v3.757c0 13.891 9.089 15.68 9.476 15.75 0.088 0.015 0.177 0.024 0.266 0.024s0.178-0.008 0.266-0.024c0.386-0.070 9.542-1.858 9.542-15.75v-3.758c0.001-0.417-0.172-0.814-0.477-1.098zM20.273 8.227c0 12.794-8.305 14.27-8.305 14.27s-8.239-1.476-8.239-14.27v-3.758s0.284 0.020 0.744 0.020c0.788 0 2.114-0.058 3.385-0.37 2.081-0.511 4.11-2.616 4.11-2.616s2.119 2.105 4.198 2.616c1.272 0.313 2.575 0.37 3.363 0.37 0.459 0 0.744-0.020 0.744-0.020s0 0.478 0 3.757h0zM15.184 8.108c-0.293-0.293-0.769-0.293-1.062 0l-2.125 2.125-2.125-2.125c-0.293-0.293-0.769-0.293-1.063 0s-0.293 0.769 0 1.062l2.125 2.125-2.125 2.125c-0.293 0.293-0.293 0.769 0 1.062s0.769 0.293 1.063 0l2.125-2.125 2.125 2.125c0.293 0.293 0.769 0.293 1.062 0s0.293-0.769 0-1.062l-2.125-2.125 2.125-2.125c0.293-0.293 0.293-0.769 0-1.062z"></path>
</svg>
