<!-- Generated by IcoMoon.io -->
<svg version="1.1" xmlns="http://www.w3.org/2000/svg" width="24" height="24" viewBox="0 0 24 24">
<title>shuffle</title>
<path d="M9.415 10.073l0.925-1.302-3.165-4.319h-7.176v1.508h6.397zM21.586 5.961l-1.827 1.639c-0.22 0.211-0.291 0.552-0.071 0.763l0.129 0.19c0.221 0.211 0.577 0.211 0.797 0l3.010-2.722c0.004-0.004 0.009-0.005 0.013-0.008l0.199-0.191c0.11-0.106 0.165-0.244 0.164-0.384 0.001-0.138-0.054-0.277-0.164-0.382l-0.199-0.191c-0.004-0.004-0.008-0.005-0.013-0.009l-3.057-2.791c-0.221-0.211-0.576-0.211-0.797 0l-0.129 0.19c-0.221 0.211-0.149 0.552 0.071 0.762l1.792 1.625h-5.461l-9.645 13.573h-6.397v1.508h7.175l9.645-13.573zM23.636 18.248c-0.004-0.004-0.008-0.005-0.013-0.009l-3.057-2.791c-0.221-0.211-0.576-0.211-0.797 0l-0.129 0.19c-0.221 0.211-0.149 0.552 0.071 0.762l1.799 1.631-4.689-0.006-2.696-4.171-0.926 1.302 2.843 4.377 5.536 0.007-1.819 1.632c-0.22 0.211-0.291 0.552-0.071 0.763l0.129 0.19c0.221 0.211 0.577 0.211 0.797 0l3.010-2.722c0.004-0.004 0.009-0.005 0.013-0.008l0.199-0.191c0.11-0.106 0.165-0.244 0.164-0.384 0.001-0.138-0.054-0.277-0.164-0.382z"></path>
</svg>
