<!-- Generated by IcoMoon.io -->
<svg version="1.1" xmlns="http://www.w3.org/2000/svg" width="24" height="24" viewBox="0 0 24 24">
<title>size-fullscreen</title>
<path d="M16.071 8.984l6.444-6.404-0.021 3.63c-0.007 0.303 0.233 0.566 0.536 0.559l0.384-0c0.303-0.007 0.554-0.187 0.56-0.49l0.016-5.408c0-0.005-0.021-0.009-0.021-0.015l0.030-0.274c0.003-0.152-0.033-0.288-0.131-0.385-0.097-0.098-0.233-0.157-0.384-0.153l-0.274 0.006c-0.005 0-0.009 0.002-0.015 0.003l-5.372-0.024c-0.303 0.007-0.553 0.257-0.56 0.56l-0.001 0.384c0.046 0.357 0.327 0.566 0.629 0.559l3.541 0.009-6.421 6.382c-0.293 0.293-0.293 0.767 0 1.060s0.767 0.292 1.059 0zM7.952 15.016l-6.444 6.384 0.021-3.61c0.007-0.303-0.233-0.566-0.536-0.56l-0.408 0.001c-0.303 0.008-0.554 0.187-0.56 0.49l-0.016 5.408c0 0.005 0.021 0.009 0.021 0.015l-0.030 0.273c-0.003 0.152 0.032 0.288 0.131 0.385 0.097 0.098 0.233 0.157 0.384 0.154l0.274-0.007c0.005 0 0.009-0.002 0.015-0.002l5.396 0.024c0.303-0.008 0.553-0.258 0.56-0.56l0.001-0.385c-0.046-0.356-0.327-0.566-0.629-0.559l-3.541-0.009 6.421-6.381c0.293-0.293 0.293-0.767 0-1.059s-0.766-0.293-1.059-0zM23.991 23.129l-0.016-5.408c-0.007-0.303-0.257-0.483-0.56-0.49l-0.384-0.001c-0.303-0.007-0.543 0.257-0.536 0.56l0.021 3.63-6.444-6.404c-0.293-0.293-0.767-0.293-1.059 0s-0.293 0.767 0 1.059l6.421 6.381-3.54 0.009c-0.303-0.007-0.583 0.203-0.629 0.559l0.001 0.385c0.007 0.303 0.258 0.553 0.56 0.56l5.373-0.024c0.006 0 0.010 0.002 0.015 0.002l0.274 0.007c0.151 0.004 0.287-0.055 0.384-0.154 0.098-0.097 0.133-0.233 0.131-0.385l-0.030-0.273c0-0.006 0.021-0.009 0.021-0.015zM2.59 1.543l3.541-0.009c0.303 0.007 0.583-0.202 0.629-0.559l-0.001-0.385c-0.008-0.303-0.258-0.554-0.56-0.56l-5.396 0.023c-0.006-0.001-0.010-0.003-0.015-0.003l-0.274-0.006c-0.151-0.004-0.287 0.055-0.384 0.153-0.099 0.097-0.134 0.233-0.131 0.385l0.030 0.274c0 0.005-0.021 0.009-0.021 0.015l0.016 5.408c0.007 0.303 0.257 0.483 0.56 0.49l0.408 0c0.303 0.007 0.543-0.257 0.536-0.559l-0.021-3.61 6.444 6.384c0.292 0.293 0.767 0.293 1.059 0s0.293-0.767 0-1.060z"></path>
</svg>
