<!-- Generated by IcoMoon.io -->
<svg version="1.1" xmlns="http://www.w3.org/2000/svg" width="24" height="24" viewBox="0 0 24 24">
<title>size-actual</title>
<path d="M8.985 8.134l-0.016-5.407c-0.007-0.303-0.257-0.483-0.56-0.49l-0.384-0c-0.303-0.007-0.543 0.257-0.536 0.559l0.021 3.634-6.232-6.172c-0.292-0.292-0.767-0.292-1.059 0s-0.292 0.767 0 1.059l6.205 6.146-3.536 0.009c-0.303-0.007-0.583 0.202-0.629 0.559l0.001 0.384c0.007 0.303 0.258 0.553 0.56 0.56l5.371-0.024c0.006 0 0.010 0.003 0.015 0.003l0.274 0.006c0.151 0.004 0.287-0.055 0.384-0.153 0.098-0.097 0.134-0.233 0.131-0.385l-0.030-0.274c0-0.005 0.021-0.009 0.021-0.015zM15.136 8.807c0.097 0.098 0.233 0.157 0.384 0.153l0.274-0.006c0.005 0 0.009-0.002 0.015-0.003l5.371 0.024c0.303-0.007 0.553-0.257 0.56-0.56l0.001-0.384c-0.046-0.357-0.327-0.565-0.629-0.559l-3.536-0.009 6.205-6.146c0.292-0.292 0.292-0.767 0-1.059s-0.767-0.292-1.059 0l-6.232 6.172 0.021-3.633c0.007-0.303-0.233-0.566-0.536-0.559l-0.384 0c-0.303 0.007-0.553 0.187-0.56 0.49l-0.016 5.407c0 0.005 0.021 0.009 0.021 0.015l-0.030 0.274c-0.003 0.152 0.032 0.288 0.13 0.385zM8.864 15.17c-0.097-0.098-0.233-0.157-0.384-0.153l-0.274 0.007c-0.005 0-0.009 0.002-0.015 0.003l-5.372-0.024c-0.303 0.007-0.553 0.257-0.56 0.56l-0.001 0.385c0.046 0.356 0.327 0.565 0.629 0.558l3.54 0.009-6.209 6.17c-0.292 0.292-0.292 0.767 0 1.059s0.767 0.292 1.059 0l6.232-6.192-0.021 3.653c-0.007 0.303 0.233 0.566 0.536 0.559l0.384-0.001c0.303-0.008 0.553-0.187 0.56-0.49l0.016-5.407c0-0.005-0.021-0.009-0.021-0.014l0.030-0.297c0.003-0.152-0.032-0.288-0.13-0.385zM17.572 16.515l3.54-0.009c0.303 0.007 0.583-0.202 0.629-0.558l-0.001-0.385c-0.008-0.303-0.258-0.553-0.56-0.56h-5.371c-0.006-0-0.010-0.003-0.015-0.003l-0.321-0.006c-0.151-0.004-0.288 0.102-0.384 0.2-0.098 0.097-0.134 0.233-0.131 0.385l0.030 0.274c0 0.006-0.021 0.009-0.021 0.014l0.016 5.407c0.007 0.303 0.257 0.482 0.56 0.49l0.408 0.001c0.303 0.007 0.543-0.257 0.536-0.559l-0.021-3.617 6.255 6.156c0.292 0.292 0.767 0.292 1.059 0s0.292-0.767 0-1.059z"></path>
</svg>
