<!-- Generated by IcoMoon.io -->
<svg version="1.1" xmlns="http://www.w3.org/2000/svg" width="24" height="24" viewBox="0 0 24 24">
<title>social-dropbox</title>
<path d="M23.998 5.261c-0.017-0.24-0.147-0.457-0.351-0.584l-6.69-4.175c-0.272-0.169-0.62-0.148-0.869 0.054l-4.087 3.307-4.087-3.307c-0.248-0.201-0.599-0.224-0.869-0.054l-6.69 4.175c-0.204 0.128-0.334 0.345-0.351 0.584s0.081 0.473 0.265 0.628l3.876 3.257-3.32 2.608c-0.19 0.148-0.296 0.38-0.287 0.62s0.133 0.461 0.334 0.595l3.073 2.048c-0.151 0.137-0.247 0.333-0.247 0.554v3.011c0 0.261 0.136 0.503 0.358 0.64l7.553 4.28c0.12 0.074 0.257 0.111 0.393 0.111s0.273-0.038 0.394-0.111l7.466-4.28c0.222-0.137 0.357-0.379 0.357-0.639v-3.531c0-0.048-0.006-0.096-0.014-0.142l2.91-1.94c0.2-0.133 0.324-0.354 0.334-0.594s-0.096-0.471-0.285-0.62l-3.306-2.608 3.878-3.258c0.184-0.155 0.283-0.388 0.266-0.628zM17.271 9.153l-5.271 3.303-5.271-3.303 5.271-3.43zM2.025 5.404l5.36-3.345 3.34 2.702-5.333 3.471zM5.383 10.082l5.301 3.322-3.004 2.3-5.114-3.409zM5.197 15.853l2.096 1.397c0.266 0.178 0.617 0.166 0.872-0.029l3.036-2.323v6.634l-6.004-3.371v-2.309zM18.715 18.162l-6.012 3.418v-6.751l3.112 2.392c0.134 0.103 0.296 0.155 0.458 0.155 0.145 0 0.29-0.042 0.416-0.126l2.025-1.351v2.263h0zM21.418 12.293l-5.115 3.409-2.99-2.298 5.302-3.323zM18.608 8.233l-5.333-3.471 3.341-2.702 5.36 3.345z"></path>
</svg>
