<!-- Generated by IcoMoon.io -->
<svg version="1.1" xmlns="http://www.w3.org/2000/svg" width="24" height="24" viewBox="0 0 24 24">
<title>social-twitter</title>
<path d="M16.038 3.723c1.239 0 2.357 0.507 3.145 1.321 0.98-0.19 1.904-0.535 2.734-1.014-0.321 0.975-1.004 1.793-1.893 2.311 0.87-0.102 1.702-0.326 2.474-0.66-0.579 0.837-1.308 1.575-2.15 2.164 0.008 0.179 0.012 0.359 0.012 0.539 0 5.522-4.334 11.891-12.258 11.891-2.432 0-4.698-0.694-6.603-1.879 0.337 0.039 0.679 0.059 1.027 0.059 2.018 0 3.877-0.667 5.352-1.79-1.886-0.032-3.478-1.242-4.025-2.901 0.263 0.049 0.533 0.075 0.811 0.075 0.392 0 0.773-0.051 1.134-0.147-1.971-0.383-3.456-2.072-3.456-4.098v-0.054c0.581 0.313 1.245 0.501 1.952 0.523-1.157-0.75-1.917-2.028-1.917-3.478 0-0.766 0.213-1.485 0.584-2.1 2.124 2.527 5.299 4.191 8.88 4.366-0.074-0.305-0.112-0.627-0.112-0.952 0-2.308 1.929-4.179 4.309-4.179zM22.499 5.682v0zM16.038 2.224c-2.944 0-5.382 2.151-5.758 4.929-2.408-0.484-4.599-1.759-6.172-3.629-0.286-0.34-0.707-0.534-1.147-0.534-0.039 0-0.078 0.002-0.118 0.005-0.482 0.039-0.916 0.307-1.166 0.721-0.523 0.867-0.799 1.861-0.799 2.873 0 0.676 0.121 1.334 0.352 1.949-0.245 0.272-0.386 0.629-0.386 1.005v0.054c0 1.468 0.581 2.831 1.545 3.852-0.055 0.257-0.043 0.526 0.042 0.784 0.332 1.012 0.938 1.883 1.723 2.547-0.527 0.117-1.071 0.177-1.626 0.177-0.293 0-0.579-0.016-0.849-0.049-0.060-0.008-0.119-0.010-0.179-0.010-0.63 0-1.201 0.397-1.413 1.002-0.233 0.663 0.025 1.399 0.622 1.77 2.214 1.378 4.772 2.105 7.395 2.105 8.527 0 13.657-6.675 13.756-13.196 0.698-0.578 1.315-1.246 1.838-1.995 0.19-0.25 0.304-0.563 0.304-0.902 0-0.51-0.255-0.961-0.644-1.232 0.168-0.577-0.024-1.201-0.492-1.583-0.274-0.223-0.609-0.336-0.946-0.336-0.258 0-0.516 0.066-0.749 0.201-0.495 0.286-1.025 0.512-1.584 0.674-1.010-0.76-2.262-1.183-3.547-1.183z"></path>
</svg>
