<!-- Generated by IcoMoon.io -->
<svg version="1.1" xmlns="http://www.w3.org/2000/svg" width="24" height="24" viewBox="0 0 24 24">
<title>social-reddit</title>
<path d="M15.599 17.15c-0.226-0.061-0.498 0.019-0.832 0.24l-0.033 0.028c-0.541 0.541-1.523 0.813-2.919 0.813s-2.379-0.273-2.919-0.813c-0.226-0.226-0.682-0.226-0.907 0-0.235 0.235-0.235 0.672 0.014 0.921 1.001 0.837 2.261 1.227 3.958 1.227 1.763 0 3.173-0.442 3.973-1.241 0.113-0.113 0.179-0.277 0.179-0.451 0-0.16-0.056-0.315-0.15-0.423-0.108-0.197-0.254-0.273-0.362-0.301zM10.277 13.615c0-1.039-0.874-1.984-1.838-1.984s-1.838 0.945-1.838 1.984c0 0.997 0.842 1.838 1.838 1.838s1.838-0.842 1.838-1.838zM15.481 11.777c-0.997 0-1.838 0.842-1.838 1.838s0.842 1.838 1.838 1.838 1.838-0.842 1.838-1.838-0.842-1.838-1.838-1.838zM21.052 8.843c-0.602 0-1.307 0.273-1.782 0.672-1.598-1.015-3.756-1.645-6.281-1.829l1.175-3.926 3.296 0.79c0.099 1.218 1.185 2.247 2.416 2.247 1.293 0 2.426-1.133 2.426-2.426s-1.133-2.426-2.426-2.426c-0.889 0-1.786 0.541-2.181 1.283l-3.921-0.983-0.056-0.005c-0.268 0-0.639 0.235-0.663 0.625l-1.551 4.8c-2.473 0.028-4.903 0.686-6.873 1.866-0.588-0.367-1.166-0.545-1.763-0.545-1.58 0-2.868 1.283-2.868 2.868 0 0.987 0.475 1.866 1.321 2.337v0.597c0 2.050 1.105 3.836 3.178 5.171 1.951 1.349 4.603 2.092 7.466 2.092s5.59-0.743 7.541-2.092c2.050-1.42 3.253-3.258 3.253-5.171v-0.611c0.611-0.536 1.241-1.495 1.241-2.473-0.005-1.58-1.363-2.863-2.948-2.863zM22.59 11.857c0 0.268-0.15 0.649-0.4 0.931-0.296-0.785-0.856-1.528-1.754-2.337 0.179-0.075 0.376-0.127 0.621-0.127 0.903-0.005 1.533 0.63 1.533 1.533zM21.269 14.79c0 1.833-1.387 3.225-2.534 4.062-1.993 1.227-4.335 1.876-6.775 1.876-2.52 0-4.988-0.682-6.77-1.871-1.758-1.171-2.684-2.576-2.684-4.067s0.926-2.896 2.684-4.067c1.81-1.204 4.161-1.871 6.624-1.871 2.52 0 4.988 0.682 6.77 1.871 1.754 1.171 2.684 2.576 2.684 4.067zM3.512 10.395c-0.757 0.602-1.401 1.406-1.852 2.318-0.183-0.296-0.329-0.588-0.329-0.856 0-0.903 0.63-1.533 1.533-1.533 0.306-0.005 0.494 0 0.649 0.071zM18.786 4.377c0-0.616 0.48-1.095 1.095-1.095s1.095 0.48 1.095 1.095-0.48 1.095-1.095 1.095c-0.616-0.005-1.095-0.484-1.095-1.095z"></path>
</svg>
