<!-- Generated by IcoMoon.io -->
<svg version="1.1" xmlns="http://www.w3.org/2000/svg" width="24" height="24" viewBox="0 0 24 24">
<title>social-pintarest</title>
<path d="M21.372 8.027c-0.095-4.654-3.9-8.027-9.057-8.027-0.558 0-1.126 0.040-1.694 0.121-4.132 0.573-7.303 3.548-7.896 7.399-0.422 2.744 0.462 6.041 3.383 6.785l0.422 0.106 0.246-0.357c0.085-0.121 0.834-1.226 0.714-2.141-0.060-0.457-0.337-0.739-0.503-0.905l-0.080-0.080c-0.457-0.719-0.648-1.935-0.457-2.955 0.462-2.513 2.558-4.338 5.212-4.539 0.186-0.015 0.372-0.020 0.553-0.020 2.749 0 4.609 1.639 4.74 4.172 0.121 2.448-0.613 4.679-1.92 5.825l-0.085 0.075c-0.307 0.271-0.548 0.488-1.050 0.563-0.131 0.020-0.261 0.030-0.382 0.030-1.005 0-1.553-0.663-1.573-1.317-0.025-0.734 0.266-1.538 0.578-2.393 0.382-1.050 0.779-2.141 0.633-3.267-0.156-1.166-1.216-2.076-2.418-2.076-0.307 0-0.618 0.060-0.92 0.171-2.181 0.829-2.503 3.684-1.704 5.986-0.191 0.91-0.437 1.809-0.699 2.759-0.779 2.86-1.588 5.82-0.975 9.288l0.136 0.769 0.719-0.297c0.699-0.292 1.076-0.935 1.387-1.468 0.060-0.101 0.121-0.201 0.176-0.297 1.020-1.603 1.593-3.518 2.036-5.378 1.101 0.829 2.227 1.096 3.83 0.92 4.433-0.483 6.735-5.232 6.65-9.454zM9.375 11.269l0.035-0.176-0.065-0.171c-0.684-1.804-0.528-4.001 0.915-4.549 0.156-0.060 0.317-0.090 0.472-0.090 0.588 0 1.106 0.432 1.176 0.985 0.111 0.824-0.221 1.719-0.568 2.674-0.337 0.925-0.689 1.88-0.653 2.86 0.040 1.226 1.045 2.528 2.825 2.528 0.186 0 0.377-0.015 0.573-0.045 0.87-0.131 1.352-0.558 1.699-0.87l0.080-0.070c1.583-1.392 2.483-4.011 2.342-6.831-0.171-3.408-2.89-5.619-6.635-5.338-3.232 0.246-5.78 2.478-6.348 5.559-0.246 1.327 0.010 2.88 0.633 3.86 0.075 0.116 0.161 0.206 0.241 0.286 0.055 0.060 0.146 0.146 0.151 0.186 0.020 0.171-0.085 0.523-0.266 0.87-1.82-0.774-2.332-3.222-2.021-5.237 0.503-3.297 3.247-5.85 6.831-6.348 0.513-0.070 1.025-0.106 1.523-0.106 4.443 0 7.725 2.86 7.801 6.8 0.075 3.669-1.84 7.781-5.524 8.188-0.251 0.025-0.488 0.040-0.709 0.040-1.337 0-2.056-0.462-2.92-1.322l-0.804-0.799-0.246 1.106c-0.472 2.101-1.020 4.297-2.106 6.006-0.070 0.111-0.141 0.231-0.211 0.357-0.025 0.045-0.050 0.090-0.080 0.131-0.201-2.684 0.462-5.117 1.111-7.484 0.266-0.98 0.548-2 0.749-3.001z"></path>
</svg>
