<!-- Generated by IcoMoon.io -->
<svg version="1.1" xmlns="http://www.w3.org/2000/svg" width="24" height="24" viewBox="0 0 24 24">
<title>social-linkedin</title>
<path d="M23.377 23.495h-4.874c-0.345 0-0.623-0.279-0.623-0.623v-7.849c0-2.692-1.388-2.692-1.847-2.692-1.233 0-1.757 0.973-1.927 1.393-0.080 0.189-0.118 0.51-0.118 0.959v8.194c0 0.345-0.279 0.623-0.623 0.623h-4.878c-0.165 0-0.326-0.066-0.444-0.184s-0.184-0.279-0.179-0.444c0-0.132 0.066-13.294 0-14.64-0.009-0.17 0.052-0.335 0.17-0.458s0.279-0.194 0.453-0.194h4.878c0.345 0 0.623 0.279 0.623 0.623v0.368c0.822-0.732 2.007-1.336 3.773-1.336 3.906 0 6.238 2.701 6.238 7.225v8.411c0 0.345-0.279 0.623-0.623 0.623h0zM19.126 22.248l3.632-0v-7.787c0-3.802-1.818-5.979-4.992-5.979-2.12 0-3.15 1.058-3.797 2.026-0.076 0.255-0.316 0.444-0.6 0.444h-0.033c-0.227 0-0.434-0.123-0.543-0.321-0.085-0.156-0.104-0.335-0.047-0.501v-1.308h-3.622c0.033 2.602 0 11.022-0.009 13.422h3.627v-7.566c0-0.628 0.066-1.081 0.208-1.426 0.548-1.355 1.7-2.172 3.079-2.172 1.965 0 3.093 1.436 3.093 3.939v7.23h0.005zM5.79 23.495h-4.878c-0.345 0-0.623-0.279-0.623-0.623v-14.668c0-0.345 0.279-0.623 0.623-0.623h4.878c0.345 0 0.623 0.279 0.623 0.623v14.668c0 0.345-0.279 0.623-0.623 0.623zM1.535 22.248h3.632v-13.421h-3.632v13.421zM3.353 6.824l-0.033-0c-1.922 0-3.32-1.332-3.32-3.164 0-1.828 1.421-3.159 3.386-3.159 1.932 0 3.311 1.294 3.348 3.145 0 1.847-1.421 3.178-3.381 3.178zM3.386 1.752c-1.28 0-2.139 0.77-2.139 1.913 0 1.124 0.85 1.913 2.073 1.913h0.033c1.275 0 2.135-0.77 2.135-1.913-0.024-1.157-0.85-1.913-2.102-1.913z"></path>
</svg>
