<!-- Generated by IcoMoon.io -->
<svg version="1.1" xmlns="http://www.w3.org/2000/svg" width="24" height="24" viewBox="0 0 24 24">
<title>social-steam</title>
<path d="M17.923 1.561c1.277 0 3.027 0.709 3.854 1.537l0.709 0.709c0.875 0.922 1.419 2.459 1.513 3.783v0.875c-0.189 2.743-2.104 4.824-4.327 5.58-1.277 0.449-1.679 0.189-2.057 0.473l-4.729 3.476c-0.213 0.166-0.284 0.189-0.402 0.284-0.331 2.672-2.672 4.162-4.989 4.162-1.679 0-3.31-0.78-4.185-2.459-0.307-0.591-0.331-0.804-0.449-1.088l-2.341-0.946c-0.189-0.071-0.426-0.213-0.473-0.497l-0.047-0.284v-5.036c0.024-0.497 0.307-0.757 0.686-0.757 0.095 0 0.189 0.024 0.307 0.047 1.442 0.591 2.908 1.135 4.327 1.75l0.378-0.166c0.78-0.331 1.23-0.378 2.081-0.378 0.118-0.166 0.284-0.402 0.378-0.544l2.104-3.003c0.166-0.213 0.733-1.017 0.922-1.348 0.142-2.104 0.804-3.192 2.104-4.516 1.017-0.969 2.814-1.655 4.634-1.655zM7.661 13.667c-0.804 0-1.040 0.095-1.986 0.497-0.118 0.047-0.236 0.071-0.331 0.071-0.284 0-0.567-0.166-0.804-0.26-1.159-0.473-2.341-0.946-3.5-1.419v4.469l2.341 0.946c0.591 0.284 0.449 0.804 0.851 1.537 0.662 1.301 1.963 1.892 3.287 1.892 1.797 0 3.594-1.111 3.901-3.121l0.047-0.26c0.071-0.449 0.378-0.567 0.78-0.875l4.753-3.476c0.686-0.497 1.253-0.236 2.341-0.615 1.844-0.638 3.452-2.365 3.618-4.658v-0.757c-0.071-1.064-0.544-2.294-1.23-3.098l-0.686-0.686c-0.828-0.757-2.199-1.253-3.547-1.253-0.709 0-1.442 0.142-2.081 0.449-2.010 0.993-3.098 2.601-3.287 5.107-0.142 0.26-0.899 1.348-1.040 1.537l-2.081 2.979c-0.355 0.378-0.355 0.922-0.946 0.993h-0.402zM7.448 20.359c-0.52 0-1.064-0.26-1.371-0.473-0.26-0.189-0.78-0.615-0.875-0.946 0.567 0.142 1.348 0.686 2.223 0.686 0.473 0 0.993-0.189 1.513-0.662 0.449-0.426 0.686-1.040 0.686-1.655-0.095-1.513-1.182-2.152-2.459-2.506 0.047-0.071 0.024-0.095 0.142-0.095h0.26c1.726 0 2.861 1.348 2.861 2.814 0 1.419-0.993 2.837-2.979 2.837zM14.613 7.827c0-1.726 1.395-3.145 3.121-3.145s3.145 1.419 3.145 3.145-1.419 3.121-3.145 3.121-3.121-1.395-3.121-3.121zM15.653 7.827c0 1.159 0.922 2.081 2.081 2.081s2.104-0.922 2.104-2.081-0.946-2.104-2.104-2.104-2.081 0.946-2.081 2.104z"></path>
</svg>
