<!-- Generated by IcoMoon.io -->
<svg version="1.1" xmlns="http://www.w3.org/2000/svg" width="24" height="24" viewBox="0 0 24 24">
<title>social-tumblr</title>
<path d="M12.375 1.499l-0 5.244h5.255v2.248h-5.232l-0.008 6.525c0 1.213 0.063 1.991 0.191 2.337 0.2 0.545 0.927 1.242 2.277 1.242 1.047 0 2.459-0.315 3.518-1.107v3.498c-0.883 0.421-1.704 0.591-2.419 0.76s-1.491 0.254-2.323 0.254c-0.926 0-3.6-0.025-4.697-2.82-0.198-0.503-0.296-1.233-0.296-2.19v-8.495h-3.018l0.015-2.299c0.999 0 3.997-0.607 3.997-5.198zM12.375 0l-2.74-0c-0.828 0-1.499 0.671-1.499 1.499 0 3.432-1.912 3.698-2.498 3.698-0.825 0-1.495 0.667-1.499 1.492l-0.015 2.299c-0.002 0.399 0.155 0.782 0.436 1.065s0.664 0.442 1.063 0.442h1.519v6.995c0 1.157 0.131 2.053 0.4 2.738 0.676 1.72 2.281 3.772 6.092 3.772 0.944 0 1.841-0.099 2.668-0.294l0.165-0.039c0.7-0.165 1.594-0.37 2.554-0.827 0.522-0.249 0.854-0.775 0.854-1.353v-3.498c0-0.567-0.32-1.086-0.828-1.34-0.212-0.107-0.442-0.159-0.671-0.159-0.318 0-0.634 0.101-0.898 0.299-0.892 0.668-2.034 0.808-2.619 0.808-0.6 0-0.823-0.217-0.872-0.275-0.025-0.118-0.097-0.557-0.097-1.804l0.005-5.025h3.734c0.828 0 1.499-0.671 1.499-1.499v-2.248c0-0.828-0.671-1.499-1.499-1.499h-3.756v-3.746c0-0.828-0.671-1.499-1.499-1.499v0z"></path>
</svg>
