<!-- Generated by IcoMoon.io -->
<svg version="1.1" xmlns="http://www.w3.org/2000/svg" width="24" height="24" viewBox="0 0 24 24">
<title>social-dribbble</title>
<path d="M12 0c-1.638 0-3.2 0.331-4.624 0.928-0.050 0.016-0.098 0.036-0.144 0.063-4.251 1.848-7.232 6.087-7.232 11.010 0 6.617 5.383 12 12 12 6.617 0 12-5.383 12-12 0-6.617-5.383-12-12-12zM22.499 12c0 0.084-0.005 0.167-0.006 0.25-1.15-0.305-4.066-0.878-7.663-0.088-0.317-0.724-0.669-1.467-1.062-2.223-0.033-0.063-0.065-0.124-0.098-0.186 3.849-1.485 5.485-3.486 6.162-4.736 1.658 1.858 2.668 4.304 2.668 6.983zM18.696 3.92c-0.35 0.825-1.619 2.955-5.739 4.5-1.85-3.382-3.288-5.409-4.094-6.44 0.991-0.311 2.044-0.479 3.137-0.479 2.543 0 4.877 0.909 6.696 2.419zM7.405 2.562c0.638 0.78 2.12 2.745 4.106 6.342-4.69 1.414-8.499 1.244-9.822 1.121 0.629-3.286 2.792-6.034 5.715-7.463h-0zM1.501 12c0-0.162 0.005-0.322 0.012-0.483 0.451 0.045 1.153 0.096 2.070 0.096 2.038 0 5.105-0.252 8.653-1.363 0.067 0.126 0.133 0.252 0.2 0.382 0.338 0.651 0.645 1.294 0.924 1.924-0.642 0.202-1.299 0.447-1.967 0.75-4.283 1.939-6.289 4.707-7.004 5.917-1.789-1.884-2.89-4.426-2.89-7.223zM5.53 20.26c0.381-0.721 2.125-3.613 6.483-5.587 0.656-0.297 1.302-0.534 1.932-0.725 1.424 3.619 1.918 6.603 2.068 7.752-1.237 0.514-2.592 0.799-4.013 0.799-2.439 0-4.685-0.839-6.47-2.239zM17.431 20.982c-0.216-1.445-0.754-4.16-2.016-7.402 3.481-0.693 6.237-0.013 6.932 0.189-0.521 3.053-2.362 5.663-4.916 7.213z"></path>
</svg>
