<!-- Generated by IcoMoon.io -->
<svg version="1.1" xmlns="http://www.w3.org/2000/svg" width="24" height="24" viewBox="0 0 24 24">
<title>social-youtube</title>
<path d="M22.038 4.454c-0.65-0.468-2.46-1.089-10.044-1.089-8.128 0-9.334 0.713-9.721 0.947-2.060 1.237-2.255 6.715-2.273 7.826 0.025 1.467 0.262 6.348 2.272 7.555 0.386 0.233 1.585 0.942 9.722 0.942 7.589 0 9.397-0.618 10.044-1.084 1.755-1.263 1.957-5.612 1.962-7.432-0.005-1.464-0.158-6.365-1.962-7.665zM21.163 18.335c-0.261 0.188-1.76 0.801-9.169 0.801-7.163 0-8.666-0.556-8.95-0.727-0.723-0.434-1.486-2.736-1.546-6.275 0.059-3.531 0.833-6.109 1.548-6.537 0.285-0.172 1.793-0.732 8.948-0.732 7.403 0 8.906 0.617 9.169 0.806 0.642 0.462 1.329 2.896 1.339 6.453-0.010 3.613-0.702 5.753-1.339 6.211zM16.88 11.411l-6.741-4.137c-0.232-0.14-0.52-0.143-0.755-0.011s-0.381 0.382-0.381 0.653v8.275c0 0.27 0.146 0.52 0.381 0.653 0.114 0.064 0.242 0.097 0.368 0.097 0.134 0 0.269-0.036 0.387-0.108l6.741-4.138c0.225-0.136 0.362-0.379 0.362-0.642s-0.137-0.506-0.362-0.642zM10.501 14.863v-5.621l4.542 2.81z"></path>
</svg>
