<!-- Generated by IcoMoon.io -->
<svg version="1.1" xmlns="http://www.w3.org/2000/svg" width="24" height="24" viewBox="0 0 24 24">
<title>social-google</title>
<path d="M16.776 8.323c-1.655-1.773-3.027-2.057-4.351-2.081h-0.047c-2.979 0-5.793 2.459-5.793 5.864 0 3.57 3.216 5.651 5.769 5.651h0.024c1.419 0 3.145-0.26 4.658-2.435h-5.817v-6.030l12.366 0.047c0.118 0.615 0.331 2.152 0.331 2.956 0 6.834-4.587 11.704-11.657 11.704-6.715 0-12.177-5.344-12.177-12.012s5.462-11.988 12.177-11.988c3.287 0 6.81 1.3 9.033 4.256zM12.355 10.522v3.641h6.219c-0.284 1.537-1.915 4.611-6.219 4.611-3.76 0-6.786-3.074-6.786-6.739 0-3.689 3.098-6.786 6.786-6.786 2.152 0 3.594 0.946 4.374 1.702l2.979-2.814c-1.892-1.773-4.374-2.837-7.354-2.837-6.053 0-10.971 4.753-10.971 10.735 0 5.935 4.918 10.711 10.971 10.711 6.384 0 10.522-4.374 10.522-10.451 0-0.686-0.047-1.23-0.142-1.773h-10.38z"></path>
</svg>
