<!-- Generated by IcoMoon.io -->
<svg version="1.1" xmlns="http://www.w3.org/2000/svg" width="24" height="24" viewBox="0 0 24 24">
<title>social-skype</title>
<path d="M22.916 13.464c0.076-0.532 0.114-1.074 0.114-1.611 0-6.135-4.99-11.13-11.13-11.13-0.513 0-1.036 0.038-1.545 0.105-1.008-0.542-2.148-0.827-3.298-0.827-3.84 0-6.962 3.122-6.962 6.958 0 1.131 0.276 2.248 0.803 3.241-0.081 0.547-0.124 1.103-0.124 1.654 0 6.135 4.99 11.13 11.13 11.13 0.432 0 0.87-0.024 1.297-0.076 1.117 0.713 2.41 1.093 3.745 1.093 3.84 0 6.958-3.122 6.958-6.958 0-1.264-0.342-2.5-0.989-3.579zM20.74 20.835c-1.012 1.012-2.362 1.573-3.797 1.573-1.060 0-2.082-0.309-2.961-0.893l-0.394-0.261-0.47 0.062c-0.399 0.052-0.808 0.076-1.212 0.076-1.288 0-2.538-0.252-3.712-0.751-1.136-0.48-2.158-1.169-3.032-2.044s-1.564-1.896-2.044-3.032c-0.499-1.174-0.751-2.424-0.751-3.712 0-0.504 0.038-1.012 0.119-1.511l0.067-0.428-0.209-0.38c-0.428-0.784-0.656-1.673-0.656-2.576 0-1.435 0.556-2.78 1.573-3.797 1.012-1.012 2.362-1.573 3.797-1.573 0.917 0 1.825 0.238 2.619 0.684l0.38 0.214 0.432-0.062c0.466-0.071 0.946-0.105 1.416-0.105 1.288 0 2.538 0.252 3.712 0.751 1.136 0.48 2.158 1.169 3.032 2.044s1.564 1.896 2.044 3.032c0.499 1.174 0.751 2.424 0.751 3.712 0 0.494-0.038 0.993-0.114 1.483l-0.071 0.466 0.252 0.404c0.528 0.851 0.808 1.83 0.808 2.832-0.005 1.43-0.566 2.78-1.578 3.792v0zM13.564 10.817l-2.253-0.508c-1.226-0.276-1.844-0.699-1.844-1.278 0-0.413 0.171-0.751 0.509-1.008s0.817-0.385 1.431-0.385c0.722 0 1.312 0.152 1.758 0.461 0.133 0.086 0.418 0.366 0.855 0.836 0.285 0.304 0.594 0.461 0.922 0.461 0.337 0 0.632-0.095 0.87-0.285 0.242-0.19 0.361-0.452 0.361-0.779 0-0.756-0.499-1.412-1.497-1.968-0.941-0.528-1.972-0.789-3.094-0.789-1.293 0-2.367 0.276-3.222 0.822-0.998 0.646-1.497 1.578-1.497 2.79 0 1.663 0.965 2.742 2.894 3.232l3.042 0.77c0.765 0.195 1.15 0.608 1.15 1.231 0 0.418-0.185 0.77-0.556 1.065-0.404 0.328-0.941 0.494-1.606 0.494-0.775 0-1.397-0.185-1.868-0.556-0.109-0.076-0.409-0.413-0.898-1.017-0.304-0.371-0.651-0.556-1.031-0.556-0.328 0-0.599 0.105-0.813 0.314s-0.318 0.475-0.318 0.803c0 0.746 0.399 1.402 1.198 1.968 0.927 0.68 2.177 1.017 3.735 1.017 1.573 0 2.785-0.356 3.64-1.069 0.808-0.656 1.212-1.545 1.212-2.661 0.014-1.796-1.017-2.932-3.080-3.403z"></path>
</svg>
