<!-- Generated by IcoMoon.io -->
<svg version="1.1" xmlns="http://www.w3.org/2000/svg" width="24" height="24" viewBox="0 0 24 24">
<title>social-spotify</title>
<path d="M9.789 7.282c3.629 0.099 6.423 0.517 9.014 1.831 0.366 0.188 0.808 0.455 0.953 0.793 0.136 0.315 0.056 0.972-0.174 1.136-0.324 0.235-0.977 0.347-1.315 0.174-2.667-1.38-5.507-1.822-8.451-1.704-1.178 0.047-2.362 0.268-3.521 0.493-0.756 0.15-1.38 0.066-1.601-0.714-0.239-0.826 0.347-1.249 1.052-1.38 1.582-0.282 3.183-0.498 4.042-0.629zM10.329 10.859c2.582 0.155 5.019 0.685 7.244 1.953 0.366 0.207 0.751 0.709 0.789 1.103 0.061 0.704-0.746 0.944-1.582 0.498-2.887-1.535-5.944-1.878-9.131-1.338-0.357 0.061-0.732 0.277-1.056 0.211-0.413-0.089-0.784-0.39-1.174-0.596 0.244-0.371 0.427-0.995 0.746-1.075 1.362-0.338 2.77-0.516 4.164-0.756zM9.85 14.446c2.695 0.042 4.686 0.455 6.512 1.488 0.474 0.268 1.033 0.624 0.573 1.202-0.183 0.23-0.93 0.258-1.258 0.080-2.357-1.258-4.854-1.413-7.427-1.089-0.427 0.052-0.854 0.244-1.263 0.202-0.39-0.042-0.756-0.305-1.131-0.469 0.258-0.315 0.474-0.845 0.789-0.911 1.249-0.277 2.531-0.404 3.207-0.502zM24 12c0 3.31-1.174 6.141-3.516 8.484s-5.169 3.516-8.484 3.516c-3.31 0-6.141-1.174-8.484-3.516s-3.516-5.169-3.516-8.484c0-3.31 1.174-6.141 3.516-8.484 2.347-2.343 5.174-3.516 8.484-3.516s6.141 1.174 8.484 3.516c2.343 2.343 3.516 5.174 3.516 8.484zM22.498 12c0-2.906-1.023-5.38-3.070-7.427-2.042-2.047-4.521-3.070-7.427-3.070-2.901 0-5.38 1.023-7.427 3.070s-3.070 4.521-3.070 7.427 1.023 5.39 3.070 7.451c2.047 2.061 4.521 3.094 7.427 3.094s5.38-1.033 7.427-3.094c2.047-2.061 3.070-4.545 3.070-7.451z"></path>
</svg>
