<!-- Generated by IcoMoon.io -->
<svg version="1.1" xmlns="http://www.w3.org/2000/svg" width="24" height="24" viewBox="0 0 24 24">
<title>social-vkontakte</title>
<path d="M0 6.19c0-0.901 0.617-1.257 1.376-1.304l3.534 0.024c0.213 0 0.403 0.142 0.474 0.356 0.806 2.609 1.802 4.221 2.988 6.047 0.071 0.142 0.19 0.213 0.308 0.213 0.095 0 0.19-0.047 0.261-0.166l0.071-0.261 0.024-4.103c0-0.593-0.285-0.688-0.949-0.783-0.261-0.047-0.427-0.285-0.427-0.522 0-0.047 0-0.095 0.024-0.142 0.332-1.020 1.375-1.542 2.846-1.542l1.328-0.024c1.091 0 2.087 0.474 2.087 1.874v5.383c0.095 0.071 0.19 0.119 0.308 0.119 0.19 0 0.427-0.119 0.617-0.427 1.233-1.731 2.632-3.794 2.822-4.885 0-0.047 0.024-0.071 0.047-0.119 0.261-0.522 0.925-0.877 1.209-0.972 0.047-0.024 0.119-0.047 0.213-0.047h3.676l0.237 0.024c0.356 0 0.617 0.237 0.735 0.451 0.213 0.332 0.166 0.688 0.19 0.83v0.166c-0.356 2.158-2.822 4.577-3.866 6.142-0.142 0.19-0.213 0.356-0.213 0.522 0 0.142 0.071 0.285 0.19 0.427l3.462 4.364c0.19 0.261 0.285 0.569 0.285 0.83 0 0.783-0.735 1.233-1.447 1.304l-0.403 0.024h-3.605c-0.071 0-0.119 0.024-0.19 0.024-0.403 0-0.735-0.213-0.972-0.451-0.759-0.925-1.494-1.874-2.229-2.798-0.142-0.19-0.19-0.213-0.332-0.308-0.166 0.688-0.308 1.399-0.474 2.111l-0.071 0.403c-0.119 0.427-0.427 0.877-0.996 0.996l-0.332 0.024h-2.324c-4.103 0-7.779-5.834-10.364-13.115-0.071-0.19-0.119-0.451-0.119-0.688zM14.253 12.332c-0.617 0-1.304-0.356-1.304-1.020v-5.455c0-0.64-0.285-0.877-1.067-0.877l-1.352 0.047c-0.759 0-1.186 0.119-1.542 0.356 0.545 0.261 1.043 0.617 1.043 1.613v4.174c-0.071 0.83-0.759 1.375-1.423 1.375-0.451 0-0.854-0.261-1.091-0.688-1.067-1.613-1.968-3.13-2.751-5.312l-0.213-0.617-3.154-0.024c-0.427 0-0.379 0.024-0.379 0.237 0 0.142 0.024 0.332 0.047 0.451l0.498 1.328c2.585 6.688 5.834 11.075 8.917 11.075h2.372c0.332 0 0.308-0.403 0.379-0.64l0.451-2.087c0.095-0.213 0.166-0.403 0.332-0.569 0.19-0.19 0.403-0.261 0.617-0.261 0.451 0 0.877 0.356 1.162 0.688l2.016 2.561c0.166 0.261 0.308 0.308 0.403 0.308h3.913c0.379 0 0.711-0.119 0.711-0.356 0-0.071-0.024-0.166-0.071-0.237l-3.439-4.292c-0.285-0.356-0.403-0.711-0.403-1.067 0-0.379 0.142-0.759 0.379-1.091 0.996-1.494 3.13-3.628 3.628-5.383l0.071-0.308c-0.024-0.119-0.024-0.213-0.047-0.332h-3.723c-0.237 0.095-0.427 0.237-0.569 0.427l-0.142 0.451c-0.545 1.518-2.040 3.605-3.107 5.051-0.356 0.332-0.759 0.474-1.162 0.474z"></path>
</svg>
