<!-- Generated by IcoMoon.io -->
<svg version="1.1" xmlns="http://www.w3.org/2000/svg" width="24" height="24" viewBox="0 0 24 24">
<title>social-github</title>
<path d="M3.728 12.244c-0.272 0-0.525-0.173-0.609-0.445-0.689-2.151-0.787-5.951 0.689-7.675-0.328-1.246-0.145-2.933 0.459-3.837 0.127-0.187 0.333-0.295 0.562-0.286 1.72 0.075 2.839 0.792 3.823 1.448 1.401-0.365 2.764-0.492 4.381-0.403 0.398 0.023 0.792 0.112 1.139 0.192 0.328 0.075 0.665 0.155 0.862 0.136 0.178-0.019 0.497-0.234 0.754-0.412 0.239-0.164 0.492-0.333 0.754-0.45 0.75-0.328 1.424-0.478 2.333-0.511 0.351-0.009 0.651 0.262 0.665 0.618s-0.262 0.651-0.618 0.661c-0.754 0.028-1.26 0.136-1.865 0.403-0.155 0.070-0.347 0.197-0.548 0.337-0.398 0.272-0.853 0.581-1.359 0.628-0.408 0.037-0.829-0.056-1.274-0.164-0.309-0.070-0.633-0.145-0.918-0.164-1.579-0.089-2.891 0.047-4.25 0.436-0.178 0.052-0.37 0.023-0.529-0.084l-0.159-0.108c-0.857-0.567-1.668-1.11-2.853-1.256-0.295 0.754-0.333 2.005-0.037 2.746 0.103 0.253 0.028 0.548-0.178 0.722-1.157 0.984-1.303 4.465-0.614 6.625 0.108 0.337-0.080 0.698-0.417 0.806-0.066 0.028-0.131 0.038-0.192 0.038zM8.601 18.569c-0.047 0-0.094-0.005-0.141-0.014-0.347-0.075-0.562-0.417-0.487-0.764l0.042-0.183c0.197-0.89 0.38-1.607 0.595-2.141-2.629-0.548-4.545-1.799-5.454-3.57-0.159-0.314-0.037-0.703 0.276-0.862s0.703-0.037 0.862 0.276c0.82 1.598 2.75 2.68 5.44 3.050 0.258 0.037 0.469 0.225 0.534 0.473 0.066 0.253-0.028 0.52-0.239 0.675-0.136 0.122-0.384 0.633-0.764 2.371l-0.042 0.187c-0.066 0.295-0.328 0.501-0.623 0.501zM7.42 23.26c-0.042 0-0.080-0.005-0.122-0.014-0.347-0.070-0.576-0.394-0.506-0.74 0.117-0.595 0.534-0.843 0.782-0.989 0.169-0.098 0.22-0.136 0.248-0.201 0.145-0.309 0.108-1.11 0.075-1.752-0.014-0.272-0.028-0.548-0.033-0.815-1.485 0.258-3.097 0.337-3.95-1.073-0.169-0.281-0.276-0.567-0.375-0.825-0.112-0.291-0.206-0.544-0.361-0.731-0.225-0.272-0.183-0.675 0.089-0.9s0.675-0.187 0.9 0.089c0.286 0.351 0.436 0.745 0.567 1.092 0.084 0.225 0.164 0.436 0.272 0.614 0.459 0.759 1.462 0.712 3.392 0.323 0.201-0.042 0.408 0.019 0.558 0.155 0.15 0.141 0.225 0.342 0.201 0.543-0.047 0.408-0.019 0.942 0.005 1.457 0.047 0.904 0.089 1.757-0.197 2.362-0.206 0.436-0.539 0.633-0.759 0.759-0.061 0.037-0.155 0.089-0.173 0.112-0.042 0.314-0.309 0.534-0.614 0.534zM16.735 23.138c-0.211 0-0.412-0.103-0.539-0.29-0.052-0.084-0.127-0.136-0.258-0.225-0.206-0.145-0.487-0.342-0.698-0.75-0.38-0.745-0.319-1.827-0.258-2.971 0.037-0.703 0.075-1.429-0-2.001-0.066-0.483-0.234-0.698-0.469-0.998-0.15-0.197-0.323-0.417-0.459-0.708-0.089-0.192-0.075-0.412 0.028-0.595 0.108-0.183 0.295-0.3 0.506-0.314 2.404-0.178 4.301-1.312 5.215-3.107 0.159-0.314 0.544-0.44 0.862-0.281 0.314 0.159 0.44 0.544 0.281 0.862-0.975 1.926-2.835 3.224-5.187 3.669 0.211 0.309 0.417 0.703 0.497 1.307 0.094 0.689 0.052 1.476 0.009 2.235-0.047 0.881-0.098 1.879 0.122 2.319 0.056 0.112 0.127 0.164 0.286 0.276 0.173 0.117 0.408 0.281 0.6 0.576s0.108 0.693-0.187 0.886c-0.108 0.075-0.23 0.108-0.351 0.108zM20.375 12.113c-0.056 0-0.117-0.009-0.173-0.023-0.342-0.098-0.539-0.45-0.44-0.792 0.708-2.488 0.225-5.721-1.012-6.775-0.201-0.173-0.276-0.45-0.187-0.698 0.3-0.857 0.098-2.146-0.244-2.924-0.141-0.323 0.005-0.703 0.328-0.843s0.703 0.005 0.843 0.328c0.394 0.89 0.651 2.291 0.394 3.458 1.527 1.687 1.827 5.285 1.11 7.806-0.084 0.281-0.337 0.464-0.618 0.464zM14.621 24c-0.117 0-0.239-0.033-0.347-0.103-0.117-0.075-0.469-0.3-1.12-1.312-0.295-0.459-0.511-2.746-0.642-6.803-0.009-0.351 0.267-0.651 0.618-0.661s0.651 0.267 0.661 0.618c0.084 2.657 0.281 5.67 0.459 6.185 0.478 0.74 0.703 0.89 0.712 0.895 0.295 0.192 0.384 0.586 0.192 0.886-0.117 0.192-0.323 0.295-0.534 0.295zM9.763 24c-0.211 0-0.417-0.103-0.539-0.295-0.192-0.295-0.103-0.693 0.192-0.886 0.009-0.005 0.234-0.155 0.712-0.895 0.178-0.511 0.37-3.528 0.459-6.185 0.009-0.351 0.309-0.633 0.661-0.618 0.351 0.009 0.633 0.309 0.618 0.661-0.131 4.058-0.347 6.349-0.642 6.803-0.651 1.007-1.003 1.237-1.12 1.312-0.103 0.070-0.225 0.103-0.342 0.103z"></path>
</svg>
