<!-- Generated by IcoMoon.io -->
<svg version="1.1" xmlns="http://www.w3.org/2000/svg" width="24" height="24" viewBox="0 0 24 24">
<title>social-behance</title>
<path d="M8.825 10.134c0.369-0.225 0.557-0.631 0.557-1.202 0-0.631-0.248-1.057-0.739-1.263-0.412-0.14-0.945-0.21-1.581-0.21h-3.54v3.007h3.877c0.58 0 1.062-0.112 1.426-0.332zM8.442 8.932c0 0.215-0.037 0.355-0.108 0.398-0.215 0.131-0.528 0.196-0.94 0.196h-2.932v-1.127h2.6c0.519 0 0.94 0.051 1.249 0.15 0.047 0.023 0.131 0.061 0.131 0.384v0zM8.783 12.823c-0.318-0.145-0.772-0.225-1.342-0.229h-3.919v3.62h3.873c0.58 0 1.038-0.080 1.361-0.239 0.594-0.295 0.893-0.865 0.893-1.693 0.005-0.702-0.285-1.193-0.865-1.459v-0zM4.462 13.534h2.979c0.571 0.005 0.842 0.094 0.954 0.145 0.168 0.080 0.318 0.182 0.318 0.603 0 0.669-0.253 0.79-0.374 0.851-0.089 0.042-0.351 0.14-0.945 0.14h-2.932v-1.74zM19.765 11.013c-0.416-0.355-0.935-0.538-1.548-0.538-0.664 0-1.193 0.192-1.562 0.575-0.369 0.379-0.603 0.898-0.692 1.543l-0.005 0.042h4.513l-0.005-0.037c-0.051-0.697-0.285-1.23-0.702-1.585zM17.337 11.691c0.080-0.080 0.295-0.281 0.879-0.281 0.365 0 0.659 0.094 0.898 0.281h-1.777zM23.904 12.206c-0.14-0.903-0.454-1.712-0.931-2.409-0.44-0.655-0.987-1.169-1.637-1.543v-3.732h-6.23v3.77c-0.379 0.229-0.725 0.5-1.048 0.823-0.734 0.739-1.216 1.688-1.455 2.83-0.173-0.253-0.379-0.482-0.608-0.683 0.033-0.037 0.056-0.065 0.080-0.094 0.547-0.659 0.823-1.511 0.823-2.535 0-0.977-0.262-1.838-0.781-2.558-0.847-1.155-2.24-1.759-4.139-1.791h-7.979v15.107h7.502c0.73 0 1.426-0.065 2.063-0.201 0.711-0.15 1.338-0.43 1.866-0.837 0.468-0.351 0.856-0.786 1.165-1.296 0.122-0.192 0.229-0.393 0.318-0.603 0.309 0.753 0.758 1.375 1.356 1.857 1.16 0.935 2.516 1.408 4.032 1.408 1.843 0 3.311-0.58 4.364-1.726 0.697-0.739 1.094-1.506 1.188-2.282l0.061-0.524h0.065l0.014-0.889c0.023-0.87-0.009-1.576-0.089-2.091h0zM10.35 11.317l-0.075 0.037 0.080 0.028c0.669 0.243 1.179 0.631 1.52 1.16s0.514 1.179 0.514 1.927c0 0.776-0.196 1.483-0.589 2.105-0.248 0.412-0.561 0.758-0.931 1.038-0.416 0.318-0.921 0.543-1.487 0.659-0.575 0.122-1.202 0.182-1.871 0.182h-6.571v-13.231h7.001c1.604 0.023 2.755 0.496 3.419 1.403 0.402 0.557 0.603 1.23 0.603 2.011 0 0.8-0.206 1.45-0.608 1.936-0.229 0.271-0.566 0.519-1.006 0.744zM18.217 7.487c-0.234 0-0.463 0.009-0.683 0.033h-1.487v-2.058h4.354v2.058h-1.487c-0.229-0.019-0.463-0.033-0.697-0.033h0zM15.897 14.296c0.042 0.996 0.393 1.702 1.048 2.105 0.398 0.248 0.879 0.374 1.436 0.374 0.594 0 1.080-0.154 1.45-0.458 0.201-0.164 0.379-0.388 0.528-0.669h2.563c-0.080 0.561-0.393 1.137-0.94 1.716-0.87 0.945-2.105 1.422-3.676 1.422-1.296 0-2.455-0.402-3.442-1.202-0.987-0.795-1.487-2.114-1.487-3.91 0-1.684 0.454-2.998 1.342-3.896 0.758-0.762 1.721-1.207 2.867-1.324h1.277c0.594 0.061 1.146 0.201 1.646 0.426 0.678 0.304 1.244 0.79 1.684 1.445 0.398 0.575 0.659 1.258 0.776 2.020 0.070 0.449 0.098 1.090 0.084 1.913h-7.156v0.037h0zM19.241 15.587c-0.206 0.168-0.486 0.248-0.861 0.248-0.384 0-0.687-0.075-0.935-0.229-0.122-0.075-0.271-0.187-0.393-0.412h2.483c-0.094 0.178-0.192 0.309-0.295 0.393z"></path>
</svg>
