<!-- Generated by IcoMoon.io -->
<svg version="1.1" xmlns="http://www.w3.org/2000/svg" width="24" height="24" viewBox="0 0 24 24">
<title>social-stumbleupon</title>
<path d="M18.332 21.29c-3.097 0-5.64-2.519-5.664-5.616v-3.197c0-0.186 0.095-0.358 0.253-0.458s0.353-0.115 0.525-0.033l1.379 0.644 2.133-0.639c0.167-0.048 0.344-0.019 0.482 0.086s0.219 0.267 0.219 0.439v3.216c0 0.367 0.301 0.668 0.668 0.668s0.668-0.301 0.668-0.668v-3.278c0-0.143 0.057-0.282 0.157-0.386 0.1-0.1 0.239-0.157 0.386-0.157v0h3.917c0.301 0 0.544 0.243 0.544 0.544v3.178c-0.005 3.12-2.548 5.659-5.668 5.659zM13.756 13.336v2.338c0.024 2.495 2.076 4.528 4.576 4.528 2.524 0 4.576-2.052 4.576-4.576v-2.629h-2.829v2.734c0 0.969-0.787 1.756-1.756 1.756s-1.761-0.787-1.761-1.756v-2.486l-1.632 0.487c-0.129 0.038-0.267 0.029-0.386-0.029zM5.668 21.29c-3.125 0-5.668-2.538-5.668-5.664v-3.173c0-0.301 0.243-0.544 0.544-0.544h3.917c0.301 0 0.544 0.243 0.544 0.544v3.135c0 0.367 0.301 0.668 0.668 0.668s0.668-0.301 0.668-0.668v-7.396c0.11-3.082 2.591-5.482 5.654-5.482 3.078 0 5.559 2.414 5.654 5.492v1.637c0 0.243-0.157 0.453-0.391 0.525l-2.333 0.697c-0.129 0.038-0.267 0.029-0.386-0.029l-1.565-0.73c-0.191-0.091-0.315-0.282-0.315-0.496v-1.408c0-0.367-0.301-0.668-0.668-0.668s-0.668 0.301-0.668 0.668l-0.005 7.305c-0.033 3.082-2.572 5.587-5.649 5.587zM1.093 12.997l-0 2.629c0 2.524 2.052 4.576 4.576 4.576 2.486 0 4.533-2.023 4.566-4.509l0.005-7.295c0-0.969 0.787-1.756 1.756-1.756s1.756 0.787 1.756 1.756v1.059l1.064 0.496 1.746-0.52v-1.212c-0.076-2.472-2.080-4.418-4.561-4.418-2.472 0-4.476 1.937-4.561 4.409v7.377c0 0.969-0.787 1.756-1.756 1.756s-1.756-0.787-1.756-1.756v-2.591h-2.834z"></path>
</svg>
