<!-- Generated by IcoMoon.io -->
<svg version="1.1" xmlns="http://www.w3.org/2000/svg" width="24" height="24" viewBox="0 0 24 24">
<title>social-soundcloud</title>
<path d="M24 14.241c0 2.071-1.681 3.752-3.752 3.752h-1.502c-0.414 0-0.749-0.334-0.749-0.749s0.334-0.749 0.749-0.749h1.502c1.243 0 2.25-1.007 2.25-2.25s-1.007-2.25-2.25-2.25h-0.009c-0.975 0-1.808-0.621-2.118-1.488 0-0.005-0.009-0.009-0.009-0.019-0.584-1.643-2.095-2.848-3.907-2.98-0.391 0.024-0.701 0.348-0.701 0.744v8.987c0 0.414-0.334 0.749-0.749 0.749s-0.749-0.334-0.749-0.749v-8.987c0-1.233 0.993-2.231 2.222-2.246 2.448 0.141 4.501 1.747 5.291 3.959 0.005 0.005 0.009 0.009 0.014 0.009 0.099 0.301 0.381 0.518 0.711 0.518h0.009c0.042 0 0.085 0.005 0.122 0.005h0.024c2.001 0.080 3.601 1.723 3.601 3.743v0zM9.75 17.993c-0.414 0-0.749-0.334-0.749-0.749v-8.253c0-0.414 0.334-0.749 0.749-0.749s0.749 0.334 0.749 0.749v8.253c0 0.41-0.334 0.749-0.749 0.749v0zM6.746 17.993c-0.414 0-0.749-0.334-0.749-0.749v-8.629c0-0.414 0.334-0.749 0.749-0.749s0.749 0.334 0.749 0.749v8.625c0.005 0.414-0.334 0.753-0.749 0.753v0 0zM3.747 17.993c-0.414 0-0.749-0.334-0.749-0.749v-6.002c0-0.414 0.334-0.749 0.749-0.749s0.749 0.334 0.749 0.749v6.002c0 0.41-0.334 0.749-0.749 0.749v0zM0.749 16.491c-0.414 0-0.749-0.334-0.749-0.749v-2.999c0-0.414 0.334-0.749 0.749-0.749s0.749 0.334 0.749 0.749v2.999c0 0.414-0.334 0.749-0.749 0.749v0zM15.747 16.491c0.414 0 0.749 0.334 0.749 0.749s-0.334 0.749-0.749 0.749-0.749-0.334-0.749-0.749 0.334-0.749 0.749-0.749v0z"></path>
</svg>
