<!-- Generated by IcoMoon.io -->
<svg version="1.1" xmlns="http://www.w3.org/2000/svg" width="24" height="24" viewBox="0 0 24 24">
<title>social-foursqare</title>
<path d="M3.407 1.769c0.019-0.042 0.037-0.089 0.051-0.131 0.337-1.082 1.073-1.635 2.212-1.635 2.699-0.005 5.398 0 8.097 0h4.634c0.337 0 0.67 0.028 0.993 0.122 0.684 0.197 1.087 0.708 1.171 1.41 0.098 0.801-0.098 1.565-0.258 2.334-0.708 3.435-1.424 6.869-2.137 10.309-0.080 0.375-0.173 0.745-0.351 1.087-0.408 0.783-1.111 1.026-1.935 1.031-1.186 0.005-2.371 0.005-3.557 0-0.216 0-0.38 0.061-0.52 0.225-0.839 0.979-1.678 1.954-2.521 2.933-1.176 1.368-2.343 2.746-3.533 4.105-0.365 0.417-0.867 0.515-1.401 0.394-0.492-0.112-0.773-0.45-0.9-0.923-0.014-0.047-0.033-0.089-0.047-0.136v-21.124zM5.427 21.646c0.033-0.061 0.047-0.098 0.070-0.127 0.754-0.947 1.509-1.888 2.268-2.835 0.858-1.068 1.715-2.137 2.563-3.21 0.365-0.459 0.801-0.698 1.41-0.684 1.35 0.028 2.704 0.009 4.053 0.005 0.651 0 0.923-0.234 1.054-0.872 0.201-0.998 0.412-2.001 0.609-2.999 0.131-0.665-0.187-1.045-0.858-1.045-1.457 0-2.915-0.042-4.367 0.014-1.214 0.042-1.804-0.492-1.734-1.748 0.052-0.956 0.501-1.443 1.462-1.448h5.557c0.576 0 0.853-0.22 0.97-0.783 0.211-0.998 0.417-1.996 0.623-2.999 0.145-0.717-0.159-1.092-0.886-1.092h-11.911c-0.712 0-0.97 0.258-0.97 0.979v18.49c0 0.094-0.028 0.201 0.084 0.351z"></path>
</svg>
