<!-- Generated by IcoMoon.io -->
<svg version="1.1" xmlns="http://www.w3.org/2000/svg" width="24" height="24" viewBox="0 0 24 24">
<title>social-instagram</title>
<path d="M12 0c3.266 0 3.669 0.024 4.947 0.071 1.254 0.047 2.13 0.26 2.911 0.568 0.805 0.308 1.467 0.71 2.13 1.373s1.065 1.325 1.373 2.13c0.308 0.781 0.521 1.657 0.568 2.911 0.047 1.278 0.071 1.68 0.071 4.947s-0.024 3.669-0.071 4.947c-0.047 1.254-0.26 2.13-0.568 2.911-0.308 0.805-0.71 1.467-1.373 2.13s-1.325 1.065-2.13 1.373c-0.781 0.308-1.657 0.521-2.911 0.568-1.278 0.047-1.68 0.071-4.947 0.071s-3.669-0.024-4.947-0.071c-1.254-0.047-2.13-0.26-2.911-0.568-0.805-0.308-1.467-0.71-2.13-1.373s-1.065-1.325-1.373-2.13c-0.308-0.781-0.521-1.657-0.568-2.911-0.047-1.278-0.071-1.68-0.071-4.947s0.024-3.669 0.071-4.947c0.047-1.254 0.26-2.13 0.568-2.911 0.308-0.805 0.71-1.467 1.373-2.13s1.325-1.065 2.13-1.373c0.781-0.308 1.657-0.521 2.911-0.568 1.278-0.047 1.68-0.071 4.947-0.071zM12 1.562c-3.408 0-3.811 0.024-5.136 0.071-1.231 0.047-1.917 0.284-2.367 0.45-1.16 0.473-1.941 1.254-2.414 2.414-0.166 0.45-0.402 1.136-0.45 2.367-0.047 1.325-0.071 1.728-0.071 5.136s0.024 3.811 0.071 5.136c0.047 1.231 0.284 1.917 0.45 2.367 0.473 1.16 1.254 1.941 2.414 2.414 0.45 0.166 1.136 0.402 2.367 0.45 1.325 0.047 1.728 0.071 5.136 0.071s3.811-0.024 5.136-0.071c1.231-0.047 1.917-0.284 2.367-0.45 1.16-0.473 1.941-1.254 2.414-2.414 0.166-0.45 0.402-1.136 0.45-2.367 0.047-1.325 0.071-1.728 0.071-5.136s-0.024-3.811-0.071-5.136c-0.047-1.231-0.284-1.917-0.45-2.367-0.473-1.16-1.254-1.941-2.414-2.414-0.45-0.166-1.136-0.402-2.367-0.45-1.325-0.047-1.728-0.071-5.136-0.071zM12 16.805c2.651 0 4.805-2.154 4.805-4.805s-2.154-4.805-4.805-4.805-4.805 2.154-4.805 4.805 2.154 4.805 4.805 4.805zM12 5.846c3.408 0 6.154 2.746 6.154 6.154s-2.746 6.154-6.154 6.154-6.154-2.746-6.154-6.154 2.746-6.154 6.154-6.154zM19.858 5.609c0 0.805-0.663 1.42-1.467 1.42s-1.42-0.615-1.42-1.42 0.615-1.467 1.42-1.467 1.467 0.663 1.467 1.467z"></path>
</svg>
