<!-- Generated by IcoMoon.io -->
<svg version="1.1" xmlns="http://www.w3.org/2000/svg" width="24" height="24" viewBox="0 0 24 24">
<title>social-facebook</title>
<path d="M13.689 1.55c0.092 0 0.145 0.004 0.145 0.004h2.024l-0.010 2.325h-2.010c-1.106 0-1.081 0.945-1.081 0.945v3.686h3.914l-0.546 2.322h-3.381v11.619h-2.323l-0.002-11.619h-3.086l-0.006-2.322h3.093v-3.613c0-3.15 2.617-3.346 3.268-3.346zM15.858 1.554v0zM13.689 0c-0.557 0-1.646 0.092-2.678 0.714-0.976 0.587-2.14 1.791-2.14 4.182v2.063h-1.543c-0.412 0-0.807 0.164-1.098 0.456s-0.453 0.687-0.452 1.1l0.006 2.322c0.003 0.854 0.696 1.545 1.55 1.545h1.536l0.002 10.069c0 0.856 0.694 1.55 1.55 1.55h2.323c0.856 0 1.55-0.694 1.55-1.55v-10.069h1.831c0.688 0 1.293-0.453 1.487-1.113l0.546-2.322c0.138-0.468 0.046-0.975-0.247-1.365-0.292-0.391-0.752-0.622-1.24-0.622h-2.364v-1.529l1.541-0.001c0.853 0 1.546-0.689 1.55-1.543l0.010-2.246c0.002-0.029 0.002-0.057 0.002-0.086 0-0.856-0.692-1.55-1.548-1.55h-1.984c-0.045-0.002-0.109-0.004-0.189-0.004z"></path>
</svg>
