<!-- Generated by IcoMoon.io -->
<svg version="1.1" xmlns="http://www.w3.org/2000/svg" width="24" height="24" viewBox="0 0 24 24">
<title>speech</title>
<path d="M22.5 1.49h-21c-0.828 0-1.5 0.672-1.5 1.5v13.535c0 0.828 0.672 1.5 1.5 1.5h2.989v3.734c0 0.303 0.182 0.575 0.46 0.692 0.094 0.039 0.193 0.058 0.29 0.058 0.194 0 0.383-0.075 0.526-0.215l4.337-4.269h12.399c0.828 0 1.5-0.672 1.5-1.5v-13.535c0-0.828-0.672-1.5-1.5-1.5zM22.5 16.525h-13.013l-3.498 3.443v-3.443h-4.489v-13.535h21v13.535zM5.25 10.523h13.5c0.414 0 0.75-0.336 0.75-0.75s-0.336-0.75-0.75-0.75h-13.5c-0.414 0-0.75 0.336-0.75 0.75s0.336 0.75 0.75 0.75zM5.25 7.523h13.5c0.414 0 0.75-0.336 0.75-0.75s-0.336-0.75-0.75-0.75h-13.5c-0.414 0-0.75 0.336-0.75 0.75s0.336 0.75 0.75 0.75zM5.25 13.523h9c0.414 0 0.75-0.336 0.75-0.75s-0.336-0.75-0.75-0.75h-9c-0.414 0-0.75 0.336-0.75 0.75s0.336 0.75 0.75 0.75z"></path>
</svg>
