<!-- Generated by IcoMoon.io -->
<svg version="1.1" xmlns="http://www.w3.org/2000/svg" width="24" height="24" viewBox="0 0 24 24">
<title>speedometer</title>
<path d="M12 0.833c-6.617 0-12 5.383-12 12 0 4.157 2.105 7.96 5.63 10.171 0.351 0.222 0.814 0.115 1.035-0.237s0.115-0.815-0.237-1.035c-1.269-0.797-2.324-1.832-3.131-3.024l0.787-0.455c0.359-0.208 0.482-0.666 0.275-1.026s-0.668-0.482-1.026-0.275l-0.788 0.455c-0.573-1.185-0.922-2.483-1.016-3.835h0.836c0.415 0 0.751-0.336 0.751-0.751s-0.336-0.751-0.751-0.751h-0.832c0.099-1.377 0.464-2.682 1.046-3.862l0.755 0.436c0.118 0.068 0.247 0.101 0.375 0.101 0.259 0 0.512-0.135 0.651-0.375 0.208-0.359 0.084-0.819-0.275-1.026l-0.747-0.431c0.754-1.099 1.71-2.049 2.816-2.793l0.423 0.732c0.139 0.241 0.392 0.375 0.651 0.375 0.128 0 0.257-0.032 0.375-0.101 0.359-0.208 0.482-0.666 0.275-1.026l-0.421-0.729c1.158-0.558 2.433-0.907 3.778-1.005v0.936c0 0.415 0.336 0.751 0.751 0.751s0.751-0.336 0.751-0.751v-0.939c1.375 0.096 2.678 0.455 3.858 1.031l-0.407 0.705c-0.208 0.359-0.084 0.819 0.275 1.026 0.118 0.068 0.247 0.101 0.375 0.101 0.259 0 0.512-0.134 0.651-0.375l0.406-0.702c1.096 0.746 2.043 1.693 2.79 2.788l-0.703 0.406c-0.359 0.208-0.482 0.666-0.275 1.026 0.139 0.241 0.392 0.375 0.651 0.375 0.128 0 0.257-0.032 0.375-0.101l0.707-0.408c0.577 1.18 0.938 2.483 1.034 3.859h-0.825c-0.415 0-0.751 0.336-0.751 0.751s0.336 0.751 0.751 0.751h0.824c-0.095 1.335-0.436 2.615-0.997 3.785l-0.743-0.429c-0.359-0.208-0.819-0.084-1.026 0.275-0.208 0.359-0.084 0.819 0.275 1.026l0.746 0.431c-0.824 1.226-1.911 2.286-3.223 3.093-0.353 0.218-0.463 0.681-0.246 1.033 0.142 0.23 0.388 0.357 0.64 0.357 0.134 0 0.271-0.036 0.393-0.112 3.578-2.204 5.713-6.026 5.713-10.223 0-6.616-5.383-12-12-12zM17.541 10.492c0.359-0.208 0.482-0.666 0.275-1.026s-0.667-0.482-1.026-0.274l-4.079 2.355c-0.218-0.123-0.466-0.199-0.734-0.199-0.828 0-1.498 0.671-1.498 1.497s0.671 1.498 1.498 1.498c0.828 0 1.498-0.671 1.498-1.498 0-0.001-0-0.003-0-0.005z"></path>
</svg>
