<!-- Generated by IcoMoon.io -->
<svg version="1.1" xmlns="http://www.w3.org/2000/svg" width="24" height="24" viewBox="0 0 24 24">
<title>star</title>
<path d="M12 1.824l3.219 6.676 7.321 1.088-5.302 5.289 0.178 1.061 1.060 6.327-6.478-3.484-6.478 3.486 1.061-6.328 0.178-1.061-5.301-5.29 7.321-1.088 0.481-0.996zM12 0.374c-0.671 0-1.283 0.379-1.569 0.971l-2.714 5.636-6.246 0.929c-0.641 0.096-1.174 0.534-1.381 1.133-0.206 0.601-0.050 1.262 0.403 1.713l4.576 4.571-1.062 6.339c-0.107 0.639 0.169 1.279 0.711 1.653 0.298 0.205 0.648 0.308 0.998 0.308 0.289 0 0.577-0.070 0.838-0.21l5.445-2.932 5.445 2.932c0.262 0.14 0.55 0.21 0.838 0.21 0.35 0 0.7-0.103 0.999-0.308 0.541-0.374 0.818-1.014 0.71-1.653l-1.062-6.339 4.579-4.571c0.453-0.451 0.608-1.113 0.402-1.713s-0.74-1.038-1.381-1.133l-6.245-0.929-2.716-5.636c-0.284-0.593-0.896-0.971-1.569-0.971z"></path>
</svg>
