<!-- Generated by IcoMoon.io -->
<svg version="1.1" xmlns="http://www.w3.org/2000/svg" width="24" height="24" viewBox="0 0 24 24">
<title>support</title>
<path d="M12 0c-6.627 0-12 5.373-12 12s5.373 12 12 12 12-5.373 12-12-5.373-12-12-12zM15 1.945c3.38 1.008 6.039 3.675 7.048 7.055h-4.865c-0.525-0.903-1.279-1.656-2.183-2.181zM16.491 12.005c0 2.483-2.011 4.495-4.491 4.495s-4.491-2.013-4.491-4.495 2.011-4.496 4.491-4.496c2.48 0 4.491 2.013 4.491 4.496zM10.5 1.615c0.49-0.070 0.99-0.108 1.5-0.108s1.010 0.038 1.5 0.108v4.589c-0.48-0.124-0.981-0.197-1.5-0.197s-1.020 0.073-1.5 0.197v-4.589zM9 1.945v4.874c-0.904 0.525-1.658 1.278-2.183 2.181h-4.865c1.009-3.38 3.667-6.048 7.048-7.055zM1.507 12.004c0-0.511 0.043-1.012 0.114-1.504h4.579c-0.125 0.481-0.193 0.984-0.193 1.504 0 0.517 0.068 1.018 0.191 1.496h-4.579c-0.070-0.489-0.113-0.988-0.113-1.496zM9 22.062c-3.383-1.008-6.042-3.679-7.050-7.062h4.863c0.526 0.906 1.281 1.663 2.187 2.189v4.873zM13.5 22.392c-0.49 0.070-0.991 0.108-1.5 0.108s-1.010-0.039-1.5-0.108v-4.588c0.48 0.124 0.981 0.197 1.5 0.197s1.020-0.073 1.5-0.197v4.588zM15 22.062v-4.874c0.906-0.526 1.662-1.283 2.187-2.189h4.863c-1.008 3.383-3.667 6.054-7.050 7.062zM17.801 13.5c0.123-0.478 0.191-0.979 0.191-1.496 0-0.52-0.069-1.023-0.194-1.504h4.58c0.071 0.492 0.114 0.992 0.114 1.504 0 0.509-0.043 1.007-0.113 1.496h-4.579z"></path>
</svg>
