<!-- Generated by IcoMoon.io -->
<svg version="1.1" xmlns="http://www.w3.org/2000/svg" width="24" height="24" viewBox="0 0 24 24">
<title>symbol-male</title>
<path d="M23.961 0.552c0.003-0.152-0.032-0.287-0.131-0.384-0.097-0.098-0.233-0.157-0.384-0.153l-0.274 0.006c-0.005 0-0.009 0.002-0.015 0.003l-6.866-0.024c-0.302 0.007-0.552 0.257-0.56 0.56l-0.001 0.384c0.046 0.357 0.326 0.565 0.629 0.558l5.035 0.010-5.992 5.956c-1.626-1.362-3.72-2.184-6.007-2.184-5.168 0-9.358 4.189-9.358 9.358s4.189 9.358 9.358 9.358c5.168 0 9.358-4.19 9.358-9.358 0-2.342-0.862-4.482-2.285-6.123l6.010-5.973-0.022 5.127c-0.007 0.302 0.233 0.566 0.536 0.559l0.384-0.001c0.303-0.007 0.553-0.187 0.56-0.49l0.016-6.902c0-0.006-0.021-0.009-0.021-0.015zM17.269 14.642c0 4.348-3.525 7.873-7.873 7.873s-7.873-3.525-7.873-7.873 3.525-7.873 7.873-7.873c4.348-0 7.873 3.525 7.873 7.873z"></path>
</svg>
