<!-- Generated by IcoMoon.io -->
<svg version="1.1" xmlns="http://www.w3.org/2000/svg" width="24" height="24" viewBox="0 0 24 24">
<title>symble-female</title>
<path d="M14.617 0c-5.175 0-9.371 4.195-9.371 9.371 0 2.308 0.836 4.42 2.219 6.053l-2.983 3.001-3.169-3.199c-0.292-0.293-0.767-0.293-1.060 0s-0.293 0.767 0 1.060l3.172 3.202-3.194 3.214c-0.293 0.293-0.293 0.768 0 1.060s0.767 0.293 1.060 0l3.19-3.209 3.197 3.227c0.293 0.293 0.767 0.293 1.060 0s0.293-0.767 0-1.060l-3.2-3.231 2.985-3.003c1.639 1.405 3.766 2.256 6.094 2.256 5.175 0 9.371-4.196 9.371-9.371s-4.195-9.371-9.371-9.371zM14.617 17.256c-4.354 0-7.884-3.53-7.884-7.884s3.53-7.884 7.884-7.884 7.884 3.53 7.884 7.884c0 4.354-3.53 7.884-7.884 7.884z"></path>
</svg>
