<!-- Generated by IcoMoon.io -->
<svg version="1.1" xmlns="http://www.w3.org/2000/svg" width="24" height="24" viewBox="0 0 24 24">
<title>tag</title>
<path d="M24 9.756l-0-7.93c0-1.006-0.819-1.826-1.825-1.826h-8.095c-0.508 0-1.277 0-1.779 0.503l-11.858 11.858c-0.285 0.285-0.443 0.663-0.443 1.066s0.157 0.782 0.442 1.067l9.066 9.064c0.284 0.285 0.663 0.442 1.065 0.442s0.782-0.157 1.066-0.442l11.858-11.859c0.509-0.507 0.506-1.238 0.503-1.943zM22.437 10.639l-11.869 11.858-9.064-9.075 11.845-11.848c0.119-0.074 0.549-0.074 0.726-0.074l0.337 0.001 7.762-0.001c0.18 0 0.325 0.146 0.325 0.326v7.936c0.002 0.285 0.003 0.763-0.063 0.877zM18 3c-1.657 0-3 1.343-3 3s1.343 3 3 3c1.657 0 3-1.343 3-3s-1.343-3-3-3zM18 7.5c-0.828 0-1.5-0.672-1.5-1.5s0.672-1.5 1.5-1.5 1.5 0.672 1.5 1.5-0.672 1.5-1.5 1.5z"></path>
</svg>
