<!-- Generated by IcoMoon.io -->
<svg version="1.1" xmlns="http://www.w3.org/2000/svg" width="24" height="24" viewBox="0 0 24 24">
<title>target</title>
<path d="M23.25 11.25h-2.284c-0.361-4.372-3.845-7.853-8.216-8.214v-2.286c0-0.414-0.336-0.75-0.75-0.75s-0.75 0.336-0.75 0.75v2.286c-4.371 0.361-7.856 3.842-8.217 8.214h-2.283c-0.414 0-0.75 0.336-0.75 0.75s0.336 0.75 0.75 0.75h2.283c0.361 4.371 3.846 7.852 8.217 8.214v2.286c0 0.414 0.336 0.75 0.75 0.75s0.75-0.336 0.75-0.75v-2.286c4.371-0.361 7.855-3.843 8.216-8.214h2.284c0.414 0 0.75-0.336 0.75-0.75s-0.336-0.75-0.75-0.75zM11.25 4.537v6.713h-6.714c0.352-3.544 3.17-6.361 6.714-6.713zM4.536 12.75h6.714v6.713c-3.544-0.352-6.362-3.169-6.714-6.713zM12.75 19.463v-6.713h6.714c-0.352 3.544-3.17 6.361-6.714 6.713zM12.75 11.25v-6.713c3.544 0.352 6.362 3.169 6.714 6.713z"></path>
</svg>
