<!-- Generated by IcoMoon.io -->
<svg version="1.1" xmlns="http://www.w3.org/2000/svg" width="24" height="24" viewBox="0 0 24 24">
<title>trash</title>
<path d="M21.006 3.739l-5.272 0v-2.042c0-0.949-0.773-1.697-1.721-1.697h-4.025c-0.949 0-1.721 0.748-1.721 1.697v2.042h-5.273c-0.413 0-0.749 0.336-0.749 0.749s0.336 0.749 0.749 0.749h1.030l1.738 17.317c0.073 0.81 0.763 1.446 1.571 1.446h9.334c0.808 0 1.498-0.635 1.57-1.439l1.739-17.325h1.030c0.414 0 0.749-0.336 0.749-0.749s-0.335-0.749-0.749-0.749zM9.764 1.697c0-0.122 0.1-0.222 0.223-0.222h4.025c0.123 0 0.223 0.1 0.223 0.222v2.042h-4.471zM16.746 22.42c-0.004 0.042-0.053 0.083-0.079 0.083h-9.334c-0.026 0-0.076-0.041-0.080-0.090l-1.723-17.175h12.94z"></path>
</svg>
