<!-- Generated by IcoMoon.io -->
<svg version="1.1" xmlns="http://www.w3.org/2000/svg" width="24" height="24" viewBox="0 0 24 24">
<title>umbrella</title>
<path d="M24 11.943c0 0.414-0.335 0.749-0.749 0.749h-10.514v7.593c0 2.041-1.661 3.703-3.703 3.703s-3.703-1.661-3.703-3.703c0-0.414 0.335-0.749 0.749-0.749s0.749 0.335 0.749 0.749c0 1.216 0.989 2.205 2.205 2.205s2.205-0.989 2.205-2.205v-7.593h-10.491c-0.414 0-0.749-0.336-0.749-0.749 0-5.792 4.237-9.465 11.24-9.708v-1.475c0-0.414 0.335-0.749 0.749-0.749s0.749 0.335 0.749 0.749v1.475c7.004 0.242 11.262 3.916 11.262 9.708zM22.474 11.195c-0.37-4.697-4.19-7.475-10.485-7.475s-10.093 2.778-10.462 7.474l20.947 0z"></path>
</svg>
