<!-- Generated by IcoMoon.io -->
<svg version="1.1" xmlns="http://www.w3.org/2000/svg" width="24" height="24" viewBox="0 0 24 24">
<title>user</title>
<path d="M12 1.501c2.548 0 5.251 2.146 5.251 3.749v3.75c0 1.443-0.6 4.205-2.21 5.473-0.41 0.323-0.624 0.837-0.562 1.356s0.389 0.969 0.864 1.187l6.531 3.097c0.051 0.023 0.626 0.12 0.626 0.923l0.001 1.465-20.999 0.001v-1.523c0-0.597 0.448-0.784 0.627-0.866l6.59-3.11c0.473-0.217 0.799-0.664 0.862-1.18s-0.144-1.028-0.55-1.353c-1.559-1.252-2.285-4.003-2.285-5.468v-3.75c0-1.568 2.73-3.749 5.256-3.748zM12 0c-3.314 0-6.756 2.766-6.756 5.249v3.75c0 1.638 0.748 4.954 2.847 6.638l-6.59 3.11s-1.5 0.668-1.5 1.5v2.252c0 0.829 0.672 1.5 1.5 1.5h21c0.829 0 1.5-0.671 1.5-1.5v-2.252c0-0.882-1.5-1.5-1.5-1.5l-6.531-3.097c2.079-1.636 2.782-4.851 2.782-6.652v-3.75c0-2.484-3.439-5.249-6.752-5.249v0z"></path>
</svg>
