<!-- Generated by IcoMoon.io -->
<svg version="1.1" xmlns="http://www.w3.org/2000/svg" width="24" height="24" viewBox="0 0 24 24">
<title>user-female</title>
<path d="M22.501 18.813l-6.527-3.095c0.871-0.437 4.272-0.575 4.553-1.342 0 0-1.344-2.063-1.672-4.742-0.128-1.040-0.346-2.404-0.563-4.326-0.352-3.117-2.974-5.307-6.286-5.307h-0.012c-3.312 0-5.934 2.189-6.285 5.306-0.217 1.922-0.435 3.287-0.563 4.326-0.328 2.68-1.672 4.742-1.672 4.742 0.281 0.768 3.682 0.906 4.553 1.342l-6.528 3.096s-1.499 0.526-1.499 1.769v1.981c0 0.829 0.671 1.437 1.499 1.437h21.002c0.828 0 1.499-0.608 1.499-1.437v-1.981c0-1.242-1.499-1.769-1.499-1.769zM1.5 22.5v-1.918c0-0.080 0.284-0.272 0.514-0.36 0.050-0.018 0.081-0.032 0.127-0.054l6.527-3.095c0.519-0.245 0.851-0.766 0.858-1.339s-0.315-1.101-0.828-1.358c-0.508-0.255-1.18-0.381-2.232-0.563-0.25-0.044-0.591-0.105-0.922-0.171 0.429-0.963 0.904-2.311 1.091-3.835 0.046-0.38 0.105-0.807 0.171-1.28 0.114-0.805 0.254-1.825 0.393-3.052 0.262-2.317 2.233-3.974 4.795-3.974h0.012c2.562 0 4.534 1.657 4.795 3.974 0.138 1.227 0.279 2.247 0.393 3.052 0.066 0.473 0.125 0.9 0.171 1.279 0.187 1.524 0.662 2.871 1.090 3.835-0.331 0.066-0.672 0.128-0.922 0.171-1.053 0.182-1.724 0.308-2.232 0.563-0.513 0.257-0.834 0.784-0.828 1.358s0.339 1.094 0.858 1.339l6.527 3.095c0.047 0.023 0.078 0.037 0.127 0.054 0.231 0.088 0.48 0.28 0.514 0.36l0.001 1.918h-21.001z"></path>
</svg>
