<!-- Generated by IcoMoon.io -->
<svg version="1.1" xmlns="http://www.w3.org/2000/svg" width="24" height="24" viewBox="0 0 24 24">
<title>user-unfollow</title>
<path d="M18.723 9l0-3.744c0-2.48-3.433-5.241-6.741-5.241s-6.746 2.761-6.746 5.241v3.744c0 1.636 0.747 4.946 2.842 6.628l-6.58 3.106s-1.497 0.667-1.497 1.498v2.249c0 0.828 0.671 1.498 1.497 1.498h14.235v-1.499l-14.233 0.001v-1.521c0-0.596 0.447-0.783 0.626-0.865l6.58-3.105c0.472-0.217 0.797-0.663 0.861-1.179s-0.144-1.026-0.549-1.351c-1.557-1.25-2.282-3.997-2.282-5.46v-3.744c0-1.566 2.725-3.743 5.248-3.743 2.545 0 5.243 2.143 5.243 3.743v3.744c0 1.441-0.599 4.199-2.206 5.464-0.411 0.322-0.623 0.835-0.561 1.353 0.061 0.519 0.388 0.967 0.863 1.185l0.424 0.196 0.657-1.213-0.456-0.345c2.076-1.633 2.778-4.841 2.778-6.64zM21.662 20.589l2.119-2.119c0.293-0.292 0.293-0.767 0-1.059s-0.767-0.292-1.059 0l-2.119 2.12-2.119-2.12c-0.293-0.292-0.767-0.292-1.059 0s-0.293 0.768 0 1.059l2.119 2.119-2.119 2.119c-0.293 0.292-0.293 0.767 0 1.060s0.767 0.292 1.059 0l2.119-2.119 2.119 2.119c0.292 0.292 0.767 0.292 1.059 0s0.293-0.768 0-1.060z"></path>
</svg>
