<!-- Generated by IcoMoon.io -->
<svg version="1.1" xmlns="http://www.w3.org/2000/svg" width="24" height="24" viewBox="0 0 24 24">
<title>user-follow</title>
<path d="M1.5 20.965c0-0.596 0.447-0.783 0.626-0.866l6.588-3.109c0.472-0.217 0.798-0.664 0.861-1.18s-0.144-1.028-0.55-1.353c-1.558-1.251-2.284-4.001-2.284-5.466v-3.748c0-1.567 2.728-3.747 5.254-3.747 2.547 0 5.249 2.146 5.249 3.747v3.749c0 1.443-0.6 4.203-2.209 5.47-0.41 0.323-0.623 0.836-0.562 1.355s0.389 0.968 0.864 1.187l2.248 1.067 0.371-1.497-1.993-0.932c2.078-1.636 2.781-4.848 2.781-6.649v-3.749c0-2.483-3.437-5.247-6.749-5.247s-6.754 2.764-6.754 5.247v3.749c0 1.638 0.747 4.952 2.845 6.636l-6.588 3.109s-1.499 0.668-1.499 1.499v2.251c0 0.828 0.671 1.499 1.499 1.499h16.5v-1.5l-16.499 0.001v-1.522zM23.25 19.492h-2.25v-2.25c0-0.414-0.336-0.75-0.75-0.75s-0.75 0.336-0.75 0.75v2.25h-2.25c-0.414 0-0.75 0.336-0.75 0.75s0.336 0.75 0.75 0.75h2.25v2.25c0 0.414 0.336 0.75 0.75 0.75s0.75-0.336 0.75-0.75v-2.25h2.25c0.414 0 0.75-0.336 0.75-0.75s-0.336-0.75-0.75-0.75z"></path>
</svg>
