<!-- Generated by IcoMoon.io -->
<svg version="1.1" xmlns="http://www.w3.org/2000/svg" width="24" height="24" viewBox="0 0 24 24">
<title>user-following</title>
<path d="M1.498 22.485l0-1.521c0-0.596 0.447-0.783 0.626-0.865l6.581-3.105c0.472-0.217 0.797-0.663 0.861-1.178s-0.144-1.027-0.549-1.351c-1.557-1.25-2.282-3.997-2.282-5.46v-3.745c0-1.566 2.726-3.743 5.248-3.743 2.545 0 5.243 2.143 5.243 3.743v3.745c0 1.441-0.599 4.199-2.207 5.465-0.41 0.323-0.623 0.835-0.561 1.354s0.389 0.967 0.863 1.185l3.799 1.809 0.893-1.266-4.066-1.905c2.076-1.634 2.778-4.843 2.778-6.642v-3.745c0-2.48-3.433-5.242-6.742-5.242s-6.747 2.761-6.747 5.242v3.745c0 1.636 0.747 4.946 2.842 6.628l-6.581 3.106s-1.497 0.667-1.497 1.498v2.249c0 0.828 0.671 1.498 1.497 1.498h14.979l-1.218-1.498zM23.712 16.953c-0.326-0.256-0.797-0.197-1.052 0.128l-3.204 4.887-1.992-1.992c-0.293-0.293-0.767-0.293-1.060 0s-0.293 0.767 0 1.059l2.649 2.649c0.293 0.293 0.767 0.293 1.059 0 0.071-0.071 0.124-0.153 0.161-0.241l3.566-5.439c0.255-0.326 0.197-0.796-0.129-1.051z"></path>
</svg>
