<!-- Generated by IcoMoon.io -->
<svg version="1.1" xmlns="http://www.w3.org/2000/svg" width="24" height="24" viewBox="0 0 24 24">
<title>vector</title>
<path d="M23.25 15.75h-0.756v-0.038c0-3.795-2.028-7.12-5.055-8.962h3.769c0.26 0.446 0.738 0.75 1.292 0.75 0.828 0 1.5-0.672 1.5-1.5s-0.672-1.5-1.5-1.5c-0.554 0-1.032 0.304-1.292 0.75h-6.958v-0.75c0-0.414-0.336-0.75-0.75-0.75h-3c-0.414 0-0.75 0.336-0.75 0.75v0.75h-6.958c-0.26-0.446-0.738-0.75-1.292-0.75-0.828 0-1.5 0.672-1.5 1.5s0.672 1.5 1.5 1.5c0.554 0 1.032-0.304 1.292-0.75h3.769c-3.027 1.842-5.054 5.167-5.054 8.962v0.038h-0.756c-0.414 0-0.75 0.336-0.75 0.75v3c0 0.414 0.336 0.75 0.75 0.75h3c0.414 0 0.75-0.336 0.75-0.75v-3c0-0.414-0.336-0.75-0.75-0.75h-0.744v-0.038c0-4.182 2.87-7.703 6.744-8.704v0.492c0 0.414 0.336 0.75 0.75 0.75h3c0.414 0 0.75-0.336 0.75-0.75v-0.492c3.873 1.002 6.744 4.522 6.744 8.704v0.038h-0.744c-0.414 0-0.75 0.336-0.75 0.75v3c0 0.414 0.336 0.75 0.75 0.75h3c0.414 0 0.75-0.336 0.75-0.75v-3c0-0.414-0.336-0.75-0.75-0.75zM3 18.75h-1.5v-1.5h1.5v1.5zM12.75 6.75h-1.5v-1.5h1.5v1.5zM22.5 18.75h-1.5v-1.5h1.5v1.5z"></path>
</svg>
