<!-- Generated by IcoMoon.io -->
<svg version="1.1" xmlns="http://www.w3.org/2000/svg" width="24" height="24" viewBox="0 0 24 24">
<title>volume-1</title>
<path d="M15.346 22.455c-0.245 0.13-0.541 0.116-0.771-0.040l-7.526-5.909-2.499-0.002c-1.278 0-2.317-0.906-2.317-2.025l0.040-4.948c0-1.114 1.039-2.021 2.317-2.021l2.498-0.002 7.486-5.924c0.126-0.085 0.273-0.128 0.42-0.128 0.121 0 0.242 0.029 0.352 0.088 0.245 0.13 0.399 0.384 0.399 0.662v19.586c-0 0.277-0.153 0.532-0.398 0.662zM14.243 3.618l-6.506 5.262c-0.124 0.084-0.27 0.128-0.419 0.128l-2.728 0.002c-0.482 0-0.818 0.274-0.818 0.527l-0.040 4.949c0 0.246 0.336 0.519 0.818 0.519l2.728 0.002c0.149 0 0.295 0.045 0.418 0.128l6.546 5.25v-16.767zM18.511 15.852c-0.415 0.069-0.795-0.208-0.864-0.617s0.208-0.795 0.616-0.863c1.179-0.197 2.003-1.226 2.003-2.502 0-1.215-0.852-2.266-2.027-2.501-0.407-0.081-0.67-0.476-0.589-0.882 0.071-0.357 0.384-0.603 0.735-0.603 0.048 0 0.098 0.005 0.147 0.015 1.874 0.373 3.234 2.043 3.234 3.971-0 1.993-1.37 3.667-3.256 3.982z"></path>
</svg>
