<!-- Generated by IcoMoon.io -->
<svg version="1.1" xmlns="http://www.w3.org/2000/svg" width="24" height="24" viewBox="0 0 24 24">
<title>volume-2</title>
<path d="M13.465 1.545c-0.245-0.13-0.541-0.115-0.771 0.040l-7.526 5.909-2.499 0.002c-1.278 0-2.317 0.906-2.317 2.025l0.040 4.948c0 1.114 1.039 2.021 2.317 2.021l2.498 0.002 7.486 5.924c0.126 0.085 0.273 0.128 0.42 0.128 0.121 0 0.242-0.029 0.352-0.088 0.245-0.13 0.399-0.384 0.399-0.662v-19.586c0-0.277-0.153-0.532-0.398-0.662zM12.363 20.382l-6.506-5.262c-0.124-0.084-0.27-0.128-0.419-0.128l-2.728-0.001c-0.482 0-0.818-0.274-0.818-0.527l-0.040-4.949c0-0.246 0.336-0.519 0.818-0.519l2.728-0.002c0.149 0 0.295-0.045 0.418-0.128l6.546-5.25v16.767zM19.886 12.129c0-1.992-1.37-3.666-3.256-3.981-0.415-0.069-0.795 0.208-0.864 0.617s0.208 0.795 0.616 0.863c1.179 0.197 2.003 1.226 2.003 2.502 0 1.215-0.852 2.266-2.027 2.501-0.407 0.081-0.67 0.476-0.589 0.882 0.071 0.357 0.384 0.603 0.735 0.603 0.048 0 0.098-0.005 0.147-0.015 1.874-0.373 3.234-2.044 3.234-3.972zM18.891 5.248c-0.387-0.144-0.821 0.053-0.965 0.441-0.145 0.388 0.052 0.82 0.44 0.965 2.262 0.844 3.782 3.045 3.782 5.476 0 2.432-1.52 4.637-3.781 5.484-0.388 0.146-0.585 0.578-0.439 0.965 0.113 0.302 0.399 0.487 0.702 0.487 0.088 0 0.177-0.015 0.263-0.048 2.844-1.067 4.755-3.835 4.755-6.889s-1.913-5.819-4.758-6.881z"></path>
</svg>
