<!-- Generated by IcoMoon.io -->
<svg version="1.1" xmlns="http://www.w3.org/2000/svg" width="24" height="24" viewBox="0 0 24 24">
<title>volume-off</title>
<path d="M13.489 1.545c-0.245-0.13-0.541-0.115-0.771 0.040l-7.526 5.909-2.499 0.002c-1.278 0-2.317 0.906-2.317 2.025l0.040 4.948c0 1.114 1.039 2.021 2.317 2.021l2.498 0.002 7.486 5.924c0.126 0.085 0.273 0.128 0.42 0.128 0.121 0 0.242-0.029 0.352-0.088 0.245-0.13 0.399-0.384 0.399-0.662v-19.586c0-0.277-0.153-0.532-0.398-0.662zM12.387 20.382l-6.506-5.262c-0.124-0.084-0.27-0.128-0.419-0.128l-2.728-0.001c-0.482 0-0.818-0.274-0.818-0.527l-0.040-4.949c0-0.246 0.336-0.519 0.818-0.519l2.728-0.002c0.149 0 0.295-0.045 0.418-0.128l6.547-5.25v16.767zM20.953 12.012l2.451-2.481c0.293-0.293 0.293-0.768 0-1.060s-0.768-0.293-1.061 0l-2.445 2.474-2.445-2.474c-0.292-0.293-0.768-0.293-1.061 0s-0.293 0.768 0 1.060l2.451 2.481-2.428 2.457c-0.292 0.293-0.293 0.768 0 1.061s0.768 0.293 1.061 0l2.421-2.45 2.421 2.45c0.293 0.293 0.768 0.293 1.061 0s0.293-0.768 0-1.061z"></path>
</svg>
