<!-- Generated by IcoMoon.io -->
<svg version="1.1" xmlns="http://www.w3.org/2000/svg" width="24" height="24" viewBox="0 0 24 24">
<title>wallet</title>
<path d="M23.986 6.811c0.011-0.554-0.138-1.847-1.824-2.297l-16.924-3.388c-1.24 0-2.249 1.009-2.249 2.249v3.015l-0.75-0.002c-1.236 0.005-2.24 1.011-2.24 2.248v11.99c0 1.24 1.009 2.249 2.249 2.249h19.502c1.24 0 2.249-1.009 2.249-2.249zM4.489 3.374c0-0.392 0.302-0.714 0.684-0.747l16.539 3.347c0.006 0.003-0.123 0.42-0.723 0.412h-16.5zM22.501 20.626c0 0.414-0.336 0.75-0.75 0.75h-19.502c-0.414 0-0.75-0.336-0.75-0.75v-11.99c0-0.414 0.336-0.75 0.75-0.75h18.743c0.736 0 1.509-0.251 1.509-0.747v13.487h0zM4.499 13.136c-0.828 0-1.499 0.671-1.499 1.499s0.671 1.499 1.499 1.499 1.499-0.671 1.499-1.499-0.671-1.499-1.499-1.499z"></path>
</svg>
