<!-- Generated by IcoMoon.io -->
<svg version="1.1" xmlns="http://www.w3.org/2000/svg" width="24" height="24" viewBox="0 0 24 24">
<title>wrench</title>
<path d="M23.576 5.067c-0.253-0.117-0.552-0.072-0.762 0.114l-3.777 3.393-3.41-3.499 3.376-3.899c0.184-0.212 0.228-0.504 0.114-0.761s-0.367-0.414-0.644-0.414h-0.203c-2.087 0-5.69 0.179-7.298 1.811l-0.324 0.322c-1.716 1.751-2.021 4.622-1.116 6.804l-8.647 8.825c-1.166 1.182-1.166 3.098 0 4.281l1.055 1.070c0.583 0.591 1.347 0.886 2.112 0.886s1.528-0.296 2.111-0.886l8.774-8.845c0.83 0.448 1.967 0.741 2.922 0.741 1.531 0 2.982-0.617 4.087-1.739l0.32-0.324c1.747-1.771 1.72-5.557 1.728-7.222 0.001-0.283-0.162-0.541-0.415-0.658zM21.218 11.93l-0.278 0.325c-0.837 0.849-1.932 1.256-3.083 1.256-0.569 0-1.337-0.107-1.855-0.323-0.468-0.194-0.903-0.475-1.293-0.829l-9.605 9.685c-0.282 0.286-0.656 0.444-1.055 0.444s-0.774-0.157-1.056-0.444l-1.055-1.070c-0.582-0.59-0.582-1.551-0-2.141l9.385-9.574c-0.315-0.458-0.529-0.958-0.657-1.475h-0c-0.361-1.461-0.151-3.48 0.984-4.637l0.323-0.326c0.973-0.987 3.5-1.279 4.899-1.365l-2.748 3.174c-0.246 0.284-0.233 0.712 0.028 0.98l4.344 4.457c0.263 0.271 0.689 0.287 0.973 0.036l3.058-2.754c-0.091 1.484-0.379 3.638-1.31 4.582z"></path>
</svg>
